<svg width="20" height="20" viewBox="0 0 20 20" fill="none" xmlns="http://www.w3.org/2000/svg">
<path d="M19.6624 7.98693L19.6344 7.91531L16.9154 0.820919C16.8602 0.681779 16.7624 0.563649 16.6361 0.483389C16.5088 0.403039 16.3597 0.364189 16.2094 0.372189C16.0591 0.380189 15.9149 0.434639 15.7969 0.528039C15.6799 0.621809 15.5956 0.750119 15.5559 0.894659L13.7177 6.52049H6.28059L4.44238 0.894659C4.40268 0.750119 4.31836 0.621809 4.20143 0.528039C4.08389 0.434019 3.93985 0.379149 3.78954 0.371139C3.63923 0.363129 3.49018 0.402379 3.36331 0.483389C3.23642 0.563319 3.13823 0.681529 3.0829 0.820919L0.360854 7.92462L0.332814 7.99524C-0.0579363 9.0184 -0.105976 10.1407 0.195934 11.1934C0.497844 12.2462 1.13338 13.1725 2.00696 13.833L2.01734 13.8402L2.04123 13.8589L6.18819 16.9632L8.23832 18.5159L9.48462 19.4599C9.63092 19.5705 9.80942 19.6304 9.99292 19.6304C10.1764 19.6304 10.3549 19.5705 10.5013 19.4599L11.7476 18.5159L13.7987 16.9632L17.9696 13.8402L17.9809 13.8319C18.8575 13.1721 19.4956 12.245 19.7989 11.1906C20.1023 10.1362 20.0543 9.0117 19.6624 7.98693Z" fill="white"/>
</svg>
