<svg width="85" height="100" viewBox="0 0 85 100" fill="none" xmlns="http://www.w3.org/2000/svg">
<mask id="mask0_1017_630" style="mask-type:luminance" maskUnits="userSpaceOnUse" x="9" y="11" width="66" height="77">
<path d="M9.22998 11.0273H74.4138V87.7142H9.22998V11.0273Z" fill="white"/>
</mask>
<g mask="url(#mask0_1017_630)">
<path d="M57.4141 43.8345C57.5185 50.598 54.8849 55.184 54.0503 56.7793C53.3337 58.1595 51.5996 60.8435 48.2754 65C44.077 70.2452 30.9754 86.6255 30.1019 87.7142H65.6403L57.44 43.8185L57.4141 43.8345ZM60.6864 66.2268L60.986 67.7916C57.466 72.27 52.0821 75.6132 45.8111 75.6132C44.4687 75.6132 43.0602 75.4599 41.509 75.0769C41.8222 74.6779 42.1348 74.2941 42.4085 73.9416C43.4123 74.156 44.5595 74.2941 45.7463 74.2941C51.8344 74.3094 57.1663 71.0737 60.6864 66.2268ZM9.22998 11.0273V87.7142H28.681L47.9233 63.6351L47.8974 63.6038C44.8073 66.1657 40.8702 67.5612 36.6466 67.5612C28.7984 67.5612 21.8887 62.0855 18.89 55.2755L18.8641 55.3068L22.9444 71.5185H21.8368C21.8368 71.5185 19.8161 63.3123 18.082 56.1499C16.7785 50.7361 15.9698 46.7177 15.9828 43.1593C16.0224 30.905 24.209 19.6776 35.0947 18.8498C35.395 18.8185 36.3204 18.7117 37.7023 18.7117C46.0848 18.7117 71.9372 18.9413 74.4268 18.9566V11.0273H9.22998ZM32.1226 68.0517C33.6868 69.647 36.1511 71.6406 39.2146 72.9292C38.9539 73.2512 38.6802 73.6044 38.38 73.9721C35.3295 72.5462 32.3444 70.3375 30.0105 67.3773C30.6758 67.6382 31.3924 67.8679 32.1226 68.0517ZM42.6043 19.8927C45.8111 20.9509 48.8357 22.8987 51.2345 25.5217C50.5439 25.3065 49.8396 25.1227 49.1224 24.9998C45.7593 21.871 41.3657 19.9995 36.7899 19.9995C25.969 19.9995 17.104 30.3831 17.104 43.144C17.104 55.905 25.9301 66.2878 36.7769 66.2878C47.6237 66.2878 56.4491 55.905 56.4491 43.144C56.4491 38.2055 54.872 33.267 52.6949 29.785C53.2163 29.9688 53.8421 30.2755 54.5717 30.7821C56.0451 33.4044 57.4011 37.6837 58.5742 44.248C59.7999 51.1351 66.0968 84.1253 66.7875 87.6989H74.4138V20.0918L42.6043 19.8614V19.8927ZM20.7026 42.6069C20.7026 39.5094 22.6967 37.454 25.3958 37.454C26.4515 37.454 27.6512 37.837 28.3289 38.175C28.1856 38.5428 28.0682 39.0181 28.0293 39.3248L27.9508 39.3553C27.4294 38.6808 26.5948 38.098 25.3562 38.098C23.792 38.098 21.9801 39.601 21.9801 42.5764C21.9801 45.4756 23.818 47.0244 25.4736 47.0244C26.947 47.0244 27.6642 46.2118 28.303 45.5824L28.3549 45.6442L28.1726 46.7787C27.8853 47.0396 26.8685 47.7758 25.3432 47.7758C22.58 47.7606 20.7026 45.7205 20.7026 42.6069ZM27.1687 61.8864C25.7083 58.3891 25.0436 54.8468 24.9651 51.4723C25.3303 51.4723 25.7609 51.4875 26.1389 51.4875C26.2693 54.7239 26.8951 58.7576 29.0462 63.1437C28.2634 62.8065 27.6772 62.3617 27.1687 61.8864ZM35.0039 47.5767C34.5603 47.5462 33.9475 47.5302 33.3742 47.5149C33.0351 47.5149 32.7225 47.4997 32.4618 47.4997H32.3574C31.6142 47.4997 30.467 47.5302 29.7238 47.5767C29.7757 46.3186 29.8282 45.0766 29.8282 43.8345V41.3649C29.8282 40.1228 29.7757 38.88 29.7238 37.6532C30.454 37.6989 31.5883 37.7302 32.3314 37.7302C33.074 37.7302 34.43 37.6989 34.8606 37.6532C34.847 37.7913 34.834 37.9446 34.834 38.1437C34.834 38.3436 34.847 38.5428 34.8606 38.6351C34.0519 38.558 32.6181 38.4504 31.0273 38.4504C31.0143 39.0646 30.9884 41.6868 30.9884 42.0553C32.4352 42.0553 33.3613 41.9783 34.0779 41.9172C34.0519 42.0553 34.0389 42.3155 34.0389 42.4688C34.0389 42.6069 34.0519 42.8221 34.0779 42.9754C33.2309 42.8679 31.3405 42.8526 30.9884 42.8526C30.9625 43.3279 30.9884 46.4415 31.0014 46.7177C31.9008 46.7024 34.1823 46.6253 35.0169 46.5338C35.0039 46.6406 34.9909 46.871 34.9909 47.0854C34.9909 47.3005 34.978 47.4234 35.0039 47.5767ZM42.1873 47.5302C42.0699 47.5302 41.6523 47.5302 41.4176 47.5767C40.9357 46.7177 39.3839 43.9718 38.3281 42.6992C38.3022 42.6992 37.7023 42.6992 37.7023 42.6992V43.8498C37.7023 45.0918 37.7542 46.3339 37.8067 47.5767C37.5979 47.5302 37.2198 47.5302 37.142 47.5302C37.0635 47.5302 36.6855 47.5302 36.4766 47.5767C36.5292 46.3339 36.5811 45.0918 36.5811 43.8498V41.3801C36.5811 40.1381 36.5292 38.8952 36.4766 37.6532C36.9462 37.6989 37.5331 37.7302 38.0019 37.7302C38.4714 37.7302 38.928 37.6532 39.3968 37.6532C40.7788 37.6532 42.0434 38.1285 42.0434 39.9382C42.0434 41.8554 40.4273 42.5459 39.4883 42.684C40.0881 43.5583 42.2392 46.6406 42.9435 47.5767C42.7087 47.5302 42.2911 47.5302 42.1873 47.5302ZM51.4433 47.7148H51.0393C50.5439 46.932 45.4201 40.6286 44.9635 40.0763C44.9506 40.6134 44.9506 41.7173 44.9506 42.7916C44.9506 44.2175 45.042 46.4109 45.0945 47.5767C44.9635 47.5462 44.7813 47.5302 44.5725 47.5302C44.3514 47.5302 44.1815 47.5615 44.0381 47.5767C44.1425 46.0585 44.1685 43.5888 44.1685 41.2573C44.1685 39.4476 44.1425 38.4504 44.1296 37.5303H44.5336C45.055 38.1903 50.1528 44.4166 50.6087 44.969C50.6217 44.4326 50.6217 43.4965 50.6217 42.4231C50.6217 40.9964 50.5303 38.8037 50.4784 37.6379C50.6087 37.6684 50.7916 37.6837 50.9998 37.6837C51.2216 37.6837 51.3908 37.6684 51.5341 37.6379C51.4304 39.1562 51.4038 41.6258 51.4038 43.9566C51.4038 45.767 51.4304 46.7939 51.4433 47.7148ZM61.9769 34.9539C64.2454 38.2361 66.0968 43.4202 66.3575 47.7758H66.3964L68.2868 24.7542H69.3555C69.3555 24.7542 68.1435 39.6315 67.4392 47.0396C66.5527 56.3032 65.4315 60.153 63.2804 64.1867L62.9548 62.4228C64.6234 58.9567 65.1059 55.9507 65.327 54.3554C66.0054 49.4017 65.0404 42.6382 62.1073 37.3617C58.822 31.4566 52.9427 27.101 45.7333 27.101C39.8145 27.101 34.6647 30.1687 31.0669 34.9386L30.1933 34.1253C34 29.0487 39.5278 25.8123 45.7333 25.8123C52.2384 25.8284 58.0269 29.2639 61.9769 34.9539ZM40.8702 40.1381C40.8702 38.7114 39.8015 38.2513 38.9799 38.2513C38.4195 38.2513 38.0544 38.2971 37.7937 38.3284C37.7542 39.3866 37.7153 40.3524 37.7153 41.3801V42.1774C37.8327 42.1934 38.4066 42.1934 38.5369 42.1934C39.5408 42.1469 40.8702 41.7791 40.8702 40.1381Z" fill="#0052A3"/>
</g>
</svg>
