<svg width="121" height="80" viewBox="0 0 121 80" fill="none" xmlns="http://www.w3.org/2000/svg">
<g clip-path="url(#clip0_1009_654)">
<path d="M39.7123 71.4863H34.8037V48.7188H39.7123V71.4863Z" fill="#C4122E"/>
<mask id="mask0_1009_654" style="mask-type:luminance" maskUnits="userSpaceOnUse" x="0" y="0" width="121" height="80">
<path d="M0.71875 80H120.694V-3.8147e-05H0.71875V80Z" fill="white"/>
</mask>
<g mask="url(#mask0_1009_654)">
<path d="M79.2923 55.2433C79.0902 55.1232 77.5104 54.0277 75.1626 54.0277C71.9892 54.0277 69.7876 56.6118 69.7876 60.1003C69.7876 63.4833 71.8944 66.1785 75.1626 66.1785C77.47 66.1785 79.0762 65.1048 79.2923 64.9702V71.081C78.6766 71.2812 76.9989 71.8908 74.819 71.8908C69.2978 71.8908 64.4514 67.436 64.4514 60.0986C64.4514 53.3016 68.836 48.3153 74.819 48.3153C77.1202 48.3153 78.8274 48.9705 79.2923 49.1325V55.2433ZM28.0559 55.2433C27.8584 55.1232 26.2802 54.0277 23.9324 54.0277C20.7528 54.0277 18.5527 56.6118 18.5527 60.1003C18.5527 63.4833 20.6611 66.1785 23.9324 66.1785C26.2398 66.1785 27.8444 65.1048 28.0559 64.9702V71.081C27.4464 71.2812 25.7703 71.8908 23.5779 71.8908C18.0614 71.8908 13.2212 67.436 13.2212 60.0986C13.2212 53.3016 17.6058 48.3153 23.5795 48.3153C25.89 48.3153 27.5941 48.9705 28.0559 49.1325V55.2433ZM94.7333 54.1133C91.8211 54.1133 89.6583 56.7956 89.6583 60.1003C89.6583 63.4124 91.8211 66.093 94.7333 66.093C97.6424 66.093 99.8114 63.4124 99.8114 60.1003C99.8114 56.7956 97.6424 54.1133 94.7333 54.1133ZM105.012 60.1003C105.012 66.6134 100.716 71.8908 94.7349 71.8908C88.7503 71.8908 84.4606 66.6134 84.4606 60.0986C84.4606 53.5983 88.7519 48.3153 94.7333 48.3153C100.716 48.3153 105.012 53.5982 105.012 60.1003ZM58.3269 53.8949C58.2538 53.8676 56.1875 53.1997 54.4896 53.1997C52.5227 53.1997 51.453 53.9713 51.453 55.065C51.453 56.4517 52.8959 56.9357 53.7028 57.2341L55.0571 57.7383C58.2445 58.9248 59.6952 61.4779 59.6952 64.2513C59.6952 69.9709 55.3976 71.8926 51.6411 71.8926C49.0306 71.8926 46.5848 71.3285 46.3438 71.2702V66.0292C46.7761 66.1566 48.8347 66.8773 50.9788 66.8773C53.4214 66.8773 54.544 66.0402 54.544 64.7518C54.544 63.598 53.5722 62.9319 52.3548 62.4843C52.0594 62.3678 51.6116 62.204 51.3068 62.0875C48.5734 61.0757 46.2941 59.1941 46.2941 55.4271C46.2941 51.1688 49.0181 48.3099 53.5427 48.3099C55.9325 48.3099 58.1808 48.9887 58.3269 49.0342V53.893V53.8949Z" fill="#C4122E"/>
<path d="M8.01552 24.2523C8.01552 22.6837 6.92091 21.4116 5.57909 21.4116C4.23727 21.4116 3.14111 22.6836 3.14111 24.2505V30.2285C3.15717 30.9726 3.421 31.6799 3.87631 32.1995C4.33162 32.7191 4.94239 33.0099 5.57832 33.0099C6.21425 33.0099 6.82501 32.7191 7.28032 32.1995C7.73563 31.6799 7.99946 30.9726 8.01552 30.2285V24.2523ZM21.4011 16.409C21.4011 15.6525 21.1443 14.9269 20.6872 14.392C20.2302 13.857 19.6103 13.5565 18.9639 13.5565C18.3175 13.5565 17.6976 13.857 17.2405 14.392C16.7835 14.9269 16.5267 15.6525 16.5267 16.409V30.2285C16.5267 30.9851 16.7835 31.7107 17.2405 32.2456C17.6976 32.7806 18.3175 33.0811 18.9639 33.0811C19.6103 33.0811 20.2302 32.7806 20.6872 32.2456C21.1443 31.7107 21.4011 30.9851 21.4011 30.2285V16.4071V16.409ZM34.7882 5.67586C34.7882 4.10719 33.6936 2.83332 32.3518 2.83332C31.0084 2.83332 29.9138 4.10719 29.9138 5.67586V35.9081C29.9298 36.6521 30.1937 37.3594 30.649 37.879C31.1043 38.3987 31.7151 38.6895 32.351 38.6895C32.9869 38.6895 33.5977 38.3987 34.053 37.879C34.5083 37.3594 34.7721 36.6521 34.7882 35.9081V5.67586ZM48.1738 16.409C48.1738 15.6525 47.917 14.9269 47.4599 14.392C47.0028 13.857 46.3829 13.5565 45.7365 13.5565C45.0902 13.5565 44.4702 13.857 44.0132 14.392C43.5561 14.9269 43.2994 15.6525 43.2994 16.409V30.2285C43.2994 30.9851 43.5561 31.7107 44.0132 32.2456C44.4702 32.7806 45.0902 33.0811 45.7365 33.0811C46.3829 33.0811 47.0028 32.7806 47.4599 32.2456C47.917 31.7107 48.1738 30.9851 48.1738 30.2285V16.4071V16.409ZM61.5453 24.2523C61.5457 23.4997 61.2908 22.7777 60.8365 22.2451C60.3823 21.7124 59.7659 21.4125 59.1229 21.4116C58.4785 21.4111 57.8602 21.7097 57.4035 22.2418C56.9468 22.774 56.6889 23.4962 56.6865 24.2505V30.2285C56.6865 30.9827 56.9424 31.7059 57.398 32.2392C57.8536 32.7724 58.4716 33.072 59.1159 33.072C59.7602 33.072 60.3781 32.7724 60.8337 32.2392C61.2894 31.7059 61.5453 30.9827 61.5453 30.2285V24.2523ZM74.9371 16.409C74.9211 15.6674 74.6581 14.9623 74.2042 14.4444C73.7504 13.9265 73.1416 13.6366 72.5077 13.6366C71.8738 13.6366 71.265 13.9265 70.8111 14.4444C70.3573 14.9623 70.0943 15.6674 70.0783 16.409V30.2285C70.0783 30.9827 70.3342 31.7059 70.7898 32.2392C71.2454 32.7724 71.8634 33.072 72.5077 33.072C73.152 33.072 73.7699 32.7724 74.2255 32.2392C74.6811 31.7059 74.9371 30.9827 74.9371 30.2285V16.4071V16.409ZM88.332 5.67586C88.332 4.92173 88.076 4.19849 87.6204 3.66524C87.1648 3.132 86.5469 2.83243 85.9025 2.83243C85.2582 2.83243 84.6403 3.132 84.1847 3.66524C83.7291 4.19849 83.4731 4.92173 83.4731 5.67586V35.9081C83.4587 36.292 83.5109 36.6753 83.6266 37.0349C83.7422 37.3945 83.9188 37.7231 84.1458 38.0007C84.3728 38.2783 84.6455 38.4992 84.9474 38.6501C85.2493 38.801 85.5742 38.8789 85.9025 38.8789C86.2309 38.8789 86.5558 38.801 86.8577 38.6501C87.1596 38.4992 87.4323 38.2783 87.6593 38.0007C87.8863 37.7231 88.0629 37.3945 88.1786 37.0349C88.2942 36.6753 88.3464 36.292 88.332 35.9081V5.67586ZM101.724 16.409C101.724 14.8385 100.637 13.5628 99.264 13.5628C98.6198 13.5633 98.002 13.8632 97.5466 14.3965C97.0912 14.9299 96.8354 15.6531 96.8354 16.4071V30.2285C96.8354 31.8063 97.9238 33.0783 99.264 33.0783C100.637 33.0783 101.724 31.8063 101.724 30.2285V16.4071V16.409ZM115.091 24.2523C115.091 23.4975 114.834 22.7735 114.378 22.2397C113.922 21.706 113.304 21.4061 112.659 21.4061C112.014 21.4061 111.395 21.706 110.939 22.2397C110.483 22.7735 110.227 23.4975 110.227 24.2523V30.2285C110.227 31.8063 111.317 33.0801 112.659 33.0801C113.999 33.0801 115.089 31.8063 115.089 30.2285V24.2523H115.091Z" fill="#15495D"/>
<path d="M112.281 68.4872V68.8439H111.413V71.4844H111.056V68.8458H110.185V68.4872H112.281ZM112.463 68.4872H113.021L113.788 70.9458H113.8L114.542 68.489H115.089V71.4844H114.724V69.0277H114.711L113.934 71.4844H113.596L112.838 69.0277H112.82V71.4844H112.463V68.4872Z" fill="#C4122E"/>
</g>
</g>
<defs>
<clipPath id="clip0_1009_654">
<rect width="120" height="80" fill="white" transform="translate(0.706543)"/>
</clipPath>
</defs>
</svg>
