<svg width="91" height="91" viewBox="0 0 91 91" fill="none" xmlns="http://www.w3.org/2000/svg">
<g clip-path="url(#clip0_1017_756)">
<path d="M45.2076 5.2786C34.202 5.2786 24.2351 9.7427 17.0189 16.9644C9.79992 24.1696 5.33858 34.142 5.33858 45.1532C5.33858 56.1561 9.79992 66.1216 17.0189 73.3296C24.2351 80.5416 34.202 85.014 45.2076 85.014C56.216 85.014 66.1884 80.5416 73.3936 73.3296C80.6098 66.1216 85.0616 56.1561 85.0616 45.1532C85.0616 34.142 80.6098 24.1696 73.3936 16.9644C66.1884 9.7427 56.216 5.2786 45.2076 5.2786ZM45.2076 0.447655C69.8913 0.447655 89.9049 20.4639 89.9049 45.1532C89.9049 69.8341 69.8913 89.8477 45.2076 89.8477C20.5267 89.8477 0.504883 69.8341 0.504883 45.1532C0.504883 20.4639 20.5267 0.447655 45.2076 0.447655Z" fill="#007DB8"/>
<path d="M24.0663 44.7879C24.0663 42.1829 22.3378 40.7031 19.8907 40.7031H18.3931V48.8756H19.8481C22.1235 48.8756 24.0663 47.639 24.0663 44.7879ZM50.7066 47.7283L39.6734 56.416L29.5897 48.4771C28.1347 51.9725 24.6186 54.4004 20.5695 54.4004H11.9395V35.1755H20.5695C25.094 35.1755 28.3545 38.0526 29.587 41.118L39.6734 33.1874L43.4093 36.1277L34.1651 43.3933L35.9417 44.7838L45.1831 37.5223L48.9245 40.4544L39.6817 47.7283L41.4555 49.1215L50.7066 41.8462V35.1755H57.413V48.789H64.103V54.4237H50.7066V47.7283ZM72.5983 48.7917H79.2855V54.4237H65.885V35.1755H72.5983V48.7917Z" fill="#007DB8"/>
</g>
<defs>
<clipPath id="clip0_1017_756">
<rect width="90" height="90" fill="white" transform="translate(0.205078 0.146484)"/>
</clipPath>
</defs>
</svg>
