<svg width="131" height="50" viewBox="0 0 131 50" fill="none" xmlns="http://www.w3.org/2000/svg">
<path d="M36.5855 0.411819C37.6657 0.179948 38.9088 0.035016 39.8258 0.99155C40.3963 1.60012 40.6001 2.70158 40.5594 3.68738C40.6001 5.31058 40.0703 7.04988 39.0516 7.89064C38.1548 8.58636 37.0748 8.64403 36.0761 8.4992C35.4037 8.38343 34.7312 7.8618 34.3848 6.9921C33.6102 4.47014 34.568 0.904611 36.5855 0.411819ZM4.26474 2.23805C4.32579 1.36835 4.87608 0.585695 5.50777 0.614851C10.2154 0.614851 14.9025 0.643689 19.5897 0.614851C20.0991 0.556857 20.6494 0.875562 20.8938 1.51329C21.2402 2.38299 20.9346 3.33952 20.8938 4.23827C20.7513 5.45551 20.7919 7.07903 19.7935 7.54267C16.3698 7.6876 12.9461 7.54267 9.5224 7.60066C9.19639 10.6732 8.89072 13.7169 8.56455 16.7606C8.56455 16.8766 8.58504 17.1377 8.58504 17.2533C11.0916 17.2244 13.5982 17.2533 16.1047 17.2244C16.7977 17.1664 17.5312 18.0074 17.4701 19.0507C17.409 20.1233 17.2459 21.1668 17.1441 22.2394C17.0624 22.9639 16.6549 23.6307 16.1251 23.7756C13.3331 23.8626 10.5004 23.6887 7.70873 23.8626C7.26025 28.2397 6.73038 32.6166 6.26162 36.994C6.20065 37.8637 5.7114 38.6173 5.10006 38.646C3.93859 38.6752 2.77685 38.6752 1.61538 38.646C0.861382 38.6752 0.249963 37.4863 0.453669 36.4719C1.69714 25.0513 2.98094 13.6593 4.26474 2.23805ZM24.9695 0.672528C26.0293 0.556752 27.1093 0.643689 28.1691 0.614851C28.8213 0.556857 29.4734 1.28142 29.5344 2.23805C29.5344 2.99156 29.3917 3.74537 29.3307 4.49898C28.4747 12.2678 27.5985 20.0366 26.7424 27.8052C26.6202 29.0516 26.396 30.385 26.661 31.6605C26.9667 32.9359 28.3319 32.3851 28.658 33.7184C28.8618 34.791 28.6375 35.9215 28.5764 37.0231C28.5154 38.4725 27.3538 38.7912 26.5591 39.1105C24.827 39.5741 22.7278 39.2263 21.4847 37.1969C20.588 35.7188 20.5268 33.6315 20.7104 31.7765C21.7904 21.9208 22.8704 12.0651 23.971 2.18006C24.0322 1.45529 24.4397 0.788623 24.9695 0.672528ZM65.4215 2.23805C65.4824 1.36835 66.0328 0.614851 66.6442 0.614851H69.7418C70.5161 0.585695 71.148 1.77431 70.9645 2.81768C70.2513 9.25302 69.5177 15.6884 68.8045 22.1233C69.8845 21.8915 71.1073 21.6017 71.8613 20.3553C73.1246 18.3259 74.1642 15.9783 74.9385 13.5144C75.2033 12.5576 75.346 11.1663 76.2223 10.9923C77.384 10.9343 78.5658 10.9633 79.7274 10.9923C80.5223 10.9633 81.1132 12.2387 80.8483 13.2822C80.5426 14.8189 80.0332 16.239 79.5034 17.6015C78.3213 20.3264 77.0173 23.0221 75.3053 25.1672C76.0593 28.3848 77.0172 31.5155 77.8527 34.6753C78.0971 35.7187 78.6883 36.9361 78.138 37.9509C77.5061 39.1683 76.3242 38.5593 75.4479 38.7042C74.5308 38.5593 73.2063 39.2261 72.6967 37.7478C71.7389 34.588 70.9443 31.3417 69.9659 28.1819C69.3953 28.2107 68.8044 28.2399 68.2337 28.153C68.1932 28.269 68.1115 28.5006 68.0707 28.6168C67.7649 31.5155 67.439 34.4144 67.1128 37.3129C66.9905 38.0086 66.6033 38.6175 66.0736 38.6755C64.9936 38.7335 63.8931 38.7042 62.7926 38.7042C62.3238 38.7042 61.896 38.2695 61.6921 37.6898C61.4883 37.1098 61.6105 36.4434 61.6719 35.8057C62.9352 24.6164 64.1783 13.4271 65.4215 2.23805ZM122.054 5.39773C122.197 4.58581 122.747 4.03524 123.318 4.06408C124.133 4.09323 124.968 4.03524 125.804 4.09323C126.476 4.12207 127.006 5.07871 126.925 6.0063C126.802 7.65866 126.517 9.31102 126.436 10.9631C127.23 10.9631 128.045 10.9342 128.84 10.9631C129.554 10.9631 130.145 12.0067 130.022 12.9921C129.92 13.8911 129.778 14.7608 129.676 15.659C129.574 16.4129 129.126 17.0216 128.616 17.1375C127.638 17.2244 126.68 17.0795 125.722 17.2244C125.315 21.1085 124.866 24.9928 124.438 28.8775C124.377 29.7761 124.337 30.7905 124.703 31.5733C125.254 32.5299 126.211 32.1818 126.986 32.298C127.597 32.5588 127.984 33.5156 127.882 34.3854C127.78 35.3707 127.76 36.3564 127.597 37.3128C127.353 38.3852 126.476 38.5883 125.804 38.8491C123.949 39.545 121.81 39.545 120.159 38.0085C118.631 36.53 118.386 33.6603 118.549 31.2253C118.977 26.5293 119.65 21.8624 120.016 17.1374C119.446 17.1662 118.753 17.2823 118.325 16.5575C117.836 15.833 118.08 14.7604 118.162 13.8615C118.284 12.905 118.264 11.6586 118.997 11.1367C119.588 10.8177 120.261 11.0499 120.893 10.9338C121.28 9.07894 121.647 7.22386 122.054 5.39773ZM110.54 14.7895C111.824 12.9633 113.373 11.456 115.146 10.7025C115.92 10.2096 116.919 11.1373 116.898 12.3547C116.756 13.9491 116.491 15.5142 116.307 17.0795C116.226 17.8623 115.757 18.529 115.207 18.616C113.21 19.1085 111.477 20.8186 110.092 22.8479C109.745 23.4569 109.236 24.0366 109.175 24.8771C108.747 28.9353 108.298 32.9937 107.85 37.0519C107.789 37.9214 107.259 38.7623 106.627 38.7043H103.53C102.817 38.7623 102.185 37.7479 102.266 36.7332C103.163 28.7035 104.06 20.7031 104.936 12.6733C104.977 11.8618 105.384 11.0792 105.975 10.9921C106.729 10.9341 107.483 10.9631 108.258 10.9631C108.869 10.9631 109.44 11.7457 109.44 12.6445C109.44 13.8909 109.358 15.1662 109.338 16.4417C109.827 16.0072 110.133 15.3113 110.54 14.7895ZM34.3642 11.1081C35.4646 10.7894 36.6058 11.0503 37.7063 10.9632C38.3381 10.8474 39.0106 11.427 39.1124 12.3258C39.1941 13.1373 39.0308 13.92 38.9697 14.7028C38.1343 22.1528 37.2986 29.6024 36.4834 37.0522C36.4223 37.8932 35.9335 38.7336 35.3015 38.7044C34.2012 38.7044 33.1007 38.7336 31.9799 38.6757C31.287 38.5595 30.7775 37.4293 30.961 36.4725C31.8373 28.733 32.6729 21.0221 33.5491 13.2823C33.5899 12.4416 33.7529 11.456 34.3642 11.1081ZM100.31 11.4852C97.2734 10.6733 94.176 10.0936 91.0986 10.5284C88.3475 11.0213 85.576 12.7896 83.8847 16.0072C81.5411 20.2393 80.7463 25.921 81.276 31.1969C81.5615 33.7186 82.3357 36.2696 83.7828 37.8348C85.1277 39.3133 86.9414 39.516 88.5718 39.1392C90.854 38.5014 92.79 36.4148 94.3797 34.0955C94.4611 35.081 94.2981 36.0667 94.3389 37.0233C94.3797 37.9217 94.9503 38.7623 95.582 38.7043H97.6608C98.2721 38.7043 98.7816 37.8931 98.8224 37.0521C99.6986 29.1965 100.575 21.3697 101.431 13.5432C101.553 12.5575 101.003 11.601 100.31 11.4852ZM94.5836 25.1382C93.7684 27.3123 92.6271 29.2835 91.3432 30.9645C90.6097 31.8342 89.6721 32.7329 88.6738 32.4432C87.6955 32.1533 87.2268 30.704 87.0027 29.4574C86.4932 26.2109 86.9619 22.6742 88.2457 19.8626C88.8163 18.5579 89.7333 17.5725 90.7931 17.1665C92.2806 16.6447 93.85 16.9056 95.2969 17.4853L95.3783 17.6015C95.195 20.1233 94.8485 22.6163 94.5836 25.1382ZM60.3065 20.7902C60.286 17.8913 59.7358 14.8477 58.3094 12.6735C57.3312 11.1373 55.8639 10.3546 54.4374 10.3833C52.0734 10.2677 49.8521 11.92 48.12 14.1228C47.7327 14.5578 47.4678 15.1956 47.04 15.5433C47.04 14.5865 47.101 13.63 47.0805 12.6446C47.101 11.7457 46.51 10.9632 45.8986 10.9632H43.8199C43.1679 10.9632 42.638 11.775 42.5972 12.6734C41.3134 24.2685 40.0093 35.8636 38.7253 47.4587C38.542 48.5311 39.1942 49.6328 39.9686 49.6037C41.1097 49.5748 42.2714 49.7197 43.3921 49.4875C44.2889 49.1397 44.2684 47.6613 44.4111 46.5889C44.7371 44.0379 44.9614 41.487 45.1651 38.9071C49.1798 40.0085 53.8465 39.2551 56.8421 34.9358C59.2875 31.1387 60.4286 25.8919 60.3065 20.7902ZM54.6004 23.7178C54.4783 26.3846 53.8056 29.0806 52.5015 31.0225C50.8101 33.3128 48.2422 32.9937 46.1636 32.2113C46.1231 32.1242 46.0617 31.9502 46.0414 31.8635C46.3674 29.3415 46.5305 26.7905 46.9381 24.2976C48.0793 21.6309 49.4649 18.9348 51.4417 17.4566C52.1753 16.9639 53.1739 17.0798 53.7038 18.0364C54.6004 19.6307 54.682 21.7757 54.6004 23.7178Z" fill="#107BD4" stroke="#107BD4" stroke-width="0.101"/>
</svg>
