<svg width="51" height="51" viewBox="0 0 51 51" fill="none" xmlns="http://www.w3.org/2000/svg">
<g clip-path="url(#clip0_1017_678)">
<path fill-rule="evenodd" clip-rule="evenodd" d="M0.705078 0.0722656H50.7051V50.0723H0.705078V0.0722656Z" fill="white"/>
<path fill-rule="evenodd" clip-rule="evenodd" d="M4.29443 46.4839H47.1162V3.66211H4.29443V46.4839Z" fill="#7793C0"/>
<path fill-rule="evenodd" clip-rule="evenodd" d="M41.7469 13.439H40.2629V7.58959H41.6598V8.24431C41.8341 7.85132 42.2706 7.50218 42.8382 7.4586C43.7987 7.41502 44.4534 7.98258 44.4534 9.20459V13.4387H42.9259V9.03027C42.9259 8.5063 42.9259 8.06999 42.5762 7.98258C42.4455 7.939 42.2271 7.98258 42.0522 8.11331C41.8338 8.33172 41.7467 8.59345 41.7467 9.03027L41.7469 13.439ZM16.5166 7.98258C16.1674 7.67701 15.7309 7.4586 15.2071 7.4586C14.6834 7.4586 14.2904 7.67701 13.8977 7.98258C13.2866 8.5063 12.8936 9.46658 12.8936 10.5143C12.8936 11.6056 13.2866 12.522 13.8977 13.046C14.2904 13.3515 14.6834 13.5697 15.2071 13.5697C15.7309 13.5697 16.1674 13.3515 16.5166 13.046C17.1715 12.522 17.5207 11.6053 17.5207 10.5143C17.5204 9.46658 17.1713 8.5063 16.5166 7.98258ZM15.949 10.5143C15.949 11.6056 15.949 12.4787 15.7744 12.915C15.6434 13.1331 15.5125 13.2641 15.2069 13.2641C14.9452 13.2641 14.7703 13.1331 14.6832 12.915C14.4648 12.4784 14.4648 11.6053 14.4648 10.5143C14.4648 9.46658 14.4648 8.54987 14.6832 8.11331C14.7703 7.89516 14.9452 7.76417 15.2069 7.76417C15.5125 7.76417 15.6434 7.8949 15.7744 8.11331C15.9929 8.54987 15.949 9.46658 15.949 10.5143ZM31.7511 15.6651V17.2365H31.4455C31.2707 16.582 31.0087 16.0145 30.3102 15.9707C29.8739 15.9273 29.4809 16.1891 29.4373 16.5818C29.3937 16.9745 29.525 17.3237 30.3102 17.7602C31.3143 18.3278 32.1 18.5898 32.1 19.7682C32.1 21.0341 31.0087 21.6452 30.0923 21.6452H28.346V19.4624H28.6516C28.87 20.5972 29.2192 21.2958 30.049 21.3394C30.5724 21.3394 30.9654 21.0338 30.9654 20.4662C30.9654 19.8987 30.6157 19.5495 29.7865 19.0694C28.87 18.5018 28.3025 18.1527 28.3025 17.367C28.3025 16.3193 29.0446 15.6646 30.223 15.6646C30.6157 15.6651 31.7511 15.6651 31.7511 15.6651ZM33.6717 13.439V9.20459C33.6717 7.98258 33.0167 7.41502 32.0564 7.4586C31.4014 7.50218 31.0087 7.939 30.8339 8.28789C30.6155 7.67701 30.1359 7.41502 29.437 7.4586C28.8695 7.50218 28.4334 7.85158 28.2586 8.24431V7.58959H26.9054V13.439H28.3894V9.03027C28.3894 8.59345 28.4334 8.33172 28.6949 8.11331C28.8698 7.98258 29.0446 7.939 29.1753 7.98258C29.525 8.06973 29.525 8.5063 29.525 9.03027V13.439H31.009V8.9867C31.009 8.59345 31.0961 8.33172 31.3146 8.11331C31.4894 7.98258 31.6637 7.939 31.795 7.98258C32.1441 8.06973 32.1877 8.5063 32.1877 9.03027V13.439H33.6717ZM18.5245 6.36758H20.0524V13.439H18.5245V6.36758ZM25.4652 13.439V6.36758H23.9374V8.02616C23.8066 7.72059 23.5008 7.50244 23.0645 7.50244C21.9732 7.50244 21.1001 8.63729 21.0565 10.3833C21.0129 11.562 21.4057 13.5261 22.9335 13.5261C23.5446 13.5261 23.8938 13.177 24.0248 12.8717V13.4392L25.4652 13.439ZM23.6754 8.06973C23.9809 8.5063 23.9809 9.55373 23.9809 10.383C23.9809 11.2561 24.0245 12.391 23.6754 12.8711C23.5444 13.0457 23.4134 13.1329 23.195 13.1329C22.8897 13.1329 22.7148 12.7837 22.6274 12.2162C22.5838 11.6922 22.5838 11.0375 22.5838 10.3392C22.5838 9.16075 22.671 7.85106 23.2385 7.85106C23.457 7.85158 23.5444 7.939 23.6754 8.06973ZM38.2111 7.76417C38.6043 7.98258 38.8661 8.33172 38.8661 9.11743V13.439H37.4251V12.7842C37.2508 13.2644 36.7707 13.57 36.1154 13.57C35.5915 13.57 34.675 13.3082 34.675 11.955C34.675 10.6891 35.5048 10.4271 36.4213 10.0344C37.2506 9.68525 37.3377 9.64141 37.3377 9.29226V8.33198C37.3377 7.93926 37.1193 7.76443 36.6833 7.76443C36.5084 7.808 36.2029 7.89516 36.2029 8.11357C36.1593 8.37556 36.4648 8.37556 36.5084 8.76855C36.552 9.37968 36.0716 9.59783 35.6356 9.55425C35.33 9.55425 34.9806 9.37968 34.937 8.89954C34.8934 8.11357 35.7663 7.45886 36.9888 7.45886C37.5564 7.4586 37.9055 7.58959 38.2111 7.76417ZM37.3382 9.94672L36.8578 10.2523C36.3779 10.5579 36.2903 10.9506 36.247 11.3871C36.2034 11.7363 36.2034 12.0419 36.247 12.5656C36.2905 13.0457 36.5961 13.1331 36.8578 13.0457C37.1639 12.9147 37.3382 12.3474 37.3382 11.736V9.94672ZM16.604 15.9271C16.997 16.1888 17.2151 16.4944 17.2151 17.2801V21.6454H15.8183V20.9907C15.6434 21.4273 15.1636 21.7326 14.5086 21.7326C13.941 21.7326 13.0682 21.5145 13.0682 20.1612C13.0682 18.8953 13.8977 18.6333 14.7706 18.2406C15.6434 17.8476 15.7309 17.8041 15.7309 17.4985V16.5382C15.7309 16.1017 15.5127 15.9273 15.0761 15.9707C14.9013 15.9707 14.596 16.0581 14.596 16.2762C14.5524 16.5818 14.8577 16.5818 14.9013 16.9745C14.9452 17.5421 14.465 17.7602 14.0287 17.7602C13.7231 17.7166 13.3737 17.5421 13.3302 17.0619C13.2866 16.3198 14.1594 15.6651 15.3817 15.6651C15.949 15.6651 16.2984 15.7525 16.604 15.9271ZM15.7309 18.1096L15.2507 18.4152C14.7706 18.7208 14.6832 19.1135 14.6396 19.5501C14.596 19.8992 14.596 20.2486 14.6396 20.7285C14.6396 21.2525 14.9452 21.3396 15.2071 21.2086C15.5563 21.0776 15.7309 20.5539 15.7309 19.8992V18.1096ZM27.1676 17.4111C27.1676 16.1888 26.5126 15.5777 25.5523 15.6651C25.0722 15.7087 24.6792 15.9271 24.4608 16.2326V14.5305H22.9768V18.5465C22.9768 20.0305 21.9291 21.4273 20.8817 21.3837C20.1395 21.3837 19.965 20.8162 19.8776 20.205C19.7466 19.3319 19.7466 18.328 19.834 17.2368C19.9214 16.5385 20.096 15.9709 20.6199 15.9709C21.0127 15.9709 21.0565 16.2329 20.8817 16.4075C20.7068 16.6259 20.4451 16.844 20.5761 17.3242C20.7068 17.8482 21.5364 17.9353 21.9291 17.5426C22.2347 17.1934 22.1911 16.6259 21.9727 16.2767C21.7107 15.8402 21.2744 15.6656 20.6197 15.6656C19.7901 15.6656 18.2187 16.4075 18.2187 18.7649C18.2187 21.2966 19.8337 21.7329 20.7504 21.7329C21.7981 21.7329 22.7148 20.8164 22.9766 20.074V21.6457H24.4606V17.2362C24.4606 16.7999 24.548 16.538 24.7661 16.3195C24.9407 16.1888 25.1591 16.145 25.2901 16.1888C25.6395 16.276 25.6395 16.7125 25.6395 17.2362V21.6452H27.1673L27.1676 17.4111ZM11.8895 6.23633V8.72445H11.5839C11.3219 7.50218 10.7546 6.58547 9.96866 6.5419C9.44494 6.49832 9.13937 6.80363 8.87738 7.24045C8.61565 7.76417 8.48466 8.85544 8.48466 10.1649C8.48466 11.3871 8.52823 12.3038 8.65923 12.9586C8.74639 13.2641 8.9648 13.7445 9.53235 13.7445C9.83792 13.7445 10.0561 13.6571 10.1871 13.4825C10.4052 13.2205 10.4488 12.6968 10.4488 12.3477V11.1692C10.4488 10.7327 10.3181 10.4707 10.0997 10.34C9.92508 10.2525 9.66309 10.2525 9.53209 10.209V9.9034H11.9764V16.1455H11.6708C11.5401 15.6653 11.4527 15.3162 11.2342 14.9232C11.0161 14.5305 10.6231 14.0939 9.9684 14.0939C9.2701 14.0504 8.74613 14.4869 8.74613 15.1414C8.74613 16.0145 9.2701 16.2326 10.2304 16.7566C11.1471 17.2803 12.3258 17.7169 12.3258 19.2447C12.3258 20.729 11.0599 21.6457 9.61951 21.6457H7.30596V18.6333H7.61153C8.00452 20.9031 8.9648 21.296 9.61977 21.296C10.4488 21.296 10.8418 20.7721 10.8418 20.0302C10.7982 19.0699 10.1435 18.7208 9.22653 18.2406C7.91736 17.4985 7.30596 17.1491 7.30596 15.9273C7.34954 14.8794 8.17909 14.2249 9.09553 13.9629C7.17497 13.7448 6.60741 11.9988 6.65125 10.1216C6.65125 8.24457 7.74253 6.23659 9.88124 6.23659L11.8895 6.23633Z" fill="white"/>
</g>
<defs>
<clipPath id="clip0_1017_678">
<rect width="50" height="50" fill="white" transform="translate(0.705078 0.0722656)"/>
</clipPath>
</defs>
</svg>
