<svg width="151" height="50" viewBox="0 0 151 50" fill="none" xmlns="http://www.w3.org/2000/svg">
<g clip-path="url(#clip0_1009_630)">
<path d="M18.678 0.00390625H20.0119C24.6428 0.106716 29.1981 2.00869 32.4699 5.37571C31.2619 6.63512 30.0287 7.84314 28.8458 9.10256C27.0085 7.4062 24.7938 6.09537 22.3777 5.63273C18.8038 4.86166 14.9532 5.55562 11.9582 7.63752C8.68638 9.82222 6.47161 13.5234 5.99342 17.4815C5.4649 21.3883 6.54712 25.5007 9.03873 28.5336C11.4297 31.4893 15.079 33.3399 18.8542 33.4684C22.3777 33.674 26.0522 32.5688 28.6193 30.05C30.6327 28.2765 31.5639 25.5778 31.8659 22.9561C27.6881 22.9561 23.5102 22.9818 19.3324 22.9561V17.6615H36.9246C37.8307 23.3417 36.5219 29.7416 32.2938 33.8026C29.475 36.6812 25.574 38.3776 21.5975 38.7117C17.7468 39.0973 13.7703 38.3519 10.3475 36.4499C6.2451 34.2138 2.97329 30.4355 1.36255 25.989C-0.147515 21.9023 -0.172683 17.2759 1.23671 13.1635C2.52027 9.41098 4.98671 6.09537 8.15786 3.78216C11.2032 1.49465 14.9028 0.235228 18.678 0.00390625Z" fill="#3780FF"/>
<path d="M119.601 1.3418H124.987V38.0448C123.2 38.0448 121.388 38.0705 119.601 38.0191C119.626 25.8105 119.601 13.5761 119.601 1.3418Z" fill="#38B137"/>
<path d="M48.9046 14.0639C52.2268 13.4214 55.8258 14.141 58.5691 16.1715C61.0607 17.9707 62.7972 20.798 63.3258 23.8823C64.0053 27.4549 63.1496 31.3616 60.8845 34.1889C58.4432 37.3503 54.4415 39.0467 50.5405 38.7896C46.9667 38.584 43.4936 36.7592 41.3795 33.7777C38.9885 30.4878 38.4097 25.9641 39.7184 22.1088C41.0271 17.9707 44.7268 14.8093 48.9046 14.0639ZM49.6597 18.9474C48.3006 19.3072 47.0422 20.104 46.1362 21.2349C43.6949 24.2164 43.8459 29.0741 46.5389 31.85C48.0741 33.4435 50.3895 34.1889 52.5288 33.752C54.517 33.3921 56.2536 32.0299 57.21 30.2307C58.8711 27.1722 58.3929 22.957 55.8509 20.5666C54.215 19.0245 51.8241 18.3819 49.6597 18.9474Z" fill="#FA3913"/>
<path d="M75.5828 14.0639C79.3831 13.3185 83.5358 14.398 86.3797 17.1225C91.0106 21.3634 91.514 29.3054 87.5626 34.1889C85.1717 37.2731 81.2958 38.9695 77.4703 38.7896C73.821 38.6868 70.222 36.8362 68.0576 33.7776C65.6163 30.4106 65.0878 25.7842 66.472 21.8517C67.8562 17.8421 71.4804 14.7835 75.5828 14.0639ZM76.3378 18.9473C74.9787 19.3072 73.7203 20.1039 72.8143 21.2091C70.3982 24.1392 70.4989 28.9199 73.0911 31.7214C74.6264 33.3921 77.0173 34.2146 79.2321 33.7519C81.1952 33.3664 82.9569 32.0299 83.9133 30.2307C85.5492 27.1464 85.071 22.9312 82.5039 20.5409C80.868 18.9987 78.477 18.3819 76.3378 18.9473Z" fill="#FCBD06"/>
<path d="M98.2086 15.5535C101.103 13.7029 104.954 13.1888 108.074 14.7824C109.056 15.2193 109.861 15.9647 110.641 16.7101C110.667 16.0161 110.641 15.2964 110.667 14.5768C112.353 14.6025 114.039 14.5768 115.751 14.6025V37.272C115.725 40.6904 114.87 44.3144 112.454 46.8076C109.811 49.5577 105.759 50.4059 102.11 49.8405C98.2086 49.2493 94.8109 46.3449 93.3009 42.6695C94.8109 41.9241 96.3965 41.333 97.9569 40.639C98.8378 42.7466 100.625 44.5458 102.865 44.957C105.105 45.3682 107.697 44.8028 109.157 42.9008C110.717 40.9474 110.717 38.2744 110.641 35.8841C109.484 37.0407 108.15 38.0688 106.539 38.4543C103.041 39.4567 99.1901 38.223 96.4972 35.8069C93.7791 33.3909 92.1683 29.6641 92.3193 25.9629C92.3948 21.7734 94.7103 17.7382 98.2086 15.5535ZM103.418 18.8434C101.883 19.1004 100.449 19.9743 99.467 21.1823C97.1012 24.061 97.1012 28.6617 99.4921 31.4889C100.851 33.1596 103.041 34.0849 105.155 33.8536C107.143 33.6479 108.98 32.3628 109.962 30.5894C111.623 27.5822 111.346 23.4955 109.106 20.8739C107.722 19.2546 105.507 18.4578 103.418 18.8434Z" fill="#3780FF"/>
<path d="M131.455 16.8647C134.475 13.986 139.131 13.0093 143.007 14.5258C146.682 15.9394 149.022 19.512 150.205 23.1875C144.744 25.5007 139.307 27.7882 133.846 30.1014C134.601 31.5665 135.759 32.903 137.319 33.4427C139.509 34.2395 142.126 33.9568 143.964 32.4661C144.693 31.9006 145.272 31.1552 145.826 30.4356C147.21 31.3866 148.594 32.3118 149.979 33.2628C148.016 36.27 144.719 38.3776 141.17 38.7117C137.244 39.2001 133.066 37.6579 130.524 34.5222C126.346 29.5874 126.749 21.3112 131.455 16.8647ZM134.148 21.6196C133.292 22.8791 132.94 24.4212 132.965 25.9376C136.615 24.3955 140.264 22.8534 143.913 21.2855C143.309 19.8462 141.849 18.9723 140.365 18.741C137.974 18.304 135.482 19.6149 134.148 21.6196Z" fill="#FA3913"/>
</g>
<defs>
<clipPath id="clip0_1009_630">
<rect width="150" height="50" fill="white" transform="translate(0.205078)"/>
</clipPath>
</defs>
</svg>
