<svg width="221" height="100" viewBox="0 0 221 100" fill="none" xmlns="http://www.w3.org/2000/svg">
<g clip-path="url(#clip0_1017_839)">
<path fill-rule="evenodd" clip-rule="evenodd" d="M149.603 50.8009C151.503 56.2721 153.359 61.6147 155.275 67.1323C154.967 67.5664 154.698 68.1051 154.359 68.3917C153.121 69.4399 151.853 70.3788 150.61 71.4115C150.059 71.8704 149.811 71.5203 149.548 70.6503C147.971 65.4338 146.346 60.2637 144.78 55.038C144.471 54.006 144.158 53.8336 143.508 53.9295C142.199 54.1245 140.875 53.9871 139.544 53.9871C139.544 56.9369 139.532 59.6404 139.547 62.3429C139.561 64.565 139.581 68.0027 139.647 70.221C139.681 71.3166 139.392 71.6727 138.844 71.6749C137.263 71.6792 135.682 71.6727 134.1 71.6846C133.46 71.6889 133.214 71.2472 133.232 70.0362C133.343 62.7669 133.477 54.2807 133.471 47.0092C133.463 37.9191 133.34 28.8291 133.236 19.7395C133.221 18.3966 133.314 17.7298 134.237 17.5116C138.095 16.598 141.952 15.9478 145.838 16.7305C149.381 17.4448 152.511 19.6878 154.032 25.798C155.781 32.8281 155.337 44.3002 150.234 50.0634C150.044 50.2794 149.857 50.5041 149.603 50.8009ZM139.504 45.8467C140.995 45.6097 142.486 45.6921 143.881 45.0904C147.928 43.3451 149.763 35.104 147.617 28.3066C147.211 27.0164 146.378 25.826 145.588 25.2857C143.626 23.9449 141.595 24.5563 139.504 25.3455C139.504 32.0907 139.504 38.7341 139.504 45.8467Z" fill="#00B760"/>
<path fill-rule="evenodd" clip-rule="evenodd" d="M9.41041 39.8991C13.5739 39.8991 17.5935 39.8991 21.7063 39.8991C21.7063 37.1826 21.7257 34.5765 21.702 31.9709C21.66 27.3729 21.607 22.1677 21.522 17.5712C21.5051 16.6598 21.6674 16.2041 22.1673 16.1987C23.8643 16.1788 25.5609 16.1761 27.2579 16.1938C27.7882 16.1998 27.9584 16.6646 27.948 17.6472C27.8354 27.9562 27.7048 38.8724 27.6855 49.182C27.6735 55.5965 27.8437 68.0818 27.9314 74.4968C27.9363 74.8448 27.932 75.1949 27.932 75.8111C27.0613 75.9237 26.2154 76.1042 25.3689 76.1246C24.3624 76.1499 23.3552 76.0298 22.3476 75.9867C21.7686 75.9625 21.5002 75.6447 21.5226 74.4467C21.6318 68.587 21.679 56.6544 21.7462 50.7926C21.7523 50.2507 21.7468 49.7088 21.7468 49.0479C17.6318 49.0479 13.6134 49.0479 9.49966 49.0479C9.49966 51.8592 9.47482 54.6166 9.5058 57.3719C9.54659 61.0096 9.60639 65.2532 9.70975 68.886C9.74472 70.1066 9.46746 70.5322 8.83014 70.5279C7.2767 70.5187 5.72357 70.5203 4.17013 70.5268C3.5414 70.5305 3.27119 70.1292 3.29052 68.8978C3.40798 61.4211 3.55121 53.3351 3.54661 45.8579C3.5414 36.9132 3.40859 21.8989 3.30432 12.9554C3.27978 10.8546 3.26966 10.7382 4.50382 10.6946C5.85484 10.6466 7.20738 10.6488 8.55901 10.701C9.71619 10.7457 9.71067 10.8233 9.68276 12.7744C9.5837 19.692 9.50212 32.6815 9.41041 39.8991Z" fill="#00B760"/>
<path fill-rule="evenodd" clip-rule="evenodd" d="M208.386 71.174C206.458 71.6701 204.57 71.648 202.751 71.2144C202.751 68.6304 202.739 64.9949 202.754 62.5747C202.786 57.1524 202.851 51.7312 202.863 46.3106C202.878 40.4693 202.866 34.6279 202.829 28.7866C202.804 24.8349 202.724 20.8843 202.648 16.9343C202.635 16.2722 202.71 15.9011 203.122 15.9043C204.753 15.9199 206.386 15.9242 208.019 15.9453C208.131 15.9469 208.243 16.0562 208.384 16.1295C208.067 34.0532 208.065 53.1695 208.386 71.174Z" fill="#00B760"/>
<path fill-rule="evenodd" clip-rule="evenodd" d="M220.314 36.7088C218.337 41.4087 216.419 45.9966 214.476 50.5526C214.205 51.1893 214.183 51.595 214.472 52.2376C216.429 56.5873 218.36 60.971 220.3 65.3445C220.402 65.5756 220.497 65.8153 220.616 66.1013C219.193 68.3406 217.672 70.2173 215.914 71.6135C215.293 70.0929 214.677 68.625 214.085 67.1275C212.259 62.4987 210.442 57.8602 208.623 53.2212C208.205 52.1541 208.214 51.7523 208.618 50.7105C210.996 44.5686 213.374 38.4245 215.751 32.2826C215.798 32.1619 215.853 32.0488 215.928 31.877C217.503 33.1563 218.977 34.6619 220.314 36.7088Z" fill="#00B760"/>
<path fill-rule="evenodd" clip-rule="evenodd" d="M78.7622 71.174C76.8327 71.6701 74.9453 71.648 73.1272 71.2144C73.1272 68.6304 73.1149 64.9949 73.1296 62.5747C73.1615 57.1524 73.2268 51.7312 73.2394 46.3106C73.2538 40.4693 73.2416 34.6279 73.2048 28.7866C73.1793 24.8349 73.0999 20.8843 73.0232 16.9343C73.0109 16.2722 73.0861 15.9011 73.4973 15.9043C75.1296 15.9199 76.7616 15.9242 78.3941 15.9453C78.5067 15.9469 78.6186 16.0562 78.7597 16.1295C78.4429 34.0532 78.4404 53.1695 78.7622 71.174Z" fill="#00B760"/>
<path fill-rule="evenodd" clip-rule="evenodd" d="M90.6896 36.7088C88.7116 41.4087 86.7938 45.9966 84.8512 50.5526C84.5804 51.1893 84.5574 51.595 84.8475 52.2376C86.804 56.5873 88.7356 60.971 90.6748 65.3445C90.777 65.5756 90.8724 65.8153 90.9914 66.1013C89.5689 68.3406 88.047 70.2173 86.289 71.6135C85.668 70.0929 85.0518 68.625 84.4605 67.1275C82.6344 62.4987 80.8166 57.8602 78.9991 53.2212C78.581 52.1541 78.5896 51.7523 78.9929 50.7105C81.3714 44.5686 83.7489 38.4245 86.1271 32.2826C86.1737 32.1619 86.2286 32.0488 86.304 31.877C87.878 33.1563 89.3523 34.6619 90.6896 36.7088Z" fill="#00B760"/>
<path fill-rule="evenodd" clip-rule="evenodd" d="M44.1615 45.7722C44.1615 44.9119 44.2345 43.792 44.1477 42.712C43.8913 39.5209 42.3959 37.7595 40.3443 38.0444C38.0754 38.3595 35.9502 39.4477 33.8509 41.7876C33.3114 39.6922 32.7829 37.7557 32.3318 35.7642C32.2603 35.4486 32.4667 34.6761 32.6639 34.4752C36.3333 30.7293 40.256 28.9463 44.4829 30.4389C47.9821 31.6741 49.8085 35.8644 49.8407 42.3839C49.8622 46.7795 49.7971 51.1767 49.7873 55.5733C49.7766 60.4649 49.7849 65.9642 49.7849 71.1177C47.9591 71.6445 45.933 71.6305 43.8708 71.0735C43.9189 69.464 43.9619 67.4246 44.0048 65.9917C43.9303 65.9066 43.8561 65.822 43.7818 65.7358C43.6429 66.0908 43.5257 66.4792 43.3632 66.7959C41.2534 70.9114 38.6213 72.3593 35.5659 71.2545C33.0694 70.3522 31.8825 67.2021 31.4402 63.0786C30.4401 53.7601 33.9337 46.1261 39.3445 45.7856C40.9206 45.6887 42.5007 45.7722 44.1615 45.7722ZM41.3988 52.3838C40.2588 52.3348 39.2439 52.9139 38.3591 54.1722C37.0335 56.0559 36.6793 60.1789 37.6491 62.3982C38.471 64.2787 40.3729 64.4225 41.7527 62.2959C42.6523 60.9093 43.4285 59.1043 43.9806 57.2313C44.7191 54.7281 44.2262 53.3119 42.675 52.6898C42.2581 52.5217 41.8248 52.4824 41.3988 52.3838Z" fill="#00B760"/>
<path fill-rule="evenodd" clip-rule="evenodd" d="M175.926 71.2009C174.092 71.2009 172.081 71.2009 170.008 71.2009C170.06 69.5304 170.105 67.4754 170.164 65.5664C169.836 66.1858 169.66 66.5166 169.485 66.8506C167.357 70.924 164.731 72.3671 161.672 71.2483C159.432 70.4295 157.962 67.3445 157.552 62.8741C156.693 53.4899 160.113 46.1204 165.519 45.7853C167.092 45.6878 168.669 45.7708 170.284 45.7708C170.284 44.8922 170.378 43.6684 170.265 42.5059C169.965 39.4069 168.471 37.7565 166.451 38.0511C164.209 38.3786 162.107 39.4366 159.996 41.7895C159.459 39.7048 158.927 37.7301 158.46 35.7084C158.394 35.4203 158.581 34.7071 158.76 34.5255C162.68 30.5555 166.841 28.6831 171.322 30.7618C174.336 32.1602 175.931 36.2875 175.982 42.2942C176.006 44.9202 175.931 47.5473 175.928 50.1739C175.919 56.8819 175.926 64.1976 175.926 71.2009ZM170.318 55.3947C170.351 53.6332 170.29 53.1985 169.344 52.9663C168.206 52.6857 166.992 52.5144 165.882 52.9103C164.508 53.4016 163.621 55.2051 163.315 57.7039C162.819 61.7434 164.291 64.5364 166.442 63.6616C168.288 62.9113 170.258 58.7102 170.318 55.3947Z" fill="#00B760"/>
<path fill-rule="evenodd" clip-rule="evenodd" d="M111.685 53.6482C107.282 54.0743 103.007 54.4874 98.7457 54.8984C98.1418 59.9064 100.664 64.3224 103.723 63.8489C106.125 63.4783 108.204 61.8381 110.252 59.0009C110.88 60.7317 111.494 62.3418 112.039 64.0186C112.122 64.2734 111.963 64.9915 111.794 65.2463C107.776 71.3203 103.189 73.113 98.1375 70.3432C95.5363 68.9168 93.9173 65.3691 93.1824 60.9067C92.0182 53.8362 92.0452 46.7106 93.7799 39.8738C95.3824 33.559 98.2798 30.3453 102.172 29.9952C103.393 29.8864 104.667 29.9585 105.849 30.4493C108.205 31.4286 109.832 34.1348 110.787 38.031C112.01 43.0218 111.916 48.2469 111.685 53.6482ZM106.38 46.6271C106.087 44.348 105.982 42.147 105.52 40.2078C104.58 36.2588 102.028 35.3953 100.361 38.3198C98.9791 40.7443 98.6043 43.8557 98.4954 47.3549C101.101 47.1141 103.615 46.8819 106.38 46.6271Z" fill="#00B760"/>
<path fill-rule="evenodd" clip-rule="evenodd" d="M185.789 71.4901C183.793 71.4901 181.781 71.4901 179.839 71.4901C179.839 58.1736 179.839 45.1087 179.839 31.7686C181.755 31.7686 183.767 31.7686 185.861 31.7686C185.801 33.8134 185.746 35.6971 185.683 37.8738C186.317 36.6839 186.803 35.6465 187.362 34.7463C189.375 31.496 191.797 30.3384 194.458 30.967C196.921 31.5493 198.575 34.8724 198.853 39.4635C198.932 40.766 198.965 42.0809 198.978 43.392C199.058 52.2326 199.11 61.0738 199.22 69.9129C199.236 71.2105 198.998 71.6269 198.315 71.6134C196.878 71.586 195.439 71.586 194.003 71.6129C193.306 71.6242 193.097 71.1329 193.113 69.8768C193.213 61.4412 193.273 53.0035 193.32 44.5668C193.326 43.4685 193.253 42.3367 193.094 41.2782C192.821 39.4748 191.863 38.5553 190.81 38.9129C188.181 39.8082 185.581 45.3123 185.608 50.0284C185.649 57.0467 185.724 64.0613 185.789 71.4901Z" fill="#00B760"/>
<path fill-rule="evenodd" clip-rule="evenodd" d="M68.3198 58.9322C69.0636 60.4485 69.8582 62.0683 70.6296 63.6423C67.6212 70.45 62.8741 73.18 58.5327 70.7323C55.7641 69.1718 54.1414 65.554 53.3841 60.8886C52.2947 54.1709 52.376 47.3885 53.8577 40.8269C55.4185 33.9153 58.4422 30.4646 62.61 29.9857C64.8452 29.7287 67.0145 30.2308 69.097 31.8042C69.7644 32.3084 69.9033 32.9564 69.5828 33.9961C69.0397 35.7537 68.479 37.4963 67.9573 39.1458C66.9434 38.3464 66.1211 37.484 65.2311 37.0379C63.2804 36.0613 61.5862 37.2426 60.4088 40.1606C59.0078 43.6334 58.7309 47.639 58.7655 51.7108C58.7839 53.8073 58.9394 55.9625 59.2639 57.9755C60.126 63.3288 62.6839 65.1554 65.4553 62.4535C66.4008 61.5313 67.2406 60.274 68.3198 58.9322Z" fill="#00B760"/>
<path fill-rule="evenodd" clip-rule="evenodd" d="M115.213 31.5765C117.153 31.5765 119.167 31.5765 121.253 31.5765C121.193 33.9181 121.138 36.0178 121.069 38.6826C123.516 32.5892 126.31 28.9294 130.782 31.682C130.111 34.474 129.495 37.0348 128.859 39.6797C126.419 37.8724 124.771 39.838 123.256 42.4872C122.93 43.0555 122.642 43.696 122.364 44.3386C121.42 46.5149 120.866 48.8193 120.942 51.7206C121.114 58.1227 121.104 64.5393 121.172 71.166C119.185 71.7936 117.158 71.7101 115.212 71.228C115.213 57.9616 115.213 44.8929 115.213 31.5765Z" fill="#00B760"/>
<path d="M6.52939 0.892578C5.92335 0.892578 0.194495 10.5014 0.640437 11.2846C1.08669 12.0684 11.8764 12.0678 12.3217 11.2846C12.7674 10.5019 7.13512 0.892578 6.52939 0.892578Z" fill="#00B760"/>
<path d="M24.8027 85.8932C24.1963 85.8932 18.4672 76.2844 18.9134 75.5017C19.36 74.7179 30.1494 74.7185 30.595 75.5017C31.041 76.2838 25.4084 85.8932 24.8027 85.8932Z" fill="#00B760"/>
</g>
<defs>
<clipPath id="clip0_1017_839">
<rect width="220" height="100" fill="white" transform="translate(0.205078)"/>
</clipPath>
</defs>
</svg>
