<svg width="101" height="100" viewBox="0 0 101 100" fill="none" xmlns="http://www.w3.org/2000/svg">
<g clip-path="url(#clip0_1009_664)">
<path d="M100.707 50C100.707 22.3848 78.3218 0 50.7065 0C49.954 0 49.2035 0.0190381 48.459 0.0531062L38.2316 28.1633H47.1394C52.439 28.1633 55.2947 32.2435 53.4811 37.2265L40.8659 71.8958L30.2727 71.8938L43.8098 34.7345H35.8468L22.3087 71.8938H11.7106L27.6284 28.1633H27.6304L37.2055 1.84669C16.1514 7.73547 0.706543 27.0641 0.706543 50C0.706543 73.6172 17.0833 93.4078 39.0983 98.6423L48.3769 73.1433H48.3849L64.7536 28.1633H84.2627C89.5683 28.1633 92.422 32.2435 90.6083 37.2265L79.5242 67.6774C78.6805 69.997 75.9711 71.8938 73.5021 71.8938H59.44L49.2216 99.977C49.7136 99.991 50.2106 100 50.7065 100C78.3218 100 100.707 77.6132 100.707 50Z" fill="#0096D6"/>
<path d="M80.9613 34.707H73.0004L61.8511 65.2982H69.812L80.9613 34.707Z" fill="#0096D6"/>
</g>
<defs>
<clipPath id="clip0_1009_664">
<rect width="100" height="100" fill="white" transform="translate(0.706543)"/>
</clipPath>
</defs>
</svg>
