<svg width="101" height="50" viewBox="0 0 101 50" fill="none" xmlns="http://www.w3.org/2000/svg">
<g clip-path="url(#clip0_1009_646)">
<path d="M0.205078 0V3.42088H19.6699V0H0.205078ZM22.4277 0V3.42088H50.166C50.166 3.42088 47.3327 0 43.5801 0H22.4277ZM55.6074 0V3.42088H72.3886L71.3926 0H55.6074ZM84.4199 0L83.4238 3.42088H100.053V0H84.4199ZM0.205078 6.65275V10.0736H19.6699V6.65275H0.205078ZM22.4277 6.65763V10.0737H53.3847C53.3847 10.0737 53.0232 7.44088 52.3925 6.65763H22.4277ZM55.6074 6.65763V10.0737H74.2285L73.3066 6.65763H55.6074ZM82.4277 6.65763L81.5058 10.0737H100.053V6.65763H82.4277ZM5.79878 13.3055V16.7313H14.2285V13.3055H5.79878ZM28.0215 13.3055V16.7313H36.4512V13.3055H28.0215ZM44.6504 13.3055V16.7313H53.0801C53.0801 16.7313 53.6153 14.9221 53.6153 13.3055H44.6504ZM61.2012 13.3055V16.7313H76.1465L75.1504 13.3055H61.2012ZM80.5918 13.3055L79.5918 16.7313H94.6113V13.3055H80.5918ZM5.79878 19.9632V23.3841H14.2285V19.9632H5.79878ZM28.0215 19.9632V23.3841H49.5527C49.5527 23.3841 51.3539 21.6289 51.9277 19.9632H28.0215ZM61.2012 19.9632V23.3841H69.6309V21.4799L70.1661 23.3841H85.6075L86.1817 21.4799V23.3841H94.6114V19.9632H78.7871L77.9473 22.8608L77.1035 19.9632H61.2012ZM5.79878 26.616V30.0369H14.2285V26.616H5.79878ZM28.0215 26.616V30.0369H51.9277C51.3538 28.3767 49.5527 26.616 49.5527 26.616H28.0215ZM61.2012 26.616V30.0369H69.6309V26.616H61.2012ZM71.1621 26.616L72.1816 30.0369H83.7597L84.7285 26.616H71.1621ZM86.1816 26.616V30.0369H94.6113V26.616H86.1816ZM5.79878 33.2687V36.6895H14.2285V33.2687H5.79878ZM28.0215 33.2687V36.6895H36.4512V33.2687H28.0215ZM44.6504 33.2687V36.6895H53.6152C53.6152 35.0751 53.08 33.2687 53.08 33.2687H44.6504ZM61.2012 33.2687V36.6895H69.6309V33.2687H61.2012ZM73.0762 33.2687L74.0645 36.6895H81.8262L82.8223 33.2687H73.0762ZM86.1816 33.2687V36.6895H94.6113V33.2687H86.1816ZM0.357378 39.9215V43.3473H19.8222V39.9215H0.357378ZM22.4277 39.9215V43.3473H52.3925C53.0232 42.5629 53.3847 39.9215 53.3847 39.9215H22.4277ZM55.7598 39.9215V43.3473H69.6309V39.9215H55.7598ZM74.9941 39.9215L76.0097 43.3473H79.9589L80.912 39.9215H74.9941ZM86.1816 39.9215V43.3473H100.205V39.9215H86.1816ZM0.357378 46.5791V50H19.8222V46.5791H0.357378ZM22.4277 46.5791V49.9951H43.5801C47.3327 49.9951 50.166 46.5791 50.166 46.5791H22.4277ZM55.7598 46.5791V50H69.6309V46.5791H55.7598ZM76.9199 46.5791L77.8965 49.9904L78.0645 49.9951L79.0567 46.5791H76.9199ZM86.1816 46.5791V50H100.205V46.5791H86.1816Z" fill="#1F70C1"/>
</g>
<defs>
<clipPath id="clip0_1009_646">
<rect width="100" height="50" fill="white" transform="translate(0.205078)"/>
</clipPath>
</defs>
</svg>
