<svg width="101" height="50" viewBox="0 0 101 50" fill="none" xmlns="http://www.w3.org/2000/svg">
<g clip-path="url(#clip0_1009_643)">
<path d="M47.7065 44.5679C27.9461 45.9498 7.35018 43.7733 4.46542 32.0671C3.0542 26.2963 6.52694 20.177 11.1275 16.3735V14.3424C2.84001 19.8521 -1.65138 26.8236 0.93562 35.0589C4.24017 45.6216 21.912 51.6032 48.893 49.6169C59.5726 48.8323 73.5394 46.2294 83.2559 42.1837V36.4407C74.4374 40.4236 59.8549 43.7137 47.7065 44.5679ZM99.7619 14.2052C95.0748 -3.14146 50.643 -4.24115 22.0015 8.97491V10.4346C50.6102 -0.714616 91.1902 -0.646874 94.8848 15.3326C96.1247 20.6186 92.1965 26.1256 85.1791 29.2965V33.4427C93.6206 31.0956 102.279 23.504 99.7619 14.2052Z" fill="#0E7DC2"/>
<path d="M81.6582 11.6777H76.4772V29.1696C76.4772 31.2196 77.7845 33.0023 81.6582 33.2871V11.6777ZM19.9672 18.0643H14.7767L14.7739 29.4924C14.7739 31.5495 16.0854 33.3303 19.9672 33.6098V18.0643ZM14.7767 12.2098H19.9511V15.9327H14.7767V12.2098ZM50.9954 33.4288C46.8018 33.4288 45.0271 31.2193 45.0271 29.0429V13.8691H50.163V18.0643H54.031V21.2089H50.163V28.8024C50.163 29.6899 50.7189 30.1843 51.9396 30.1843H54.031V33.4289L50.9954 33.4288ZM60.4461 26.9642C60.4461 28.9567 62.0896 30.4209 64.9977 30.4209C67.2764 30.4209 68.3995 29.9415 69.7149 28.9567L72.8884 31.2483C70.8538 32.772 68.722 33.6984 64.9598 33.6984C60.0447 33.6984 55.3355 31.665 55.3355 25.7368C55.3355 20.6687 59.4504 17.8039 64.8458 17.8039C70.3306 17.8039 73.4825 21.1577 73.4825 25.56V26.9646H60.4461M64.6207 21.0238C62.8628 21.0238 61.5121 21.7101 60.9396 22.6358C60.6062 23.1923 60.484 23.6259 60.4459 24.3097H68.3612C68.2612 22.6358 67.2601 21.0238 64.6207 21.0238ZM33.9165 21.2089C35.4225 21.2089 36.0486 21.7733 36.0486 22.6893V33.4516H41.1857V22.6667C41.1857 20.4814 39.6497 18.0684 35.1386 18.0684L24.5271 18.0643V33.4516H29.6662V21.2089H33.9165ZM87.2327 14.8033C86.0906 14.8033 85.1791 14.1051 85.1791 13.2404C85.1791 12.3799 86.0906 11.6777 87.2327 11.6777C88.3692 11.6777 89.3023 12.3799 89.3023 13.2404C89.3023 14.1051 88.369 14.8033 87.2327 14.8033ZM87.2327 11.9383C86.2915 11.9383 85.5344 12.528 85.5344 13.2404C85.5344 13.957 86.2915 14.5363 87.2327 14.5363C88.1738 14.5363 88.9552 13.957 88.9552 13.2404C88.955 12.528 88.1739 11.9383 87.2327 11.9383ZM88.1467 14.1771H87.7615C87.7449 14.177 87.7287 14.1732 87.7148 14.1663C87.701 14.1594 87.69 14.1496 87.6832 14.1381L87.1621 13.4667C87.1458 13.4523 87.1024 13.4359 87.0891 13.4359H86.8505V14.1052C86.8505 14.1382 86.8205 14.1772 86.7638 14.1772H86.4163C86.3645 14.1772 86.3296 14.1382 86.3296 14.1052V12.417C86.3296 12.3183 86.3729 12.2777 86.4869 12.2653C86.6117 12.2551 86.9372 12.2427 87.1193 12.2427C87.7621 12.2427 88.1394 12.3862 88.1394 12.838V12.871C88.1394 13.1501 87.9576 13.3022 87.6755 13.3701L88.218 14.0702C88.2269 14.0859 88.2315 14.1027 88.2315 14.1197C88.2308 14.1462 88.212 14.1771 88.1467 14.1771ZM87.6478 12.838C87.6478 12.6494 87.4931 12.5898 87.162 12.5898H86.8338V13.1253C86.8854 13.1253 87.1188 13.1336 87.162 13.1336C87.4931 13.1336 87.6478 13.0499 87.6478 12.871V12.838Z" fill="#0E7DC2"/>
</g>
<defs>
<clipPath id="clip0_1009_643">
<rect width="100" height="50" fill="white" transform="translate(0.205078)"/>
</clipPath>
</defs>
</svg>
