<svg width="150" height="65" viewBox="0 0 150 65" fill="none" xmlns="http://www.w3.org/2000/svg">
<path fill-rule="evenodd" clip-rule="evenodd" d="M146.924 62.4304C146.441 62.4276 145.978 62.1473 145.636 61.6503C145.295 61.1534 145.102 60.4803 145.1 59.7775C145.121 59.0945 145.322 58.4496 145.662 57.9771C146.002 57.5046 146.454 57.2409 146.924 57.2409C147.394 57.2409 147.846 57.5046 148.186 57.9771C148.526 58.4496 148.727 59.0945 148.748 59.7775C148.748 61.2308 147.932 62.4304 146.924 62.4304ZM146.924 56.6411C145.729 56.6411 144.758 58.0362 144.758 59.7775C144.758 61.5215 145.729 62.885 146.924 62.885C148.123 62.885 149.091 61.5188 149.091 59.7775C149.091 58.0362 148.121 56.6411 146.924 56.6411ZM146.516 59.5424V58.5357H146.915C147.144 58.5357 147.4 58.6356 147.4 59.0191C147.4 59.4475 147.115 59.5424 146.868 59.5424H146.516ZM147.836 59.0301C147.836 58.2741 147.391 57.9943 146.935 57.9943H146.081V61.5298H146.515V60.0527H146.83L147.4 61.5324H147.932L147.275 59.984C147.62 59.8762 147.836 59.5394 147.836 59.0301ZM134.198 14.2031C134.787 14.2204 135.372 14.0666 135.92 13.7508C136.468 13.435 136.966 12.9634 137.387 12.3638C137.808 11.7641 138.142 11.0484 138.371 10.2585C138.599 9.46866 138.717 8.62051 138.717 7.76369C138.717 6.90686 138.599 6.05854 138.371 5.26852C138.143 4.4785 137.809 3.7626 137.389 3.1627C136.968 2.5628 136.469 2.09106 135.922 1.77492C135.374 1.45879 134.789 1.3046 134.2 1.32158C133.041 1.35532 131.937 2.04872 131.125 3.25291C130.314 4.45711 129.859 6.07612 129.859 7.76231C129.859 9.44851 130.314 11.0675 131.125 12.2717C131.937 13.4759 133.039 14.1693 134.198 14.2031ZM122.316 19.765V29.214H130.532V62.4335H137.862V29.214H146.079V19.765H122.316ZM58.3612 14.2031C58.9428 14.2033 59.5188 14.0369 60.0562 13.7133C60.5936 13.3897 61.0819 12.9152 61.4932 12.3171C61.9045 11.719 62.2308 11.009 62.4534 10.2275C62.676 9.44593 62.7906 8.60825 62.7906 7.76231C62.7906 6.91637 62.676 6.0787 62.4534 5.29717C62.2308 4.51564 61.9045 3.8056 61.4932 3.2075C61.0819 2.60941 60.5936 2.13493 60.0562 1.81134C59.5188 1.48776 58.9428 1.32137 58.3612 1.32158C57.202 1.35532 56.0982 2.04872 55.2867 3.25291C54.4751 4.45711 54.0206 6.07612 54.0206 7.76231C54.0206 9.44851 54.4751 11.0675 55.2867 12.2717C56.0982 13.4759 57.202 14.1693 58.3612 14.2031ZM46.4778 29.2114H54.695V62.4335H62.0237V29.214H70.2428V19.765H46.4796L46.4778 29.2114ZM109.848 62.4335H117.18V19.7915H109.85L109.848 62.4335ZM95.016 43.2447C95.016 48.9311 92.8141 54.7918 88.1741 54.7918C83.4705 54.7918 82.6766 48.4872 82.6766 43.4218V19.7915H75.346V46.4421C75.346 55.1511 78.5217 63.678 86.1593 63.678C90.4941 63.678 93.9768 59.8571 95.2594 55.5924H95.381V62.4335H102.345V19.7915H95.0158L95.016 43.2447ZM31.9329 18.547C27.5963 18.547 24.1154 22.3678 22.8328 26.6326H22.7092V19.7915H15.7474V62.4335H23.0762V38.9801C23.0762 33.2938 25.2763 27.4304 29.9181 27.4304C34.6198 27.4304 35.4156 33.7378 35.4156 38.8032V62.4335H42.7443V35.7777C42.7443 27.0738 39.5705 18.547 31.9329 18.547ZM0.908203 62.4335H8.23699V19.7915H0.908203V62.4335Z" fill="#0077C5"/>
</svg>
