<svg width="150" height="110" viewBox="0 0 150 110" fill="none" xmlns="http://www.w3.org/2000/svg">
<path fill-rule="evenodd" clip-rule="evenodd" d="M34.6699 17.4609L31.3955 22.509L42.7227 24.4219L45.9424 19.4145L34.6699 17.4609ZM48.4111 19.8635L45.1895 24.9108L56.5176 26.8644L59.6807 21.8563L48.4111 19.8635ZM85.1758 26.294L82.0098 31.3413L93.3369 33.3364L96.5557 28.2891L85.1758 26.294ZM98.9707 28.738L95.751 33.7839L107.129 35.739L110.295 30.7309L98.9707 28.738Z" fill="#0E88D3"/>
<path fill-rule="evenodd" clip-rule="evenodd" d="M86.3047 61.3418C85.6602 61.3418 85.0703 61.5455 84.5342 61.913C84.1025 62.2382 83.7822 62.7664 83.7822 63.2954C83.7822 63.8258 84.1025 64.2733 84.5342 64.68C85.0703 65.0053 85.6602 65.2505 86.3047 65.2505C87.0566 65.2505 87.7539 65.0053 88.1826 64.68C88.7188 64.2733 88.9346 63.8258 88.9346 63.2954C88.9346 62.7664 88.7188 62.2382 88.1826 61.913C87.7539 61.5455 87.0566 61.3418 86.3047 61.3418ZM81.6338 66.2684V68.5887H99.7227C97.2529 68.9954 95.0547 69.8911 93.4424 71.152C92.585 71.8047 91.7793 72.8219 91.0273 74.125C90.7041 74.694 90.4365 75.2644 90.1152 75.9149C95.375 75.9571 98.6494 76.1186 100.099 76.5253C101.063 76.8105 101.924 77.2173 102.837 77.7062C103.963 78.3567 104.554 78.9694 104.714 79.5798H94.0869L90.4912 82.3076H102.944C106.592 80.2303 108.364 78.5204 108.364 77.1358C108.364 76.5253 107.989 75.9571 107.345 75.4681C105.896 74.3687 103.962 73.6761 101.548 73.3508C100.314 73.1871 98.1133 73.0656 94.999 73.0656C95.4277 72.6189 95.9121 72.0484 96.2881 71.5195C96.9326 70.909 97.5215 70.6238 98.2207 70.6238C99.8301 70.6238 102.568 71.4372 106.216 73.0256L109.866 70.2163C108.473 69.5659 107.023 68.9954 105.68 68.5887H148.299V66.2684H81.6338ZM84.1035 70.4601V82.3076H88.5586V70.4601H84.1035ZM111.96 70.4601V82.3076H116.468V74.2465C117.648 73.879 118.829 73.636 120.065 73.636C121.299 73.636 122.267 73.922 123.017 74.3687C123.93 75.1007 124.305 76.2423 124.145 77.7885L127.955 74.9792C128.062 73.5145 127.579 72.3729 126.614 71.641C125.807 71.0705 124.842 70.7453 123.608 70.7453C122.428 70.7453 121.086 71.0305 119.689 71.641C118.4 72.0877 117.328 72.7404 116.468 73.3908V70.4601H111.96ZM130.262 70.4601V79.2946C130.262 79.2946 130.37 81.0044 131.874 81.8586C132.892 82.3476 134.341 82.3076 134.341 82.3076H146.525V73.636C146.525 72.7804 146.149 72.0477 145.505 71.4372C144.916 70.7868 144.111 70.4601 143.144 70.4601H130.262ZM141.256 73.5746C142.421 73.5583 142.339 73.7924 142.339 75.1822V79.1309H135.309C135.309 79.1309 134.609 79.1731 134.449 79.0094C134.236 78.8056 134.341 78.5619 134.341 77.381V73.5946H140.677C140.898 73.5849 141.09 73.5768 141.256 73.5746Z" fill="#0E88D3"/>
<path fill-rule="evenodd" clip-rule="evenodd" d="M37.5684 63.9875L78.3066 1.33984L78.0381 108.807L66.8213 37.3262L37.5684 63.9875Z" fill="#F47216"/>
<path fill-rule="evenodd" clip-rule="evenodd" d="M55.333 59.7945C55.0723 59.8019 54.8047 59.816 54.5293 59.836L53.0273 62.5638C57.2627 61.9837 59.0713 62.8794 60.6699 66.1865H1.17969V68.5468H15.5107V69.8914C15.5107 69.8914 9.81934 68.1815 4.99023 71.4775C1.17969 74.8158 4.39844 78.074 4.39844 78.074C4.39844 78.074 7.5127 76.7709 12.4492 77.3813C17.0645 77.9918 16.8516 79.6601 16.8516 79.6601C16.8516 79.6601 16.207 81.7367 12.5039 81.33C8.80078 80.881 9.06934 78.074 9.06934 78.074L4.99023 80.1491C4.99023 80.1491 6.54004 82.1501 10.0303 82.7902L13.1484 86.3381H17.7646L14.2041 82.848C14.6074 82.7939 15.0234 82.7242 15.4551 82.6331C24.418 80.8418 21.252 75.7114 14.5977 74.369C9.97949 73.4734 4.99023 75.1825 4.99023 75.1825C4.99023 75.1825 5.63281 70.8671 13.8984 71.8865C18.5137 72.4947 20.1787 73.9216 20.1787 73.9216V68.5468H29.4307L25.5469 69.9314C25.5469 69.9314 27.5322 71.6013 28.2295 73.7979C28.8213 76.0782 27.5322 76.4856 26.7275 76.5256C26.1914 76.2426 23.6689 73.5149 23.6689 73.5149L21.8965 74.6943L28.2842 82.3079H32.792C32.792 82.3079 28.6602 78.5215 28.0156 77.8288C29.0742 77.8014 30.5322 77.545 31.4902 76.5627C32.1592 76.8272 32.9717 77.0427 33.9199 77.0961C36.7627 77.2998 38.5361 76.2419 38.5361 76.2419V82.3079H43.2041V68.5468H53.3066L49.377 69.9314C49.377 69.9314 51.4697 71.6013 52.0615 73.7979C52.6504 76.0782 51.418 76.4856 50.5576 76.5256C50.1289 76.2426 47.499 73.5149 47.499 73.5149L45.7266 74.6943L52.0615 82.3079H56.6221C56.6221 82.3079 52.5986 78.5215 51.9541 77.8288C53.4033 77.7888 55.8174 77.2598 56.2461 74.6543C56.8721 71.1975 54.8379 69.1446 54.1328 68.5468H59.6807V82.3057H64.3516V68.5468H66.8213V66.1865H63.4141C61.4854 61.0673 59.1299 59.69 55.333 59.7945ZM30.2549 68.5468H38.5361V72.5369C38.5361 72.5369 38.5361 73.6371 35.6904 74.6943C34.4902 75.1899 33.2588 75.3818 32.2031 75.4351C32.2939 75.1973 32.3691 74.9402 32.416 74.6543C33.042 71.1975 30.9727 69.1446 30.2549 68.5468Z" fill="#F47216"/>
</svg>
