<svg width="201" height="50" viewBox="0 0 201 50" fill="none" xmlns="http://www.w3.org/2000/svg">
<g clip-path="url(#clip0_1009_637)">
<path d="M200.205 22.6209V18.5042H195.837V12.1043L195.69 12.1573L191.587 13.6265L191.507 13.6552V18.5044H185.031V15.803C185.031 14.5451 185.272 13.5825 185.745 12.9406C186.216 12.3063 186.888 11.9839 187.746 11.9839C188.363 11.9839 189.002 12.1539 189.644 12.4893L189.806 12.5735V8.23807L189.73 8.20546C189.13 7.95321 188.315 7.82617 187.304 7.82617C186.03 7.82617 184.872 8.15066 183.863 8.79375C182.853 9.43775 182.058 10.3571 181.501 11.526C180.947 12.6935 180.665 14.042 180.665 15.5342V18.5042H177.624V22.6209H180.665V39.9638H185.031V22.6209H191.507V33.642C191.507 38.181 193.336 40.4812 196.944 40.4812C197.536 40.4812 198.16 40.3999 198.797 40.2407C199.446 40.0772 199.888 39.914 200.148 39.7396L200.205 39.6998V35.545L200.027 35.6825C199.79 35.8673 199.495 36.0183 199.15 36.1306C198.802 36.245 198.512 36.3023 198.287 36.3023C197.442 36.3023 196.817 36.0357 196.429 35.5097C196.036 34.9789 195.837 34.0507 195.837 32.7523V22.6209H200.205ZM167.874 36.3029C166.289 36.3029 165.04 35.6879 164.159 34.4765C163.273 33.2589 162.824 31.523 162.824 29.3175C162.824 27.0419 163.273 25.261 164.159 24.0219C165.041 22.791 166.278 22.1662 167.838 22.1662C169.352 22.1662 170.557 22.7629 171.42 23.9406C172.288 25.1244 172.728 26.8911 172.728 29.1931C172.728 31.5234 172.314 33.3135 171.498 34.5109C170.687 35.6992 169.468 36.3029 167.874 36.3029ZM168.068 17.9873C165.044 17.9873 162.643 19.0241 160.931 21.0691C159.22 23.1143 158.352 25.9446 158.352 29.4821C158.352 32.842 159.199 35.5446 160.869 37.5135C162.54 39.4831 164.813 40.4808 167.626 40.4808C170.556 40.4808 172.91 39.4294 174.621 37.3561C176.333 35.2851 177.2 32.4815 177.2 29.0267C177.2 25.6142 176.386 22.8915 174.781 20.9357C173.175 18.9791 170.916 17.9873 168.068 17.9873ZM151.313 17.9873C149.256 17.9873 147.555 18.6029 146.255 19.8169C144.948 21.0381 144.285 22.6397 144.285 24.5778C144.285 25.5853 144.428 26.4801 144.71 27.2392C144.993 28.0007 145.432 28.6712 146.014 29.2339C146.593 29.7921 147.485 30.3767 148.668 30.9716C149.663 31.4505 150.404 31.8556 150.875 32.1749C151.336 32.4879 151.663 32.8024 151.847 33.1088C152.027 33.4086 152.117 33.8189 152.117 34.3252C152.117 35.7669 151.195 36.4685 149.297 36.4685C148.593 36.4685 147.79 36.2964 146.91 35.9572C146.037 35.6231 145.212 35.1338 144.466 34.5066L144.284 34.3544V39.2743L144.351 39.3105C144.969 39.6443 145.748 39.9258 146.666 40.1472C147.582 40.3689 148.414 40.4817 149.138 40.4817C151.369 40.4817 153.166 39.863 154.478 38.6418C155.797 37.4123 156.466 35.7728 156.466 33.7677C156.466 32.3212 156.106 31.0807 155.397 30.0803C154.692 29.0881 153.468 28.1771 151.762 27.3719C150.403 26.7333 149.532 26.2032 149.173 25.7963C148.826 25.4032 148.651 24.8473 148.651 24.1433C148.651 23.5192 148.868 23.0192 149.313 22.6143C149.762 22.2074 150.387 22.0005 151.171 22.0005C151.899 22.0005 152.643 22.135 153.383 22.3986C154.123 22.6621 154.773 23.0152 155.315 23.447L155.493 23.5896V18.9227L155.425 18.8883C154.925 18.6371 154.265 18.4222 153.463 18.2479C152.666 18.0747 151.942 17.9873 151.313 17.9873ZM132.903 36.3029C131.318 36.3029 130.069 35.6879 129.188 34.4765C128.302 33.2589 127.854 31.5234 127.854 29.3175C127.854 27.0419 128.303 25.261 129.189 24.0219C130.069 22.791 131.307 22.1662 132.868 22.1662C134.381 22.1662 135.586 22.7629 136.45 23.9406C137.317 25.1244 137.757 26.8911 137.757 29.1931C137.757 31.5234 137.343 33.3135 136.527 34.5109C135.716 35.6992 134.497 36.3029 132.903 36.3029ZM133.097 17.9873C130.073 17.9873 127.672 19.0241 125.96 21.0691C124.249 23.1143 123.381 25.9446 123.381 29.4821C123.381 32.8434 124.229 35.5446 125.899 37.5135C127.569 39.4831 129.843 40.4808 132.655 40.4808C135.585 40.4808 137.939 39.4294 139.651 37.3561C141.362 35.2851 142.229 32.4815 142.229 29.0267C142.229 25.6142 141.415 22.8915 139.81 20.9357C138.203 18.9791 135.945 17.9873 133.097 17.9873ZM116.754 22.2206V18.5042H112.441V39.9633H116.754V28.9862C116.754 27.1196 117.115 25.5862 117.829 24.4279C118.533 23.2835 119.472 22.7036 120.618 22.7036C121.007 22.7036 121.443 22.7785 121.915 22.9268C122.382 23.0743 122.721 23.2343 122.921 23.4028L123.102 23.5566V18.4675L123.032 18.4324C122.63 18.2327 122.062 18.132 121.343 18.132C120.259 18.132 119.289 18.5395 118.459 19.3421C117.729 20.0474 117.202 21.0145 116.799 22.2206H116.754ZM104.717 17.9873C102.739 17.9873 100.974 18.4838 99.4726 19.4627C97.9684 20.4439 96.805 21.8447 96.0135 23.6259C95.2255 25.4027 94.8254 27.4783 94.8254 29.793C94.8254 31.8205 95.2133 33.6812 95.9801 35.3211C96.7472 36.9637 97.8329 38.2487 99.2074 39.14C100.58 40.0301 102.166 40.4814 103.922 40.4814C105.972 40.4814 107.722 40.0018 109.125 39.056L109.182 39.018V34.3934L109 34.5482C108.365 35.0901 107.655 35.5226 106.89 35.8342C106.128 36.1456 105.433 36.3029 104.824 36.3029C103.132 36.3029 101.773 35.6832 100.787 34.4613C99.7986 33.2378 99.2975 31.5198 99.2975 29.358C99.2975 27.1826 99.8201 25.4204 100.85 24.1202C101.877 22.8238 103.238 22.1662 104.895 22.1662C106.313 22.1662 107.694 22.728 109.001 23.8376L109.182 23.9913V19.1186L109.123 19.0801C108.632 18.7578 107.961 18.4918 107.128 18.29C106.299 18.0887 105.488 17.9873 104.717 17.9873ZM91.8551 18.5044H87.5422V39.9633H91.8551V18.5044ZM89.7427 9.3628C89.0329 9.3628 88.4138 9.64563 87.9052 10.2061C87.3944 10.7681 87.1353 11.4757 87.1353 12.3108C87.1353 13.1328 87.3913 13.8275 87.8972 14.3746C88.3999 14.9201 89.0209 15.1966 89.7429 15.1966C90.4648 15.1966 91.0881 14.9201 91.5968 14.3755C92.1087 13.8275 92.3683 13.133 92.3683 12.3108C92.3683 11.5049 92.1157 10.8045 91.6179 10.2287C91.1205 9.654 90.4893 9.3628 89.7427 9.3628ZM78.9819 16.9212V39.9633H83.3833V10.0197H77.2915L69.5484 32.261L62.0342 10.0197H55.6943V39.9631H59.8306V16.9189H59.9726L67.9074 39.9633H71.0289L78.8399 16.9212H78.9819Z" fill="#706D6E"/>
<path d="M20.494 23.7601H0.205078V0.0136719H20.494V23.7601Z" fill="#F1511B"/>
<path d="M42.8955 23.7601H22.6069V0.0136719H42.8955V23.7601Z" fill="#80CC28"/>
<path d="M20.4934 49.9864H0.205078V26.2402H20.4934V49.9864Z" fill="#00ADEF"/>
<path d="M42.8955 49.9864H22.6069V26.2402H42.8955V49.9864Z" fill="#FBBC09"/>
</g>
<defs>
<clipPath id="clip0_1009_637">
<rect width="200" height="50" fill="white" transform="translate(0.205078)"/>
</clipPath>
</defs>
</svg>
