<svg width="276" height="66" viewBox="0 0 276 66" fill="none" xmlns="http://www.w3.org/2000/svg">
<g clip-path="url(#clip0_1017_762)">
<path d="M27.199 63.8446C12.5704 63.8446 0.705078 50.1004 0.705078 33.1463C0.705078 16.1921 12.5704 2.44922 27.1993 2.44922C41.8276 2.44922 53.6929 16.1918 53.6929 33.1463C53.6929 49.9189 41.8276 63.8446 27.1993 63.8446M169.686 36.4728C171.208 35.0397 172.065 32.973 171.681 30.7356C171.474 30.1054 171.015 29.4755 170.499 29.0835C168.637 27.5855 165.519 27.6282 163.613 28.9756C161.559 30.2579 160.377 32.7351 160.554 35.3872C160.687 36.56 161.633 37.6042 162.579 37.9946C164.972 39.1245 167.795 38.3198 169.686 36.4724L173.72 41.1192C171.385 42.6016 168.652 43.384 166.051 43.6891C162.312 43.8617 158.633 43.2541 155.604 41.167C153.27 39.5149 151.925 36.6899 152.353 33.4526C153.24 27.8661 158.353 24.1511 162.712 22.9766C168.371 21.8038 174.828 22.3261 178.566 27.8234C179.645 29.6058 179.748 32.3228 179.01 34.343C177.99 37.452 176.054 39.6346 173.72 41.1192L169.686 36.4728ZM232.012 43.5792L236.105 22.9117H243.227L240.434 37.3319C240.464 37.4622 240.538 37.6147 240.656 37.6351H251.014L249.832 43.5792H232.012ZM131.061 29.4908L132.597 22.9117H154.658L153.21 29.3832H145.911L145.778 29.5784L142.453 43.6101H135.331L138.538 29.8831C138.582 29.6825 138.464 29.5131 138.257 29.4908H131.061ZM99.0702 43.6101H91.9628L94.4454 32.7488C94.4306 32.6839 94.3712 32.7062 94.3124 32.7062L86.747 43.6101H82.8313L80.5411 32.4887C80.5411 32.4527 80.482 32.374 80.4523 32.3791C80.4229 32.3842 80.3193 32.4339 80.2602 32.6393C80.2011 32.8463 77.6893 43.6101 77.6893 43.6101H71.8378L76.7584 22.9117H86.2446L88.1064 31.8142L94.2682 22.9117H103.947L99.0702 43.6101ZM222.201 36.4728C223.722 35.0397 224.594 32.973 224.195 30.7356C223.988 30.1054 223.545 29.4755 223.013 29.0835C221.151 27.5855 218.048 27.6282 216.127 28.9756C214.088 30.2579 212.906 32.7351 213.069 35.3872C213.202 36.56 214.162 37.6042 215.093 37.9946C217.502 39.1245 220.309 38.3201 222.201 36.4728L226.249 41.1192C223.9 42.6016 221.181 43.384 218.565 43.6891C214.827 43.8617 211.163 43.2541 208.119 41.167C205.799 39.5149 204.44 36.6899 204.868 33.4526C205.754 27.8661 210.882 24.1511 215.226 22.9766C220.9 21.8038 227.343 22.3261 231.081 27.8234C232.16 29.6058 232.263 32.3228 231.524 34.343C230.52 37.452 228.584 39.6346 226.249 41.1192L222.201 36.4728ZM120.924 36.4728C122.431 35.0397 123.303 32.973 122.904 30.7356C122.698 30.1054 122.254 29.4755 121.722 29.0835C119.861 27.5855 116.758 27.6282 114.836 28.9756C112.797 30.2579 111.615 32.7351 111.778 35.3872C111.911 36.56 112.871 37.6042 113.802 37.9946C116.211 39.1245 119.018 38.3201 120.924 36.4728L124.958 41.1192C122.624 42.6016 119.89 43.384 117.275 43.6891C113.551 43.8617 109.872 43.2541 106.828 41.167C104.508 39.5149 103.149 36.6899 103.592 33.4526C104.464 27.8661 109.591 24.1511 113.935 22.9766C119.609 21.8038 126.052 22.3261 129.79 27.8234C130.883 29.6058 130.972 32.3228 130.248 34.343C129.228 37.452 127.293 39.6346 124.958 41.1192L120.924 36.4728ZM192.19 28.2667L189.087 28.2804L188.363 31.8878H195.426C196.076 31.7798 196.549 31.5298 197.051 30.9426C197.465 30.4633 197.672 29.7478 197.45 29.0733C197.273 28.6383 196.83 28.296 196.549 28.2479L192.19 28.267L191.998 22.9117H200.184C201.661 22.9117 203.065 23.6288 203.981 24.6937C205.104 25.9557 205.282 28.1282 204.69 29.758C203.952 32.018 201.942 33.5602 200.125 34.343C200.051 34.4302 199.888 34.5398 200.021 34.6477C200.908 35.0824 201.972 35.7999 202.179 36.9947C202.504 38.6025 202.001 40.2218 201.913 41.744C201.898 42.5042 202.415 43.1563 202.873 43.6101H194.894C194.539 43.5245 194.199 43.2162 194.037 42.8242C193.919 42.5178 193.875 42.1685 193.889 41.7972L194.126 39.0802C194.111 38.2513 193.727 37.5048 192.781 37.4724H187.151L186.989 37.5459L185.762 43.6101H179.054C180.458 36.7431 181.994 29.7357 183.457 22.9117H191.998L192.19 28.2667ZM264.963 34.6477H262.332L265.347 29.479C265.391 29.4497 265.465 29.4634 265.48 29.5287L266.529 34.6477H264.963L265.716 39.9171H267.519C267.578 39.9104 267.622 39.9773 267.637 40.0594L268.361 43.6101H275.705L271.612 22.9117H262.732L251.221 43.6101H257.146L259.289 39.9171H265.716L264.963 34.6477Z" fill="#0F589F"/>
<path d="M27.1992 39.5781L35.1488 9.00781L45.2851 48.2478H43.6893C43.6893 48.2478 43.113 46.2416 42.6403 44.4112C40.3206 35.6405 37.3652 32.2096 32.9913 34.0808C31.898 34.5463 30.3465 36.2019 29.4598 37.883C28.7062 39.3058 27.5686 41.7611 27.1992 43.6784C26.8298 41.7611 25.6771 39.3062 24.9384 37.8833C24.0517 36.2019 22.5005 34.5463 21.4066 34.0808C17.033 32.2096 14.0779 35.6405 11.7579 44.4112C11.2852 46.2413 10.7088 48.2478 10.7088 48.2478H9.12793L19.2496 9.00781L27.1992 39.5781Z" fill="white"/>
</g>
<defs>
<clipPath id="clip0_1017_762">
<rect width="275" height="65" fill="white" transform="translate(0.705078 0.646484)"/>
</clipPath>
</defs>
</svg>
