<svg width="120" height="65" viewBox="0 0 120 65" fill="none" xmlns="http://www.w3.org/2000/svg">
<g clip-path="url(#clip0_1020_645)">
<path d="M15.09 16.3105C6.75 16.3105 0 27.168 0 40.583C0 53.998 6.75 64.8555 15.09 64.8555C23.43 64.8555 30.18 53.998 30.18 40.583C30.18 27.168 23.43 16.3105 15.09 16.3105ZM15.09 52.7434C10.92 52.7434 7.53 47.2905 7.53 40.583C7.53 33.8755 10.92 28.4226 15.09 28.4226C19.26 28.4226 22.65 33.8755 22.65 40.583C22.65 47.2905 19.26 52.7434 15.09 52.7434Z" fill="#007DC1"/>
<path d="M41.6102 48.7379C41.6102 46.8077 43.0502 45.8909 43.8902 47.242C47.6702 53.4187 53.9102 64.0349 53.9402 64.0832C54.0302 64.2279 54.1202 64.4692 54.4802 64.6622C54.6302 64.7587 54.8702 64.7587 55.1402 64.7587H61.9502C63.1802 64.7587 63.5402 62.4907 62.9702 61.3326L51.6902 42.7543L51.0902 41.7892C49.8002 39.3281 49.9502 38.363 51.4202 35.8538L60.3602 19.7847C60.9302 18.6266 60.5702 16.4068 59.3102 16.4068H53.1302C52.8902 16.4068 52.7102 16.4068 52.5302 16.5033C52.1702 16.6964 52.0202 16.8894 51.9302 17.0824C51.9002 17.1307 46.9502 25.7201 43.8902 30.98C43.0502 32.4276 41.5502 31.4625 41.5502 29.484V1.93022C41.5502 0.530809 40.8302 0 40.2602 0H35.2202C34.3502 0 33.9302 0.916852 33.9302 1.73719V62.8285C33.9302 64.2279 34.6502 64.614 35.2502 64.614H40.2902C41.0702 64.614 41.5802 63.6971 41.5802 62.7803V62.1529V48.7379H41.6102Z" fill="#007DC1"/>
<path d="M82.7701 62.539L82.2301 54.4321C82.1701 53.3222 81.5101 52.5501 80.8201 52.7431C80.4301 52.8396 80.0401 52.8879 79.6501 52.8879C75.6301 52.8879 72.3601 47.8211 72.1201 41.4031C72.1201 41.2101 72.1201 40.9688 72.1201 40.7275V30.7869C72.1201 29.484 72.7201 28.4224 73.5301 28.4224H80.2801C80.7601 28.4224 81.4801 27.7468 81.4801 26.3474V18.6748C81.4801 17.1789 80.8801 16.4068 80.3401 16.4068H73.5301C72.7501 16.4068 72.1201 15.49 72.0901 14.2353V1.93022C72.0901 1.15813 71.7301 0 70.8001 0H65.7901C65.1601 0 64.5601 0.62732 64.5601 1.88196C64.5601 1.88196 64.5601 41.2101 64.5601 41.4031C64.7701 54.5286 71.4601 65 79.6501 65C80.3401 65 81.0001 64.9035 81.6601 64.7587C82.3801 64.614 82.8601 63.6489 82.7701 62.539Z" fill="#007DC1"/>
<path d="M119.13 52.3567C114.87 52.3567 114.21 49.8957 114.21 40.6789C114.21 40.6307 114.21 40.6307 114.21 40.5824V18.4332C114.21 17.6611 113.85 16.3582 112.89 16.3582H107.85C107.22 16.3582 106.53 17.1786 106.53 18.4332V19.4466C104.34 17.4198 101.79 16.2617 99.09 16.2617C90.75 16.2617 84 27.1192 84 40.5342C84 53.9492 90.75 64.8066 99.09 64.8066C102.84 64.8066 106.26 62.5869 108.9 58.9677C110.31 62.4421 112.59 64.7584 116.16 64.8066C116.76 64.8066 120 64.9997 120 62.5386V53.9009C120 53.1771 119.64 52.3567 119.13 52.3567ZM99.12 52.7428C94.95 52.7428 91.56 47.2899 91.56 40.5824C91.56 33.8749 94.95 28.4221 99.12 28.4221C103.29 28.4221 106.68 33.8749 106.68 40.5824C106.65 47.2899 103.26 52.7428 99.12 52.7428Z" fill="#007DC1"/>
</g>
<defs>
<clipPath id="clip0_1020_645">
<rect width="120" height="65" fill="white"/>
</clipPath>
</defs>
</svg>
