<svg width="201" height="65" viewBox="0 0 201 65" fill="none" xmlns="http://www.w3.org/2000/svg">
<path d="M84.5849 40.8146H96.8507L90.365 16.938L78.4614 60.1079H73.0439L87.5226 8.25166C88.1521 6.15645 89.2013 4.89062 90.365 4.89062C91.4904 4.89062 92.5396 6.1128 93.15 8.16434L107.686 60.1079H102.268L99.7122 50.4612H87.2936L84.5849 40.8146ZM140.859 50.4612V5.41442H136.262V54.8699C136.262 56.223 136.491 57.5325 136.93 58.5365C137.368 59.5405 137.96 60.1079 138.608 60.1079H159.573L162.282 50.4612H140.859ZM64.803 42.386C69.2669 42.386 72.8913 34.1362 72.8913 23.922C72.8913 13.708 69.2669 5.41442 64.803 5.41442H44.6911V60.1079H49.2866V15.0611H64.4978C66.6344 15.0611 68.3512 19.0332 68.3512 23.922C68.3512 28.8108 66.6344 32.783 64.4978 32.783L51.5376 32.7393L65.2608 60.1079H71.9375L62.7047 42.386H64.803ZM16.4014 60.1079C9.80294 60.1079 4.44824 47.8859 4.44824 32.783C4.44824 17.6801 9.80294 5.41442 16.4014 5.41442H30.2944C36.8947 5.41442 42.2456 17.6801 42.2456 32.783C42.2456 47.8859 36.8947 60.1079 30.2944 60.1079H16.4014ZM29.9854 50.4612C34.2604 50.4612 37.7227 42.5606 37.7227 32.783C37.7227 23.0054 34.2604 15.0611 29.9854 15.0611H16.7085C12.4354 15.0611 8.97114 23.0054 8.97114 32.783C8.97114 42.5606 12.4354 50.4612 16.7085 50.4612H29.9854ZM117.281 60.1079C110.681 60.1079 105.321 47.8859 105.321 32.783C105.321 17.6801 110.681 5.41442 117.281 5.41442H133.782L131.092 15.0611H117.586C113.313 15.0611 109.842 23.0054 109.842 32.783C109.842 42.5606 113.313 50.4612 117.586 50.4612H134.163L131.455 60.1079H117.281ZM173.498 50.4612C169.969 50.4612 166.974 45.0486 166.059 37.5845H185.707L188.416 27.9378H166.059C166.974 20.5173 169.969 15.0611 173.498 15.0611H186.985L189.713 5.41442H173.193C166.593 5.41442 161.232 17.6801 161.232 32.783C161.232 47.8859 166.593 60.1079 173.193 60.1079H187.367L190.075 50.4612H173.498Z" fill="#F80000"/>
<path d="M192.174 11.2204C192.174 8.55769 193.108 6.41887 194.272 6.41887C195.455 6.41887 196.39 8.55769 196.39 11.2204C196.39 13.9266 195.455 16.0655 194.272 16.0655C193.108 16.0655 192.174 13.9266 192.174 11.2204ZM194.272 17.4187C195.76 17.4187 196.962 14.6687 196.962 11.264C196.962 7.85933 195.76 5.10938 194.272 5.10938C192.803 5.10938 191.602 7.85933 191.602 11.264C191.602 14.6687 192.803 17.4187 194.272 17.4187ZM194.024 7.59744C194.444 7.59744 194.616 7.64105 194.806 7.81564C195.34 8.20852 195.398 9.29978 195.398 9.73629C195.398 9.82359 195.398 10.0418 195.359 10.3037C195.34 10.5656 195.264 11.0894 194.997 11.4823C194.959 11.5259 194.94 11.5696 194.864 11.6569L195.55 14.4941H194.883L194.272 11.8751H193.853V14.4941H193.261V7.59744H194.024ZM194.234 10.7402C194.425 10.6966 194.616 10.6966 194.73 10.3037C194.787 10.1291 194.806 9.95451 194.806 9.69259C194.806 9.34342 194.711 9.0379 194.577 8.86328C194.444 8.73235 194.31 8.73235 194.024 8.73235H193.853V10.7402H194.234Z" fill="#F80000"/>
</svg>
