<svg width="271" height="76" viewBox="0 0 271 76" fill="none" xmlns="http://www.w3.org/2000/svg">
<g clip-path="url(#clip0_1017_879)">
<path d="M0.705078 32.0233C2.53541 34.943 4.86613 35.9997 7.50191 35.9919C12.0269 35.9919 16.5519 36.0232 21.0795 35.9919C23.9882 35.9606 24.8097 34.7591 24.8258 30.54C24.8552 24.047 24.8258 17.554 24.8258 11.065C24.8258 7.10812 24.1301 3.53483 22.1499 0.666016H30.5228C28.6176 3.43698 27.8844 6.89286 27.8683 10.7127C27.8389 17.3388 27.8201 23.9687 27.8683 30.5987C27.9004 34.8608 28.7246 35.9802 31.6494 35.9997C35.7462 36.0271 39.8511 36.2502 43.9345 35.9175C46.5275 35.7101 49.0856 34.6456 51.7107 33.9606V43.6238C48.8555 39.984 45.4705 40.2814 42.1042 40.3245C38.4435 40.3714 34.7829 40.4027 31.1329 40.3245C29.0564 40.2736 27.9432 41.7843 27.9218 44.6296C27.8496 52.2772 27.7051 59.9482 28.0663 67.5605C28.1974 70.3472 29.6719 72.9968 30.5335 75.7091H22.1579C24.1247 72.8324 24.8338 69.267 24.8338 65.3023C24.8338 58.8054 24.8552 52.3085 24.8338 45.8116C24.8124 41.5573 24.0471 40.391 21.0875 40.3323C16.5599 40.2618 12.0296 40.3714 7.50191 40.3323C4.85007 40.2697 2.53808 41.3499 0.705078 44.2696V32.0233Z" fill="#00539B"/>
<path d="M36.8085 0.646484V22.7946H51.2799C50.8196 27.9687 48.4621 31.405 44.7373 31.7494C40.6592 32.1408 36.5516 32.0116 32.4655 31.7964C31.8286 31.7611 30.7288 30.0743 30.7047 29.1037C30.5495 23.1234 30.5576 17.1275 30.678 11.1472C30.777 5.73441 33.5038 3.10826 36.2947 0.646484H36.8085Z" fill="#439539"/>
<path d="M15.8802 75.6469C15.9319 68.9074 15.9756 62.1718 16.0113 55.44C15.9871 54.7842 15.938 54.1309 15.8641 53.4831H0.705078V52.7004C2.31063 48.7553 3.94829 44.6928 7.55007 44.4814C11.7058 44.2192 15.8695 44.274 20.0306 44.2035C21.4194 44.1801 22.0776 45.1468 22.0535 47.2367C22.0107 50.6613 21.8903 54.1054 22.083 57.5104C22.5192 65.1854 21.5772 71.8114 16.402 75.6743L15.8802 75.6469Z" fill="#439539"/>
<path d="M270.705 39.6781C266.651 40.1712 262.602 40.8209 258.543 41.0909C256.683 41.2123 256.188 42.042 256.384 44.7464C257.061 54.1395 262.592 58.4838 268.254 53.889C268.754 53.4528 269.336 53.2609 269.916 53.3411C267.994 57.5837 265.506 60.4955 261.845 60.5464C257.751 60.6012 254.888 57.6932 253.226 52.3274C250.681 44.1085 253.017 33.5412 258.31 28.9308C263.172 24.6882 268.048 27.1618 270.135 34.915C270.293 35.4981 270.515 36.0421 270.708 36.6096L270.705 39.6781ZM255.969 38.5626C259.447 38.5626 262.086 38.6526 264.727 38.4844C265.198 38.453 266.094 37.095 266.014 36.7858C265.401 34.4375 264.93 31.6744 263.764 30.0384C262.426 28.1441 260.344 28.6686 259.118 30.8211C257.893 32.9737 257.168 35.5451 255.969 38.5626Z" fill="#00539B"/>
<path d="M179.529 26.4774C179.529 23.0372 179.869 19.0177 179.384 15.2253C179.146 13.3506 177.388 11.8868 176.253 10.1373L183.478 7.78906C183.529 9.32718 183.61 10.6657 183.61 12.0081C183.62 24.2322 183.62 36.455 183.61 48.6765C183.61 54.9189 183.61 54.9189 187.829 57.4942L179.906 60.2965C179.689 58.9502 179.518 57.8699 179.25 56.1988C178.343 56.8993 177.543 57.4668 176.775 58.1204C171.597 62.5274 166.323 59.9012 164.038 51.7605C163.41 49.5138 163.105 47.1019 163.143 44.6754C163.18 42.2488 163.559 39.8595 164.255 37.6564C164.952 35.4532 165.951 33.4835 167.191 31.87C168.43 30.2564 169.884 29.0336 171.461 28.2778C173.853 27.1467 176.513 27.1389 179.529 26.4774ZM179.593 43.7333C179.593 41.569 179.494 39.389 179.617 37.2404C179.812 33.8236 179.154 31.217 176.856 29.8707C174.423 28.45 172.258 29.0879 170.385 31.7493C166.939 36.6533 166.88 48.6451 170.372 53.4826C171.256 54.696 172.316 55.6017 173.473 56.1322C177.029 57.6977 179.585 54.8368 179.593 49.4788C179.596 47.5688 179.593 45.655 179.593 43.749V43.7333Z" fill="#00539B"/>
<path d="M64.8791 11.5077C71.0658 12.0674 76.7388 10.224 82.8559 11.5077C86.7119 12.3179 89.1363 19.4332 89.0721 25.9301C89.0105 32.3487 86.356 37.8789 81.9568 39.3465C79.2541 40.2467 76.3561 39.8866 73.3564 40.1058C73.3564 44.6302 72.9764 49.7572 73.5491 54.6456C73.7658 56.485 76.1849 57.7766 77.5442 59.2482H64.8524L64.7239 58.7863C65.1878 58.4759 65.6662 58.2143 66.1555 58.0036C67.9698 57.4087 68.8047 55.6749 68.81 53.08C68.8288 41.6048 68.7859 30.1335 68.8395 18.6387C68.8582 14.4979 66.6987 13.9617 64.665 13.1085C64.7346 12.5762 64.8069 12.0439 64.8791 11.5077ZM73.2226 26.6541H73.0861C73.0861 29.2059 73.1343 31.742 73.0701 34.3056C73.0166 36.5403 73.6936 37.4366 75.1867 37.7341C77.9617 38.2859 80.5065 37.6949 82.2967 34.4073C84.5364 30.2979 84.7344 25.5074 83.5918 20.6543C82.4305 15.6994 78.933 12.7797 75.4838 14.1495C74.5927 14.4979 73.4688 16.216 73.3297 17.5037C73.0112 20.4899 73.2226 23.5974 73.2226 26.6541Z" fill="#00539B"/>
<path d="M127.664 28.0825H138.994C134.445 30.7595 136.553 34.3641 137.346 37.6165C138.448 42.1369 139.69 46.5869 140.872 51.0682L141.659 51.2404C143.147 44.9783 144.755 38.7593 146.002 32.3955C146.187 31.4483 144.664 29.7889 143.717 28.0433L158.702 26.834V33.5696C158.702 39.4351 158.702 45.3058 158.702 51.1817C158.702 54.7511 159.208 57.8351 162.058 59.2558H151.335C152.486 58.0308 153.818 57.2676 154.343 55.8626C154.867 54.4575 154.661 52.3989 154.669 50.6259C154.699 45.2679 154.819 39.8982 154.589 34.5794C154.517 32.9082 153.701 30.5286 152.77 29.8828C151.215 28.8026 149.449 29.6245 148.587 32.2311C147.375 35.8709 146.214 39.5695 145.14 43.3071C143.803 48.0037 142.593 52.7746 141.295 57.4985C141.028 58.5161 140.61 59.4554 139.957 61.2636C139.278 59.6511 138.766 58.7549 138.483 57.7412C136.66 51.1347 134.884 44.5008 133.104 37.867C131.493 31.8162 131.501 31.8123 127.664 28.0825Z" fill="#00539B"/>
<path d="M217.516 59.3536H207.248C207.037 59.0327 206.828 58.7078 206.62 58.3869C210.952 58.4887 210.679 54.5709 210.634 50.7628C210.58 46.3089 210.591 41.8472 210.634 37.3894C210.66 34.1331 210.553 31.0882 207.291 30.9395C207.374 30.6303 207.457 30.3211 207.537 30.0119L214.436 27.0687C214.562 28.7673 214.671 30.235 214.832 32.4032C216.261 31.0569 217.436 29.8788 218.656 28.8143C223.641 24.4543 228.495 28.2194 228.731 36.7358C228.87 41.8237 228.873 46.9117 228.749 51.9996C228.667 55.4202 229.105 58.0464 231.714 59.291H221.832C224.674 57.9759 224.872 54.8723 224.776 51.3656C224.677 47.2952 224.797 43.2131 224.736 39.1389C224.687 36.0078 224.294 32.9668 222.06 31.46C220.248 30.235 216.759 31.46 215.338 33.9609C214.851 34.8141 214.661 36.2427 214.645 37.4168C214.57 42.3795 214.645 47.35 214.602 52.3166C214.57 55.522 214.784 58.3712 217.982 58.336L217.516 59.3536Z" fill="#00539B"/>
<path d="M36.6506 74.7428C32.9043 73.3103 30.8572 70.0736 30.6967 65.1227C30.504 59.158 30.6485 53.1738 30.603 47.1975C30.5843 45.0214 31.3229 44.3091 32.6983 44.3326C36.6988 44.403 40.7019 44.2269 44.6944 44.4891C48.0848 44.7083 50.3138 47.6789 51.4243 53.1464H36.6506V74.7428Z" fill="#439539"/>
<path d="M106.918 43.9494C107.033 34.1923 111.863 26.8031 118.084 26.8696C124.306 26.9361 128.908 34.2393 128.823 43.922C128.735 53.7339 123.921 60.8256 117.525 60.5673C111.13 60.309 106.803 53.5851 106.918 43.9494ZM112.27 35.7304C111.352 40.4091 111.453 45.3897 112.559 49.9805C112.964 51.7851 113.503 53.5199 114.164 55.1546C116.385 60.4969 121.164 60.1133 122.799 54.6497C125.015 47.2487 124.838 39.6207 121.924 32.6581C119.551 26.9831 114.67 27.6015 112.791 33.6913C112.583 34.3516 112.405 35.0315 112.259 35.7265L112.27 35.7304Z" fill="#00539B"/>
<path d="M206.026 52.4964C203.082 59.232 198.94 61.776 194.723 60.1322C191.075 58.7115 188.276 53.1226 187.995 46.9388C187.631 38.9821 189.58 32.6926 194.319 28.6457C199.226 24.4541 205.145 28.3913 206.05 36.2111C206.355 38.8373 205.897 40.3088 203.821 40.3793C200.521 40.4889 197.23 40.9938 193.92 41.1307C192.135 41.2012 191.718 42.2305 191.972 44.7079C192.986 54.555 198.91 59.1068 204.326 53.5531C204.645 53.2361 205.041 53.0913 206.026 52.4964ZM191.902 38.5829C195.113 38.5829 197.701 38.7433 200.267 38.4576C200.816 38.3989 201.712 36.7316 201.704 35.8158C201.688 32.8374 200.829 29.7338 198.656 29.4559C196.326 29.1545 195.046 29.7886 193.963 32.0273C193.104 33.8002 192.684 36.0193 191.902 38.5829Z" fill="#00539B"/>
<path d="M251.404 52.0507C249.565 58.1797 245.552 61.1385 241.246 60.344C237.157 59.5887 233.898 54.8373 233.157 48.5478C231.894 37.8241 238.241 26.7872 245.704 26.975C247.181 27.0142 248.755 27.9339 250.052 29.0376C250.491 29.4094 250.213 31.5972 250.261 32.9514C249.523 32.8927 248.597 33.2332 248.078 32.7087C245.819 30.427 243.515 28.8262 240.815 30.8614C238.011 32.9905 236.951 36.8339 237.195 41.0842C237.393 44.5088 237.866 48.2347 239.028 51.131C241.102 56.3011 245.308 57.3343 248.854 54.3481C249.509 53.7962 250.143 53.1896 251.404 52.0507Z" fill="#00539B"/>
<path d="M97.6106 27.197C97.7577 29.8271 97.8781 31.78 98.0066 34.277C99.4489 32.0109 100.533 30.0619 101.79 28.4063C103.048 26.7508 104.715 26.0581 106 28.015C106.602 28.9347 106.773 31.0951 106.484 32.3749C106.313 33.1577 104.72 33.9404 104.022 33.5999C100.811 32.0344 98.1083 34.2301 97.8674 39.361C97.6453 44.312 97.541 49.3608 97.9959 54.2335C98.1752 56.1473 100.016 57.7324 100.939 59.2275H90.5435C94.5761 57.9868 93.7813 53.3333 93.8134 49.3099C93.8455 45.2865 93.8134 41.1497 93.8134 37.0676C93.8134 33.9835 93.685 31.0168 90.5702 30.8799C90.6478 30.5589 90.7227 30.238 90.8003 29.9132L97.6106 27.197Z" fill="#00539B"/>
<path d="M16.0247 1.75C19.7871 3.07286 21.7994 6.517 21.984 12.2194C22.1633 17.8083 22.0001 23.4207 22.0563 29.0213C22.075 31.1661 21.3659 32.0858 20.0199 32.0702C15.7571 32.0271 11.4837 32.1797 7.23703 31.757C4.18381 31.4557 2.31067 28.5595 1.4624 23.585H9.7845C16.0247 23.585 16.0247 23.585 16.0247 14.2859V1.75Z" fill="#439539"/>
<path d="M155.983 20.0941C157.168 20.0941 158.129 18.6888 158.129 16.9553C158.129 15.2217 157.168 13.8164 155.983 13.8164C154.798 13.8164 153.837 15.2217 153.837 16.9553C153.837 18.6888 154.798 20.0941 155.983 20.0941Z" fill="#004A97"/>
</g>
<defs>
<clipPath id="clip0_1017_879">
<rect width="270" height="75" fill="white" transform="translate(0.705078 0.646484)"/>
</clipPath>
</defs>
</svg>
