<svg width="189" height="58" viewBox="0 0 189 58" fill="none" xmlns="http://www.w3.org/2000/svg">
<g clip-path="url(#clip0_1009_648)" filter="url(#filter0_d_1009_648)">
<path fill-rule="evenodd" clip-rule="evenodd" d="M52.7453 14.6098C53.2164 14.6098 53.6416 15.1814 53.6416 15.9374V41.1128C53.6416 41.8074 53.2164 42.3667 52.7453 42.3667H50.4275C49.9773 42.3667 49.5521 41.8504 49.5521 41.1559V38.8387C48.3849 41.3956 46.3797 43.1473 43.4366 43.1473C38.5093 43.1473 35.4744 38.3347 35.4744 31.2234V15.8944C35.4744 15.1814 35.9247 14.616 36.3999 14.616H38.7177C39.1887 14.616 39.5723 15.1814 39.5723 15.8944V30.2215C39.5723 34.862 41.2314 37.9044 44.4913 37.9044C47.6679 37.9044 49.5521 34.7391 49.5521 30.2891V15.9006C49.5521 15.1876 49.9773 14.6221 50.4275 14.6221L52.7453 14.6098ZM18.5454 0.676068C10.6124 0.669922 4.20508 9.73577 4.20508 21.8994C4.20508 34.0445 10.6082 43.1473 18.5454 43.1473C19.896 43.1473 21.2217 42.8707 22.4598 42.3667L24.0105 48.2672C24.1648 48.9433 24.4816 49.3305 25.0652 49.3305H27.5373C28.1209 49.3305 28.5794 48.7466 28.2834 47.6402L26.2825 39.8959C30.2594 36.2081 32.8899 29.7052 32.8899 21.8994C32.8899 9.72963 26.4867 0.669922 18.5496 0.669922M24.7984 34.1982L22.9767 27.2713C22.8225 26.6874 22.5056 26.1834 21.8095 26.1834H19.45C18.8622 26.1834 18.3911 26.755 18.6579 27.8367L21.0383 36.9395C20.2243 37.2509 19.3863 37.4059 18.5454 37.4004C12.7217 37.4004 8.60722 30.7009 8.60722 21.8932C8.60722 13.1163 12.7217 6.39216 18.5454 6.39216C24.3732 6.39216 28.4835 13.1163 28.4835 21.8932C28.4835 27.0131 27.087 31.4139 24.7984 34.1859M184.001 40.9715C184.205 41.666 183.959 42.3605 183.367 42.3605H180.791C180.328 42.3605 179.915 42.0409 179.749 41.3464L174.971 22.3542L170.09 41.3464C169.881 42.084 169.544 42.3605 169.073 42.3605H166.763C166.292 42.3605 165.925 42.084 165.721 41.3464L160.823 22.2374L155.987 41.3464C155.912 41.6555 155.771 41.9209 155.586 42.1034C155.4 42.2859 155.18 42.376 154.958 42.3605H152.527C152.305 42.3767 152.085 42.2867 151.9 42.104C151.716 41.9213 151.576 41.6556 151.502 41.3464L146.704 22.2374L141.764 41.3464C141.555 42.084 141.188 42.3605 140.717 42.3605H138.412C137.941 42.3605 137.578 42.084 137.395 41.3464L132.559 22.2374L127.736 41.3464C127.573 42.0409 127.161 42.3605 126.69 42.3605H124.172C123.588 42.3605 123.367 41.666 123.542 40.9715L130.12 15.6916C130.308 14.954 130.675 14.6098 131.146 14.6098H133.981C134.456 14.6098 134.794 14.954 134.981 15.6916L139.613 34.1613L144.298 15.6916C144.498 14.954 144.865 14.6098 145.336 14.6098H148.117C148.588 14.6098 148.955 14.954 149.134 15.6916L153.782 34.1613L158.409 15.6916C158.618 14.954 158.955 14.6098 159.426 14.6098H162.236C162.69 14.6098 163.045 14.954 163.249 15.6916L167.968 34.1613L172.558 15.6916C172.766 14.954 173.116 14.6098 173.587 14.6098H176.422C176.897 14.6098 177.235 14.954 177.443 15.6916L184.001 40.9715ZM75.2354 14.6098H72.8968C72.4382 14.6098 71.9797 15.1814 71.9797 15.9374V18.2546C70.8208 15.6363 68.5238 13.8169 65.835 13.8169C60.7367 13.8169 56.3221 19.7789 56.3221 28.4514C56.3221 37.2529 60.7367 43.1473 65.7892 43.1473C68.5238 43.1473 70.7749 41.2849 71.9839 38.6604V41.119C71.9839 41.8074 72.4382 42.3667 72.8968 42.3667H75.2313C75.3435 42.3683 75.4547 42.337 75.5586 42.2747C75.6626 42.2123 75.757 42.1201 75.8365 42.0035C75.9161 41.8868 75.9791 41.748 76.0219 41.5951C76.0647 41.4422 76.0864 41.2782 76.0859 41.1128V15.9374C76.0859 15.1814 75.7065 14.6098 75.2354 14.6098ZM66.2602 37.5725C62.8794 37.5725 60.4824 33.5405 60.4824 28.5128C60.4824 23.4237 62.8794 19.4777 66.2602 19.4777C69.5952 19.4777 72.0422 23.4237 72.0422 28.5128C72.0422 33.5405 69.5994 37.5725 66.2602 37.5725ZM102.882 38.4453C103.395 39.3796 102.966 40.0741 102.707 40.3507C101.081 42.1516 98.9553 43.1473 96.6333 43.1473C90.7888 43.1473 86.8953 36.8165 86.8953 28.5128C86.8953 20.1723 90.7888 13.8169 96.6333 13.8169C98.9553 13.8169 101.086 14.7635 102.707 16.5705C102.97 16.8471 103.349 17.474 102.882 18.4759L101.782 20.7254C101.348 21.6166 100.84 21.4015 100.406 20.9713C99.3239 19.92 98.0624 19.3405 96.7667 19.2995C93.3234 19.2995 91.0556 23.3561 91.0556 28.5128C91.0556 33.6266 93.3234 37.6402 96.7667 37.6402C98.1591 37.6402 99.3055 36.8227 100.339 35.9499C100.765 35.6242 101.244 35.323 101.715 36.2572L102.882 38.4453ZM113.808 13.86C112.502 13.8434 111.207 14.2116 109.998 14.9429C108.79 15.6742 107.692 16.7539 106.771 18.1187C105.849 19.4834 105.121 21.1058 104.63 22.8907C104.139 24.6756 103.895 26.587 103.912 28.5128C103.895 30.4381 104.139 32.349 104.629 34.1332C105.12 35.9175 105.848 37.539 106.77 38.9025C107.692 40.266 108.79 41.3439 109.999 42.0728C111.207 42.8018 112.503 43.1671 113.808 43.1473C115.115 43.1696 116.412 42.8061 117.622 42.0782C118.832 41.3504 119.931 40.2729 120.855 38.9091C121.778 37.5454 122.507 35.923 122.999 34.1376C123.49 32.3521 123.735 30.4397 123.717 28.5128C123.733 26.5856 123.488 24.6731 122.997 22.8874C122.505 21.1016 121.776 19.4788 120.853 18.1139C119.93 16.7491 118.831 15.6697 117.622 14.9392C116.412 14.2087 115.116 13.8418 113.808 13.86ZM113.808 37.5172C110.436 37.5172 108.031 33.5405 108.031 28.5128C108.031 23.4237 110.436 19.4777 113.808 19.4777C117.206 19.4777 119.59 23.4237 119.59 28.5128C119.59 33.5405 117.206 37.5172 113.808 37.5172ZM83.3561 1.43821C83.4717 1.43981 83.586 1.47519 83.6924 1.54231C83.7987 1.60943 83.895 1.70697 83.9756 1.82927C84.0563 1.95158 84.1196 2.09623 84.1621 2.25488C84.2046 2.41352 84.2253 2.583 84.2231 2.75353V41.0452C84.2259 41.2163 84.2056 41.3864 84.1634 41.5458C84.1211 41.7051 84.0578 41.8505 83.9771 41.9735C83.8965 42.0964 83.8 42.1945 83.6934 42.262C83.5868 42.3295 83.4721 42.3651 83.3561 42.3667H81.0299C80.7949 42.3545 80.5717 42.2113 80.4054 41.9661C80.239 41.7209 80.1419 41.3918 80.1337 41.0452V2.75353C80.1337 2.05899 80.5589 1.43207 81.0299 1.43207L83.3561 1.43821Z" fill="#3051DC"/>
</g>
<defs>
<filter id="filter0_d_1009_648" x="0.205078" y="0" width="188" height="58" filterUnits="userSpaceOnUse" color-interpolation-filters="sRGB">
<feFlood flood-opacity="0" result="BackgroundImageFix"/>
<feColorMatrix in="SourceAlpha" type="matrix" values="0 0 0 0 0 0 0 0 0 0 0 0 0 0 0 0 0 0 127 0" result="hardAlpha"/>
<feOffset dy="4"/>
<feGaussianBlur stdDeviation="2"/>
<feComposite in2="hardAlpha" operator="out"/>
<feColorMatrix type="matrix" values="0 0 0 0 0 0 0 0 0 0 0 0 0 0 0 0 0 0 0.25 0"/>
<feBlend mode="normal" in2="BackgroundImageFix" result="effect1_dropShadow_1009_648"/>
<feBlend mode="normal" in="SourceGraphic" in2="effect1_dropShadow_1009_648" result="shape"/>
</filter>
<clipPath id="clip0_1009_648">
<rect width="180" height="50" fill="white" transform="translate(4.20508)"/>
</clipPath>
</defs>
</svg>
