<svg width="101" height="100" viewBox="0 0 101 100" fill="none" xmlns="http://www.w3.org/2000/svg">
<g clip-path="url(#clip0_1009_668)">
<path d="M92.6843 77.1789C90.7565 76.7356 88.712 76.4594 86.6433 76.4594C83.1077 76.4594 79.8909 77.0711 77.5159 78.0578C77.3826 78.1239 77.2701 78.2256 77.1911 78.3518C77.1121 78.4779 77.0695 78.6234 77.0683 78.7723C77.0683 78.8844 77.0972 79.0012 77.1409 79.0961C77.421 79.9106 76.9593 80.7934 74.6632 81.2988C71.2577 82.0461 69.1077 85.5594 67.8761 86.7277C66.4315 88.0988 62.3526 88.9422 62.9659 88.125C63.446 87.4856 65.2827 85.4906 66.3999 83.3344C67.3987 81.4078 68.2882 80.8605 69.5132 79.0223C69.8737 78.4828 71.2671 76.5895 71.6722 75.0906C72.1276 73.6277 71.9737 71.7934 72.1487 71.0383C72.3987 69.9488 73.4276 67.5828 73.5054 66.2488C73.5499 65.4922 70.3526 67.325 68.8354 67.325C67.3183 67.325 65.8394 66.4184 64.4843 66.3512C62.8065 66.2723 61.7288 67.6449 60.2104 67.4051C59.3433 67.2684 58.6144 66.5051 57.0987 66.4473C54.9421 66.3684 52.3065 67.6449 47.3577 67.4867C42.4882 67.3289 37.9909 61.3344 37.3761 60.3816C36.6577 59.2617 35.7788 59.2617 34.821 60.1395C33.8632 61.0172 32.6827 60.3289 32.346 59.7406C31.7077 58.6223 29.9999 55.3551 27.3554 54.6711C23.6987 53.7238 21.846 56.6961 22.0866 59.0617C22.3304 61.4633 23.8827 62.1356 24.6026 63.4117C25.3198 64.6895 25.6882 65.5145 27.0394 66.0801C27.9987 66.4777 28.3554 67.0699 28.0698 67.8566C27.8198 68.5422 26.8222 68.6988 26.1671 68.7301C24.7737 68.7961 23.7972 68.4184 23.0843 67.9633C22.2565 67.4367 21.5827 66.7027 20.8593 65.4566C20.0222 64.0828 18.7054 63.4844 17.1698 63.4844C16.4382 63.4844 15.7538 63.6777 15.146 63.9906C12.7409 65.2406 9.87646 65.9828 6.79326 65.9828L3.31709 65.9844C1.62373 60.9656 0.706543 55.5906 0.706543 50.0012C0.706543 22.3856 23.0933 0 50.7077 0C78.3222 0 100.707 22.3856 100.707 50.0012C100.707 60.0211 97.7593 69.3539 92.6843 77.1789Z" fill="black"/>
<path d="M92.6841 77.1783C90.7563 76.7349 88.7118 76.4556 86.6431 76.4556C83.1075 76.4556 79.8907 77.0689 77.5157 78.0572C77.3822 78.1231 77.2697 78.2248 77.1907 78.351C77.1116 78.4771 77.0692 78.6228 77.0681 78.7716C77.0681 78.8849 77.097 79.0005 77.1407 79.0966C77.4208 79.9099 76.9591 80.7911 74.663 81.2966C71.2575 82.0454 69.1075 85.5583 67.8759 86.7244C66.4313 88.0978 62.3524 88.9412 62.9657 88.1228C63.4458 87.4849 65.2825 85.49 66.3997 83.3349C67.3985 81.4083 68.288 80.8583 69.513 79.0216C69.8735 78.4833 71.2669 76.5888 71.672 75.09C72.1274 73.6283 71.9735 71.7927 72.1485 71.0372C72.3985 69.9466 73.4274 67.5822 73.5052 66.2455C73.5497 65.4912 70.3524 67.3244 68.8353 67.3244C67.3181 67.3244 65.8392 66.4162 64.4841 66.3505C62.8063 66.2716 61.7286 67.6439 60.2103 67.4056C59.3431 67.2662 58.6142 66.5017 57.0985 66.4454C54.9419 66.3677 52.3064 67.6439 47.3575 67.4849C42.488 67.3267 37.9907 61.3322 37.3759 60.3783C36.6575 59.2611 35.7786 59.2611 34.8208 60.1388C33.863 61.0161 32.6825 60.3267 32.3458 59.7372C31.7075 58.6216 29.9997 55.3544 27.3552 54.6689C23.6985 53.7216 21.8458 56.6951 22.0864 59.0611C22.3302 61.4622 23.8825 62.1349 24.6024 63.4111C25.3196 64.6888 25.688 65.5122 27.0392 66.0767C27.9985 66.4767 28.3552 67.0677 28.0696 67.856C27.8196 68.54 26.822 68.6966 26.1669 68.7283C24.7735 68.7954 23.797 68.4161 23.0841 67.9638C22.2563 67.4333 21.5825 66.7017 20.8591 65.4544C20.022 64.0806 18.7052 63.4794 17.1696 63.4794C16.438 63.4794 15.7536 63.6755 15.1458 63.9872C12.7407 65.2412 9.87627 65.9822 6.79307 65.9822L3.31689 65.9833C9.98252 85.7599 28.6825 100.001 50.7075 100.001C68.3009 100.001 83.772 90.915 92.6841 77.1783Z" fill="white"/>
<path d="M61.7197 72.5927C61.9759 72.8439 62.4197 73.6876 61.8775 74.7587C61.5736 75.3255 61.247 75.7255 60.6618 76.1927C59.9591 76.756 58.5841 77.4071 56.6986 76.2111C55.6841 75.5677 55.6236 75.3521 54.2236 75.5337C53.2236 75.6638 52.8259 74.6544 53.1853 73.815C53.5446 72.9782 55.022 72.3005 56.8591 73.3771C57.6841 73.8626 58.9736 74.8861 60.1013 73.9794C60.5681 73.6044 60.8486 73.3544 61.497 72.6044C61.5258 72.5748 61.5647 72.5571 61.606 72.5549C61.6473 72.5527 61.6879 72.5662 61.7197 72.5927Z" fill="black"/>
<path d="M78.9222 36.6982C78.4288 38.3587 77.7265 40.4837 74.5999 42.0892C74.1448 42.3208 73.971 41.9392 74.1815 41.5798C75.3616 39.5704 75.5722 39.0681 75.9159 38.2747C76.396 37.1165 76.6472 35.4681 75.6921 32.0286C73.812 25.2614 69.8882 16.2165 67.0382 13.2825C64.2854 10.4509 59.2999 9.65364 54.7933 10.8103C53.1343 11.2364 49.8866 12.9247 43.8644 11.5681C33.4433 9.22043 31.8987 14.4392 31.3015 16.7126C30.7026 18.9864 29.2671 25.4482 29.2671 25.4482C28.7882 28.0786 28.1616 32.6548 44.3433 35.7364C51.8815 37.1732 52.2659 39.1204 52.5987 40.5232C53.1972 43.0353 54.1538 44.472 55.2304 45.1892C56.3077 45.9075 55.2304 46.5021 54.0355 46.6247C50.8249 46.9575 38.9593 43.5548 31.9394 39.5665C26.196 36.056 26.0987 32.8954 27.4132 30.2142C18.7382 29.2759 12.2276 31.0286 11.0472 35.1353C9.021 42.1837 26.5448 54.2232 46.4972 60.2642C67.4366 66.6048 88.9722 62.1786 91.3659 49.0181C92.4538 43.0376 87.4171 38.6142 78.9222 36.6982ZM46.8171 23.8103C41.0409 24.2286 40.4409 24.8521 39.3593 26.0036C37.8343 27.6286 35.8249 23.8958 35.8249 23.8958C34.6183 23.6415 33.1565 21.6982 33.946 19.8825C34.7222 18.0864 36.1577 18.6259 36.6077 19.1853C37.1554 19.8654 38.3222 20.9786 39.8382 20.9392C41.3538 20.8982 43.1026 20.5798 45.5421 20.5798C48.0132 20.5798 49.6749 21.5021 49.7683 22.2954C49.8487 22.972 49.5683 23.6114 46.8171 23.8103ZM52.8843 14.2665C52.8755 14.2682 52.8666 14.2691 52.8577 14.2693C52.7683 14.2693 52.696 14.1997 52.696 14.1165C52.696 14.0564 52.7327 14.0036 52.787 13.9798C53.9065 13.3876 55.5776 12.9181 57.4894 12.7232C58.0455 12.6658 58.6041 12.6342 59.1632 12.6286C59.2577 12.6286 59.3526 12.6298 59.4487 12.631C62.6538 12.7036 65.2198 13.9771 65.1815 15.4759C65.1433 16.9747 62.5159 18.131 59.3105 18.0587C58.2722 18.0353 57.2987 17.8853 56.4604 17.6431C56.4126 17.632 56.3698 17.6053 56.3388 17.5671C56.3078 17.529 56.2904 17.4817 56.2894 17.4325C56.2904 17.3831 56.3082 17.3356 56.3398 17.2975C56.3713 17.2595 56.4148 17.2333 56.4632 17.2232C58.4632 16.7603 59.8116 16.0036 59.7171 15.2892C59.5909 14.3431 56.9749 13.8271 53.8749 14.1392C53.5354 14.1732 53.2038 14.2165 52.8843 14.2665Z" fill="#CC0000"/>
</g>
<defs>
<clipPath id="clip0_1009_668">
<rect width="100" height="100" fill="white" transform="translate(0.706543)"/>
</clipPath>
</defs>
</svg>
