<svg width="231" height="85" viewBox="0 0 231 85" fill="none" xmlns="http://www.w3.org/2000/svg">
<g clip-path="url(#clip0_1017_693)">
<path d="M105.15 56.6568H101.365C101.026 56.6568 100.899 56.253 100.746 55.8611L96.2809 46.1888H95.5955C94.7864 46.1888 92.2808 46.0754 91.568 46.0247V55.8611C91.568 56.2967 91.3175 56.6568 90.9753 56.6568H87.8762C87.7125 56.6555 87.5557 56.5713 87.44 56.4223C87.3242 56.2734 87.2588 56.0717 87.2578 55.8611V29.72C87.2578 28.9196 87.6248 28.641 88.2486 28.5229C89.8633 28.203 93.3285 28.0059 95.5946 28.0059C100.367 28.0059 104.776 30.2005 104.776 37.0206V37.3807C104.776 41.6047 103.134 43.9162 100.593 45.1853L105.456 55.8611C105.52 55.9815 105.52 56.0936 105.52 56.1834C105.521 56.4537 105.398 56.6568 105.15 56.6568ZM100.499 37.0206C100.499 34.0291 98.6956 32.7541 95.5955 32.7541C94.9423 32.7541 92.1221 32.8332 91.568 32.9111V41.5622C92.0588 41.6011 95.0625 41.6826 95.5955 41.6826C98.7846 41.6826 100.499 40.8893 100.499 37.3807V37.0206ZM113.786 48.799C113.786 52.1447 113.886 52.232 116.23 52.232H124.077C124.241 52.2327 124.399 52.3169 124.515 52.4663C124.632 52.6158 124.698 52.8184 124.699 53.0301V55.5777C124.699 56.1409 124.543 56.3404 124.077 56.4171C123.086 56.6178 121.067 56.9732 117.38 56.9732C112.235 56.9732 109.505 57.0192 109.505 48.799V36.1788C109.505 27.961 112.235 28.007 117.38 28.007C121.067 28.007 123.086 28.3671 124.077 28.5643C124.543 28.641 124.699 28.8441 124.699 29.4036V31.9525C124.699 32.3881 124.419 32.7552 124.077 32.7552H116.23C113.886 32.7552 113.786 32.8438 113.786 36.1788V39.8386H123.706C123.87 39.8395 124.027 39.9232 124.143 40.0716C124.259 40.22 124.325 40.4212 124.327 40.6319V43.5113C124.326 43.7225 124.26 43.9244 124.144 44.0735C124.027 44.2226 123.87 44.3069 123.706 44.3082H113.786V48.799ZM138.616 56.9732C133.63 56.9732 129.334 54.1835 129.334 45.6823V29.0837C129.334 28.641 129.617 28.3234 129.958 28.3234H133.021C133.365 28.3234 133.642 28.641 133.642 29.0837V45.6823C133.642 50.2322 135.276 52.3902 138.617 52.3902C141.968 52.3902 143.601 50.2322 143.601 45.6823V29.0837C143.601 28.641 143.878 28.3234 144.218 28.3234H147.286C147.63 28.3234 147.91 28.641 147.91 29.0837V45.6823C147.908 54.1823 143.61 56.9732 138.616 56.9732ZM168.29 32.9477H162.107V55.8611C162.104 56.0731 162.037 56.2753 161.919 56.4241C161.802 56.5729 161.644 56.6565 161.479 56.6568H158.411C158.247 56.6558 158.09 56.5718 157.974 56.4229C157.857 56.274 157.791 56.0721 157.79 55.8611V32.9477H151.602C151.265 32.9477 150.985 32.6738 150.985 32.2346V29.0837C150.985 28.641 151.265 28.3234 151.602 28.3234H168.289C168.624 28.3234 168.904 28.641 168.904 29.0837V32.2346C168.905 32.6738 168.626 32.9477 168.29 32.9477ZM210.385 56.6568H206.601C206.26 56.6568 206.138 56.253 205.984 55.8611L201.517 46.1888H200.826C200.025 46.1888 197.516 46.0754 196.799 46.0247V55.8611C196.799 56.2967 196.553 56.6568 196.214 56.6568H193.118C192.954 56.6565 192.796 56.5727 192.68 56.4237C192.563 56.2746 192.497 56.0724 192.496 55.8611V29.72C192.496 28.9196 192.863 28.641 193.485 28.5229C195.096 28.203 198.567 28.0059 200.825 28.0059C205.602 28.0059 210.008 30.2005 210.008 37.0206V37.3807C210.008 41.6047 208.363 43.9162 205.823 45.1853L210.695 55.8611C210.743 55.9571 210.764 56.0701 210.758 56.1834C210.758 56.4537 210.631 56.6568 210.385 56.6568ZM205.736 37.0206C205.736 34.0291 203.931 32.7541 200.826 32.7541C200.179 32.7541 197.358 32.8332 196.799 32.9111V41.5622C197.301 41.6011 200.307 41.6826 200.826 41.6826C204.024 41.6826 205.736 40.8893 205.736 37.3807V37.0206ZM222.216 56.9909C219.476 56.9909 216.7 56.3864 215.209 55.9461C214.903 55.8658 214.621 55.5884 214.621 55.1504V52.2769C214.621 51.8413 214.903 51.5178 215.209 51.5178H215.27C216.513 51.7185 219.415 52.2368 222.28 52.2368C225.036 52.2368 225.88 50.9665 225.88 48.6561C225.88 45.6634 220.33 44.0071 217.621 42.5716C214.925 41.136 213.97 38.3877 213.97 35.5992C213.97 31.2087 216.715 28.0177 222.479 28.0177C225.434 28.0177 228.14 28.7402 229.193 29.066C229.505 29.1463 229.748 29.4261 229.748 29.8227V32.7741C229.748 33.1684 229.537 33.4907 229.221 33.4907H229.163C227.115 33.2534 224.993 32.7682 222.298 32.7682C220.001 32.7682 218.283 33.8047 218.283 35.5992C218.283 36.912 219.448 38.1173 220.824 38.8209C222.2 39.5186 224.005 40.4218 226.067 41.489C228.678 42.8478 230.371 44.8276 230.371 48.6561C230.37 52.6818 228.419 56.9909 222.216 56.9909ZM176.374 48.799C176.374 52.1447 176.47 52.232 178.82 52.232H186.672C186.835 52.2351 186.991 52.3204 187.106 52.4696C187.221 52.6188 187.286 52.82 187.287 53.0301V55.5777C187.287 56.1409 187.131 56.3404 186.672 56.4171C185.674 56.6178 183.658 56.9732 179.972 56.9732C174.817 56.9732 172.093 57.0192 172.093 48.799V36.1788C172.093 27.961 174.817 28.007 179.972 28.007C183.658 28.007 185.674 28.3671 186.672 28.5643C187.131 28.641 187.287 28.8441 187.287 29.4036V31.9525C187.287 32.3881 187.005 32.7552 186.672 32.7552H178.82C176.47 32.7552 176.374 32.8438 176.374 36.1788V39.8386H186.295C186.639 39.8386 186.91 40.201 186.91 40.6319V43.5113C186.91 43.7218 186.846 43.924 186.73 44.0734C186.615 44.2228 186.459 44.3072 186.295 44.3082H176.374V48.799Z" fill="#666666"/>
<path d="M31.9527 30.0569C32.3105 30.9151 32.0674 31.9918 31.3977 32.457C31.0746 32.6801 30.696 32.729 30.3449 32.5931C29.9938 32.4572 29.699 32.1475 29.5252 31.7321C29.1582 30.875 29.4114 29.796 30.0793 29.3332C30.2391 29.2216 30.4145 29.1517 30.5953 29.1277C30.7762 29.1036 30.959 29.1259 31.1331 29.1931C31.3073 29.2604 31.4693 29.3714 31.61 29.5196C31.7507 29.6679 31.8672 29.8505 31.9527 30.0569ZM25.137 43.9426C24.9489 44.0771 24.8095 44.3014 24.7487 44.5671C24.6879 44.8328 24.7108 45.1186 24.8123 45.3628C24.8624 45.4837 24.9308 45.5905 25.0134 45.6769C25.0961 45.7633 25.1914 45.8275 25.2936 45.8658C25.3959 45.9041 25.503 45.9156 25.6088 45.8998C25.7146 45.884 25.8168 45.8411 25.9095 45.7736C26.0045 45.7108 26.0886 45.6239 26.1569 45.5183C26.2252 45.4128 26.2763 45.2905 26.3071 45.159C26.3379 45.0275 26.3478 44.8893 26.3363 44.7527C26.3247 44.6161 26.2919 44.484 26.2398 44.364C26.1362 44.121 25.9623 43.9404 25.7558 43.8614C25.5493 43.7825 25.3269 43.8117 25.137 43.9426ZM24.9994 39.6737C24.7812 39.8277 24.6189 40.0863 24.548 40.3933C24.477 40.7004 24.5031 41.031 24.6205 41.3135C24.8747 41.9132 25.4453 42.1292 25.9068 41.8129C26.3628 41.4917 26.5371 40.7421 26.2903 40.1601C26.2309 40.0183 26.1503 39.8931 26.0531 39.7918C25.9559 39.6904 25.8439 39.615 25.7239 39.5697C25.6038 39.5245 25.4779 39.5103 25.3535 39.5282C25.2292 39.546 25.1088 39.5955 24.9994 39.6737ZM25.86 35.5654C25.6084 35.7417 25.4208 36.0381 25.3376 36.3908C25.2544 36.7435 25.2822 37.1242 25.415 37.4507C25.704 38.1224 26.36 38.3822 26.8829 38.015C27.0086 37.9286 27.1197 37.8112 27.21 37.6694C27.3003 37.5277 27.368 37.3644 27.4092 37.1889C27.4503 37.0134 27.4642 36.8292 27.4499 36.6469C27.4357 36.4645 27.3936 36.2875 27.3261 36.1261C27.1878 35.8037 26.9566 35.5642 26.6823 35.4593C26.408 35.3544 26.1126 35.3925 25.86 35.5654ZM27.616 32.0119C27.4738 32.1089 27.348 32.2413 27.2459 32.4013C27.1438 32.5614 27.0675 32.746 27.0213 32.9444C26.9751 33.1427 26.96 33.3509 26.9769 33.5569C26.9938 33.7628 27.0423 33.9624 27.1196 34.144C27.4408 34.8983 28.1692 35.1852 28.76 34.7732C28.9018 34.6775 29.0273 34.5466 29.1294 34.3879C29.2316 34.2293 29.3082 34.0462 29.3548 33.8492C29.4015 33.6522 29.4174 33.4452 29.4014 33.2402C29.3854 33.0353 29.338 32.8365 29.2619 32.6553C29.1871 32.4734 29.085 32.3124 28.9617 32.1816C28.8383 32.0507 28.696 31.9525 28.543 31.8927C28.39 31.8329 28.2294 31.8126 28.0702 31.8331C27.9111 31.8535 27.7568 31.9143 27.616 32.0119ZM26.2719 47.9848C26.1931 48.0394 26.1235 48.1134 26.067 48.2027C26.0105 48.2921 25.9683 48.3949 25.9428 48.5052C25.9174 48.6156 25.9091 48.7314 25.9185 48.8459C25.9279 48.9604 25.9548 49.0714 25.9976 49.1724C26.0848 49.3745 26.23 49.5247 26.4021 49.5908C26.5742 49.657 26.7596 49.634 26.9187 49.5266C27.0756 49.4129 27.1916 49.2247 27.2419 49.0022C27.2921 48.7797 27.2726 48.5408 27.1875 48.3366C27.1012 48.1352 26.9569 47.9855 26.7857 47.9197C26.6144 47.8539 26.4299 47.8773 26.2719 47.9848ZM41.9547 33.4474C42.0595 33.6905 42.2337 33.8715 42.4405 33.9519C42.6472 34.0324 42.8702 34.006 43.0621 33.8783C43.2511 33.7434 43.3915 33.5185 43.4531 33.2518C43.5147 32.9852 43.4925 32.6981 43.3914 32.4522C43.3411 32.3313 43.2727 32.2243 43.1901 32.1375C43.1075 32.0508 43.0123 31.9859 42.9102 31.9467C42.808 31.9076 42.7008 31.8948 42.5947 31.9092C42.4887 31.9237 42.3859 31.965 42.2923 32.0308C42.1978 32.0952 42.1141 32.183 42.046 32.2891C41.9779 32.3952 41.9267 32.5175 41.8953 32.6491C41.864 32.7806 41.8531 32.9189 41.8633 33.0559C41.8735 33.1928 41.9045 33.3259 41.9547 33.4474ZM39.1996 31.1914C39.4483 31.784 40.0336 32.0001 40.4795 31.6778C40.9501 31.3567 41.118 30.62 40.8666 30.0297C40.7483 29.7465 40.5478 29.5349 40.3087 29.4411C40.0696 29.3473 39.8115 29.379 39.5905 29.5292C39.3689 29.6849 39.2038 29.9464 39.1307 30.2574C39.0576 30.5683 39.0823 30.9037 39.1996 31.1914ZM36.0161 30.0935C36.0825 30.2539 36.173 30.3958 36.2823 30.5109C36.3916 30.626 36.5176 30.712 36.653 30.7639C36.7883 30.8159 36.9303 30.8327 37.0708 30.8135C37.2113 30.7942 37.3473 30.7393 37.4712 30.6519C37.5969 30.5661 37.7081 30.4491 37.7986 30.3078C37.8891 30.1664 37.9569 30.0035 37.9983 29.8282C38.0396 29.653 38.0536 29.4691 38.0395 29.2868C38.0254 29.1046 37.9835 28.9278 37.9161 28.7665C37.8492 28.6054 37.7581 28.4629 37.648 28.3475C37.5379 28.2321 37.4111 28.146 37.2749 28.0943C37.1388 28.0425 36.9959 28.0262 36.8548 28.0461C36.7137 28.0661 36.577 28.1219 36.4528 28.2105C36.3279 28.297 36.2174 28.4144 36.1278 28.5559C36.0382 28.6975 35.9712 28.8604 35.9307 29.0353C35.8901 29.2103 35.8768 29.3938 35.8914 29.5754C35.9061 29.7569 35.9485 29.933 36.0161 30.0935ZM32.6922 30.2623C32.7677 30.4443 32.8704 30.6054 32.9944 30.7363C33.1183 30.8672 33.2611 30.9654 33.4145 31.0253C33.568 31.0851 33.7291 31.1055 33.8887 31.0852C34.0483 31.0649 34.2032 31.0043 34.3445 30.9069C34.6275 30.7059 34.8375 30.3696 34.9292 29.9708C35.0209 29.572 34.9869 29.1427 34.8344 28.776C34.6759 28.4235 34.4169 28.1643 34.1123 28.0534C33.8077 27.9424 33.4816 27.9885 33.203 28.1818C32.9243 28.3751 32.7152 28.7005 32.6199 29.0888C32.5245 29.4772 32.5505 29.8981 32.6922 30.2623ZM44.0245 36.6432C44.1988 37.067 44.6116 37.2205 44.9309 36.9938C45.0095 36.9413 45.0791 36.8692 45.1357 36.7816C45.1923 36.6939 45.2347 36.5927 45.2604 36.4837C45.2861 36.3747 45.2946 36.2602 45.2855 36.1469C45.2763 36.0336 45.2497 35.9238 45.2071 35.8239C45.1224 35.6191 44.9785 35.4655 44.8065 35.3961C44.6345 35.3267 44.4481 35.3472 44.2878 35.4532C43.9731 35.6881 43.8419 36.2288 44.0245 36.6432ZM41.685 53.2513C41.5998 53.0437 41.4834 52.8601 41.3424 52.7111C41.2015 52.5622 41.0389 52.4508 40.8642 52.3835C40.6894 52.3163 40.506 52.2945 40.3247 52.3194C40.1433 52.3444 39.9677 52.4155 39.8079 52.5288C39.6482 52.6385 39.5069 52.788 39.3925 52.9685C39.278 53.1491 39.1926 53.3571 39.1411 53.5805C39.0896 53.8039 39.0732 54.0383 39.0927 54.2699C39.1122 54.5016 39.1672 54.726 39.2547 54.93C39.618 55.7895 40.4565 56.1035 41.1281 55.6502C41.7951 55.1756 42.0437 54.093 41.685 53.2513ZM29.2481 51.53C29.1446 51.2891 28.9717 51.1101 28.7667 51.0315C28.5617 50.9529 28.3409 50.981 28.1518 51.1097C28.0581 51.1743 27.9752 51.262 27.9079 51.3678C27.8406 51.4737 27.7902 51.5956 27.7596 51.7265C27.729 51.8575 27.7188 51.9949 27.7296 52.131C27.7404 52.267 27.7719 52.399 27.8224 52.5193C27.8718 52.6409 27.9398 52.7485 28.0221 52.8357C28.1045 52.9229 28.1996 52.9879 28.3018 53.0269C28.4041 53.0658 28.5114 53.078 28.6174 53.0626C28.7233 53.0472 28.8258 53.0046 28.9188 52.9372C29.0123 52.8728 29.095 52.7853 29.1622 52.6796C29.2295 52.574 29.2798 52.4523 29.3104 52.3216C29.341 52.1909 29.3512 52.0536 29.3405 51.9178C29.3299 51.782 29.2985 51.6502 29.2481 51.53ZM32.0069 53.7872C31.887 53.5047 31.685 53.2948 31.4452 53.2034C31.2053 53.1121 30.9471 53.1467 30.727 53.2997C30.6167 53.3741 30.5191 53.4762 30.4399 53.5999C30.3608 53.7236 30.3016 53.8664 30.266 54.02C30.2303 54.1736 30.2189 54.3347 30.2324 54.4941C30.2459 54.6534 30.284 54.8076 30.3445 54.9477C30.583 55.5415 31.1619 55.7682 31.6206 55.4495C31.8412 55.2925 32.0052 55.0305 32.0774 54.7198C32.1496 54.409 32.1243 54.0742 32.0069 53.7872ZM35.1977 54.8852C34.9198 54.2111 34.2564 53.9714 33.7243 54.3208C33.4734 54.4985 33.2869 54.7962 33.2051 55.1495C33.1234 55.5027 33.153 55.8832 33.2876 56.2086C33.5757 56.8897 34.2317 57.1412 34.7565 56.7776C34.8829 56.6918 34.9948 56.5745 35.0857 56.4325C35.1765 56.2905 35.2445 56.1266 35.2855 55.9505C35.3266 55.7743 35.34 55.5893 35.3249 55.4064C35.3099 55.2235 35.2666 55.0463 35.1977 54.8852ZM38.5171 54.714C38.3625 54.3486 38.102 54.0768 37.7922 53.9578C37.4825 53.8388 37.1487 53.8823 36.8638 54.0788C36.2693 54.4838 36.0629 55.4317 36.3858 56.2026C36.4598 56.3843 36.5613 56.5449 36.6844 56.6752C36.8074 56.8055 36.9495 56.9027 37.1023 56.9612C37.255 57.0196 37.4153 57.0381 37.5737 57.0155C37.7321 56.9928 37.8853 56.9296 38.0244 56.8295C38.6207 56.4281 38.8327 55.4707 38.5171 54.714ZM46.0585 41.0502C46.4575 40.7551 46.6098 40.1176 46.4016 39.6182C46.3509 39.4978 46.2823 39.3914 46.1997 39.3052C46.1171 39.2189 46.0221 39.1544 45.9201 39.1154C45.8182 39.0764 45.7112 39.0636 45.6054 39.0777C45.4996 39.0919 45.3969 39.1327 45.3034 39.1979C45.2082 39.2618 45.124 39.3495 45.0555 39.4559C44.9871 39.5622 44.9359 39.6852 44.905 39.8174C44.874 39.9496 44.864 40.0885 44.8753 40.2258C44.8867 40.3631 44.9194 40.4961 44.9713 40.617C45.0724 40.8579 45.2428 41.0383 45.4461 41.1193C45.6494 41.2003 45.8692 41.1755 46.0585 41.0502ZM46.2107 45.312C46.6713 44.9897 46.8364 44.2495 46.586 43.6616C46.5276 43.521 46.4481 43.3966 46.3522 43.2957C46.2563 43.1947 46.1458 43.1191 46.0272 43.0733C45.9085 43.0274 45.7839 43.0122 45.6607 43.0285C45.5374 43.0447 45.4179 43.0922 45.3089 43.1681C45.0883 43.3245 44.9241 43.5858 44.8514 43.896C44.7787 44.2062 44.8033 44.5408 44.9199 44.828C45.1639 45.41 45.7566 45.6249 46.2107 45.312ZM45.3438 49.4168C45.8814 49.0449 46.0685 48.2091 45.7942 47.5256C45.6571 47.2007 45.4257 46.9589 45.1505 46.8529C44.8752 46.747 44.5786 46.7855 44.3254 46.9601C44.0725 47.1375 43.8842 47.4361 43.8014 47.7911C43.7186 48.1461 43.748 48.5288 43.8832 48.8561C44.0205 49.1777 44.2508 49.4169 44.5241 49.5219C44.7974 49.6268 45.0919 49.5891 45.3438 49.4168ZM43.5997 52.9549C44.1905 52.5606 44.4089 51.5938 44.0887 50.8394C43.7639 50.0815 43.03 49.7875 42.4419 50.2054C42.3012 50.3032 42.1769 50.4356 42.0761 50.5952C41.9752 50.7548 41.8998 50.9385 41.8541 51.1356C41.8085 51.3327 41.7934 51.5395 41.8099 51.7441C41.8264 51.9487 41.874 52.1472 41.9501 52.3281C42.0254 52.5099 42.1281 52.6707 42.2521 52.8009C42.3762 52.9312 42.5192 53.0283 42.6727 53.0867C42.8263 53.145 42.9874 53.1634 43.1465 53.1408C43.3057 53.1182 43.4597 53.055 43.5997 52.9549Z" fill="url(#paint0_linear_1017_693)"/>
<path d="M41.2629 25.8173C41.1971 26.1042 41.0879 26.3715 40.9416 26.604C40.7953 26.8364 40.6147 27.0294 40.4103 27.1719C40.2059 27.3144 39.9817 27.4035 39.7505 27.4342C39.5192 27.4649 39.2856 27.4366 39.0629 27.3509C38.8386 27.2675 38.6294 27.1278 38.4473 26.9399C38.2652 26.7519 38.1139 26.5193 38.0021 26.2557C37.8902 25.992 37.8201 25.7024 37.7957 25.4037C37.7714 25.105 37.7933 24.803 37.8601 24.5152C37.9943 23.9345 38.3023 23.4463 38.7162 23.1578C38.9212 23.0149 39.146 22.9254 39.3779 22.8944C39.6097 22.8634 39.844 22.8914 40.0675 22.9769C40.2909 23.0624 40.4991 23.2037 40.6801 23.3927C40.8611 23.5817 41.0114 23.8148 41.1224 24.0785C41.2334 24.3423 41.3029 24.6316 41.327 24.9299C41.3511 25.2283 41.3294 25.5298 41.2629 25.8173ZM24.2507 31.2089C24.0269 31.1288 23.7876 31.1644 23.584 31.3083C23.3803 31.4521 23.2285 31.6927 23.1608 31.9786C23.1048 32.2617 23.1364 32.5617 23.2489 32.8154C23.3614 33.0691 23.546 33.2567 23.7639 33.3388C23.9817 33.4208 24.2158 33.3908 24.4169 33.2551C24.6179 33.1195 24.7702 32.8887 24.8416 32.6114C24.9865 32.0176 24.7113 31.3931 24.2507 31.2089ZM27.3288 26.8527C27.1926 26.801 27.0498 26.7845 26.9086 26.8041C26.7674 26.8238 26.6307 26.8791 26.5062 26.967C26.3817 27.0549 26.2719 27.1736 26.1832 27.3162C26.0945 27.4589 26.0286 27.6227 25.9893 27.7983C25.9487 27.9736 25.9354 28.1576 25.9503 28.3395C25.9651 28.5215 26.0078 28.6979 26.0758 28.8585C26.1439 29.0192 26.236 29.1609 26.3468 29.2756C26.4576 29.3902 26.5849 29.4756 26.7214 29.5266C26.997 29.6292 27.2928 29.5875 27.5446 29.4106C27.7964 29.2337 27.9836 28.9359 28.0655 28.5822C28.1446 28.2272 28.1116 27.8463 27.9736 27.5224C27.8356 27.1985 27.6039 26.9579 27.3288 26.8527ZM31.2729 23.782C30.9229 23.652 30.5472 23.7046 30.2271 23.9285C29.907 24.1523 29.6683 24.5293 29.5627 24.9779C29.4619 25.4288 29.5038 25.9127 29.6793 26.3239C29.8548 26.7351 30.1497 27.0402 30.4995 27.1726C30.6725 27.2391 30.854 27.2609 31.0335 27.2366C31.2131 27.2124 31.3872 27.1426 31.5457 27.0313C31.7042 26.92 31.8439 26.7694 31.9569 26.5881C32.07 26.4069 32.1539 26.1987 32.2041 25.9755C32.3029 25.5258 32.2607 25.0442 32.0866 24.6341C31.9125 24.2239 31.6203 23.918 31.2729 23.782ZM35.6408 22.5248C35.4459 22.4497 35.2415 22.425 35.0391 22.4521C34.8368 22.4792 34.6407 22.5575 34.462 22.6826C34.2833 22.8077 34.1257 22.9771 33.9981 23.181C33.8705 23.3849 33.7756 23.6193 33.7188 23.8706C33.6608 24.121 33.6419 24.3837 33.6631 24.6436C33.6843 24.9035 33.7452 25.1554 33.8423 25.3849C33.9394 25.6144 34.0708 25.817 34.2289 25.9809C34.3871 26.1449 34.5688 26.267 34.7637 26.3403C35.1566 26.488 35.5788 26.4296 35.9383 26.1778C36.2978 25.9261 36.5652 25.5015 36.6821 24.9968C36.7408 24.7466 36.7604 24.4838 36.7397 24.2237C36.7191 23.9637 36.6586 23.7114 36.5618 23.4816C36.465 23.2518 36.3337 23.0489 36.1757 22.8847C36.0176 22.7204 35.8358 22.5981 35.6408 22.5248ZM22.3048 36.6017C22.223 36.5704 22.1371 36.5603 22.0522 36.5719C21.9673 36.5834 21.885 36.6165 21.81 36.6692C21.7351 36.7218 21.669 36.7931 21.6155 36.8787C21.562 36.9644 21.5222 37.0628 21.4984 37.1684C21.4734 37.2746 21.4649 37.3862 21.4734 37.4967C21.4819 37.6072 21.5072 37.7145 21.5479 37.8124C21.5886 37.9103 21.644 37.9969 21.7107 38.0673C21.7775 38.1377 21.8543 38.1905 21.9369 38.2226C22.2874 38.3525 22.6489 38.0927 22.7507 37.6465C22.775 37.5402 22.7827 37.4288 22.7734 37.3187C22.7641 37.2086 22.738 37.1019 22.6966 37.0048C22.6551 36.9077 22.5992 36.8221 22.532 36.7529C22.4648 36.6838 22.3876 36.6324 22.3048 36.6017ZM48.8071 41.671C48.7741 41.8132 48.7634 41.9623 48.7755 42.1098C48.7877 42.2574 48.8224 42.4003 48.8778 42.5304C48.9332 42.6606 49.0081 42.7752 49.0981 42.8678C49.1882 42.9605 49.2916 43.0292 49.4025 43.07C49.6254 43.1543 49.8652 43.1213 50.0691 42.9782C50.2731 42.8351 50.4245 42.5935 50.4901 42.3067C50.5557 42.0199 50.53 41.7114 50.4188 41.4489C50.3076 41.1864 50.1199 40.9916 49.897 40.9072C49.6737 40.8233 49.4338 40.8565 49.2295 40.9997C49.0253 41.1428 48.8734 41.3842 48.8071 41.671ZM47.7942 36.0339C47.7532 36.2097 47.7396 36.3943 47.7544 36.577C47.7691 36.7596 47.8119 36.9367 47.8801 37.0979C47.9484 37.2592 48.0408 37.4015 48.152 37.5165C48.2632 37.6315 48.3911 37.717 48.5282 37.7681C49.1061 37.9877 49.7025 37.5627 49.8713 36.8236C50.0401 36.0846 49.7144 35.3137 49.141 35.1012C49.005 35.0485 48.8622 35.0309 48.7209 35.0492C48.5796 35.0676 48.4424 35.1216 48.3174 35.2083C48.1923 35.2949 48.0817 35.4124 47.9919 35.554C47.9021 35.6957 47.835 35.8588 47.7942 36.0339ZM45.4088 30.9634C45.3581 31.1861 45.342 31.4195 45.3614 31.6502C45.3807 31.8809 45.4352 32.1045 45.5217 32.3081C45.6082 32.5117 45.7251 32.6914 45.8656 32.837C46.0061 32.9825 46.1674 33.091 46.3405 33.1562C46.5136 33.2215 46.6949 33.2423 46.8743 33.2174C47.0536 33.1924 47.2273 33.1223 47.3855 33.011C47.5438 32.8997 47.6834 32.7493 47.7965 32.5685C47.9096 32.3878 47.9939 32.1801 48.0447 31.9574C48.096 31.7351 48.1126 31.5019 48.0934 31.2713C48.0743 31.0407 48.0198 30.8173 47.9331 30.614C47.8464 30.4106 47.7292 30.2315 47.5884 30.0868C47.4476 29.9421 47.2858 29.8347 47.1125 29.771C46.7638 29.6414 46.3893 29.6939 46.0704 29.9171C45.7515 30.1403 45.5138 30.5162 45.4088 30.9634ZM42.0519 27.025C41.9372 27.5313 41.9835 28.0755 42.1805 28.5379C42.3776 29.0003 42.7094 29.343 43.1028 29.4906C43.4963 29.6383 43.9192 29.5787 44.2785 29.3251C44.6379 29.0715 44.9042 28.6446 45.0189 28.1383C45.0769 27.8882 45.0959 27.6258 45.0748 27.3662C45.0537 27.1065 44.9929 26.8549 44.896 26.6256C44.799 26.3963 44.6678 26.1939 44.5099 26.0301C44.352 25.8663 44.1705 25.7442 43.9758 25.6709C43.5811 25.5225 43.1568 25.5817 42.7961 25.8356C42.4353 26.0895 42.1677 26.5173 42.0519 27.025ZM48.452 47.3613C48.4047 47.5748 48.4242 47.8036 48.5063 47.9989C48.5885 48.1941 48.7267 48.3403 48.8915 48.4061C48.974 48.438 49.0606 48.4485 49.1463 48.4369C49.232 48.4253 49.3151 48.3919 49.3906 48.3386C49.4662 48.2853 49.5328 48.2132 49.5865 48.1265C49.6402 48.0398 49.6799 47.9402 49.7034 47.8335C49.7283 47.7275 49.7366 47.6163 49.7278 47.5062C49.7191 47.3961 49.6934 47.2893 49.6524 47.192C49.6114 47.0947 49.5557 47.0089 49.4887 46.9395C49.4217 46.87 49.3447 46.8184 49.2621 46.7875C49.0956 46.7274 48.9174 46.7539 48.7659 46.8612C48.6143 46.9685 48.5016 47.1481 48.452 47.3613ZM33.3472 60.4938C33.4137 60.2051 33.4353 59.9024 33.4107 59.603C33.386 59.3036 33.3157 59.0134 33.2037 58.749C33.0917 58.4847 32.9402 58.2514 32.758 58.0625C32.5757 57.8737 32.3663 57.7331 32.1417 57.6486C31.918 57.564 31.6836 57.5368 31.4517 57.5689C31.2199 57.6009 30.9953 57.6914 30.7907 57.8353C30.5861 57.9792 30.4055 58.1735 30.2594 58.4073C30.1132 58.641 30.0043 58.9096 29.9389 59.1975C29.8725 59.486 29.8511 59.7886 29.8758 60.0878C29.9005 60.387 29.9709 60.677 30.0829 60.9411C30.1949 61.2052 30.3463 61.4383 30.5285 61.6269C30.7106 61.8155 30.92 61.956 31.1444 62.0403C32.0857 62.3909 33.0793 61.6944 33.3472 60.4938ZM22.3957 43.3309C22.4617 43.0442 22.4366 42.7356 22.3258 42.4728C22.215 42.21 22.0276 42.0146 21.8048 41.9295C21.581 41.848 21.3413 41.8827 21.1371 42.0262C20.9329 42.1696 20.7807 42.4105 20.7131 42.6969C20.6809 42.8388 20.6709 42.9874 20.6835 43.1342C20.6961 43.2811 20.7311 43.4233 20.7865 43.5527C20.8419 43.6822 20.9166 43.7962 21.0063 43.8884C21.0961 43.9806 21.1991 44.0491 21.3094 44.09C21.4195 44.1327 21.535 44.1469 21.6493 44.1318C21.7637 44.1167 21.8746 44.0725 21.9756 44.0019C22.0766 43.9314 22.1657 43.8357 22.2378 43.7205C22.3099 43.6053 22.3636 43.4729 22.3957 43.3309ZM23.4104 48.9645C23.4507 48.7902 23.4639 48.6074 23.4489 48.4266C23.434 48.2458 23.3914 48.0706 23.3234 47.9111C23.2555 47.7517 23.1637 47.6112 23.0532 47.4978C22.9428 47.3843 22.816 47.3002 22.6801 47.2503C22.5442 47.1956 22.4012 47.1766 22.2595 47.1943C22.1178 47.212 21.9803 47.266 21.8552 47.3533C21.73 47.4406 21.6198 47.5593 21.5309 47.7025C21.442 47.8456 21.3764 48.0102 21.3379 48.1865C21.2577 48.5401 21.29 48.9203 21.4276 49.2433C21.5653 49.5663 21.797 49.8058 22.0718 49.9089C22.3466 50.0121 22.6421 49.9705 22.8931 49.7934C23.1441 49.6163 23.3302 49.3181 23.4104 48.9645ZM25.7994 54.042C25.9 53.5897 25.8579 53.1045 25.6824 52.6917C25.5069 52.2789 25.2121 51.9717 24.8618 51.8368C24.5118 51.7071 24.1361 51.7611 23.8169 51.987C23.4978 52.2129 23.2612 52.5923 23.159 53.0421C23.1075 53.2647 23.0908 53.4981 23.1097 53.729C23.1286 53.9599 23.1828 54.1837 23.2692 54.3876C23.3555 54.5914 23.4724 54.7713 23.613 54.9168C23.7535 55.0624 23.9151 55.1707 24.0884 55.2356C24.2616 55.3023 24.4434 55.3243 24.6232 55.3004C24.8031 55.2764 24.9775 55.207 25.1365 55.0961C25.2955 54.9852 25.4359 54.835 25.5496 54.6542C25.6634 54.4733 25.7483 54.2652 25.7994 54.042ZM29.1563 57.9863C29.2702 57.4789 29.2232 56.9342 29.0256 56.4713C28.8281 56.0084 28.496 55.6651 28.1022 55.5166C27.9075 55.4426 27.7033 55.4191 27.5015 55.4473C27.2997 55.4756 27.1043 55.555 26.9265 55.681C26.7487 55.8071 26.5921 55.9772 26.4657 56.1816C26.3393 56.386 26.2457 56.6206 26.1902 56.8718C26.133 57.1217 26.1146 57.3837 26.1362 57.6428C26.1577 57.9018 26.2188 58.1529 26.3159 58.3815C26.4129 58.6102 26.5441 58.8119 26.7019 58.9752C26.8596 59.1386 27.0408 59.2602 27.2352 59.3333C27.6287 59.4803 28.0515 59.4212 28.4113 59.1689C28.7712 58.9166 29.0389 58.4915 29.1563 57.9863ZM46.9492 53.7894C47.173 53.8748 47.4139 53.8425 47.6191 53.6995C47.8243 53.5565 47.977 53.3145 48.0437 53.0268C48.1077 52.7394 48.0813 52.4311 47.9703 52.1685C47.8592 51.906 47.6724 51.71 47.4502 51.6231C47.2269 51.5409 46.9875 51.5751 46.7837 51.7182C46.5799 51.8614 46.4281 52.102 46.3612 52.3881C46.2958 52.6743 46.3209 52.9821 46.431 53.2445C46.5412 53.507 46.7274 53.7028 46.9492 53.7894ZM43.8767 58.1516C44.1506 58.2555 44.4453 58.2153 44.6961 58.0398C44.947 57.8642 45.1334 57.5677 45.2143 57.2154C45.2559 57.0402 45.2701 56.8562 45.2561 56.6739C45.242 56.4917 45.2 56.3148 45.1326 56.1535C45.0651 55.9923 44.9734 55.8498 44.8629 55.7344C44.7524 55.619 44.6252 55.5329 44.4886 55.4811C44.2125 55.3769 43.9155 55.4175 43.6625 55.594C43.4095 55.7705 43.221 56.0686 43.1382 56.4232C43.0609 56.7784 43.095 57.1584 43.2331 57.4815C43.3712 57.8047 43.6023 58.0453 43.8767 58.1516ZM39.9326 61.2234C40.1061 61.2899 40.2881 61.3116 40.4681 61.2871C40.6481 61.2627 40.8226 61.1927 40.9815 61.0811C41.1404 60.9695 41.2806 60.8185 41.3939 60.6368C41.5072 60.4552 41.5915 60.2465 41.6418 60.0227C41.6924 59.8003 41.7084 59.5672 41.689 59.3367C41.6695 59.1063 41.6149 58.883 41.5283 58.6797C41.4418 58.4765 41.3249 58.2971 41.1844 58.152C41.044 58.0069 40.8826 57.8988 40.7097 57.834C40.5367 57.7683 40.3554 57.7472 40.1761 57.7717C39.9968 57.7962 39.823 57.8659 39.6646 57.9768C39.5063 58.0878 39.3664 58.2378 39.2531 58.4182C39.1398 58.5987 39.0552 58.8062 39.0042 59.0287C38.9531 59.2513 38.9367 59.4846 38.9557 59.7153C38.9748 59.946 39.0289 60.1697 39.1152 60.3735C39.2014 60.5773 39.3179 60.7572 39.4582 60.903C39.5985 61.0489 39.7597 61.1577 39.9326 61.2234ZM35.5683 62.4759C35.7623 62.5521 35.9662 62.5779 36.168 62.5517C36.3698 62.5256 36.5656 62.4481 36.7439 62.3238C36.9222 62.1994 37.0796 62.0307 37.2068 61.8274C37.334 61.6241 37.4285 61.3903 37.4849 61.1395C37.542 60.8888 37.5603 60.626 37.5385 60.3661C37.5167 60.1063 37.4554 59.8546 37.3581 59.6252C37.1614 59.1621 36.8298 58.8184 36.4362 58.6698C36.0427 58.5213 35.6193 58.58 35.2594 58.833C34.8995 59.0861 34.6324 59.5128 34.5169 60.0192C34.4042 60.5244 34.4516 61.0664 34.6486 61.5268C34.8456 61.9872 35.1763 62.3284 35.5683 62.4759Z" fill="url(#paint1_linear_1017_693)"/>
<path d="M50.0951 26.9788C49.6793 27.5432 49.1064 27.8721 48.5023 27.8934C47.8982 27.9146 47.3122 27.6265 46.873 27.0922C46.6547 26.8283 46.4791 26.5115 46.3563 26.16C46.2335 25.8084 46.166 25.4291 46.1577 25.0438C46.1493 24.6585 46.2003 24.2749 46.3076 23.9151C46.4149 23.5553 46.5766 23.2264 46.7831 22.9472C46.9878 22.6664 47.2335 22.4403 47.5062 22.2818C47.7789 22.1234 48.0732 22.0357 48.3722 22.0239C48.6713 22.012 48.9692 22.0762 49.2489 22.2128C49.5287 22.3494 49.7847 22.5556 50.0024 22.8197C50.4427 23.3559 50.6997 24.0949 50.7171 24.8746C50.7345 25.6544 50.5108 26.4111 50.0951 26.9788ZM27.3746 20.3111C27.1569 20.049 26.8677 19.9082 26.5697 19.9192C26.2718 19.9303 25.9893 20.0923 25.7837 20.3701C25.5803 20.6494 25.4709 21.0208 25.4795 21.4034C25.4881 21.7861 25.614 22.1488 25.8296 22.4125C26.0473 22.6748 26.3368 22.8156 26.6349 22.8041C26.933 22.7926 27.2154 22.6297 27.4204 22.3511C27.6238 22.0722 27.7331 21.7011 27.7245 21.3189C27.7159 20.9367 27.5901 20.5743 27.3746 20.3111ZM33.071 17.5226C32.8025 17.1997 32.4457 17.0266 32.0784 17.041C31.7111 17.0554 31.3631 17.2561 31.1104 17.5993C30.9853 17.7704 30.8875 17.9715 30.8228 18.1912C30.758 18.4108 30.7276 18.6448 30.7331 18.8796C30.7386 19.1144 30.7801 19.3456 30.8551 19.5598C30.93 19.774 31.0371 19.9671 31.17 20.1281C31.439 20.4505 31.7962 20.6231 32.1636 20.608C32.5311 20.593 32.879 20.3916 33.1315 20.0478C33.3822 19.7016 33.5165 19.2421 33.5051 18.7692C33.4938 18.2962 33.3378 17.8482 33.071 17.5226ZM39.1812 16.9477C38.8405 16.5365 38.3872 16.3155 37.9203 16.333C37.4535 16.3505 37.0109 16.605 36.6894 17.0409C36.385 17.4826 36.2262 18.0594 36.2467 18.6492C36.2672 19.2389 36.4652 19.7952 36.799 20.2003C37.1327 20.6053 37.5759 20.8273 38.0346 20.8191C38.4933 20.8109 38.9315 20.5732 39.2564 20.1564C39.5761 19.7175 39.7477 19.1334 39.7336 18.532C39.7195 17.9307 39.5209 17.361 39.1812 16.9477ZM44.962 18.8519C44.7728 18.6212 44.5501 18.4409 44.3066 18.3213C44.0631 18.2017 43.8037 18.1451 43.5432 18.1549C43.2827 18.1646 43.0262 18.2405 42.7885 18.3782C42.5509 18.5158 42.3367 18.7125 42.1583 18.957C41.9794 19.2004 41.8396 19.4869 41.7467 19.7999C41.6539 20.1129 41.6099 20.4464 41.6172 20.7813C41.6246 21.1162 41.6831 21.446 41.7894 21.7518C41.8958 22.0576 42.048 22.3334 42.2372 22.5636C42.6206 23.027 43.131 23.2761 43.6568 23.2564C44.1826 23.2367 44.6809 22.9498 45.0427 22.4585C45.4028 21.9659 45.5965 21.3097 45.5814 20.6337C45.5662 19.9577 45.3435 19.317 44.962 18.8519ZM22.5451 25.1938C22.3829 24.9991 22.1675 24.8945 21.9458 24.9029C21.724 24.9113 21.5138 25.032 21.3607 25.2387C21.2848 25.3412 21.2255 25.462 21.186 25.5942C21.1465 25.7263 21.1277 25.8672 21.1307 26.0088C21.1337 26.1503 21.1584 26.2897 21.2034 26.4189C21.2484 26.5481 21.3127 26.6645 21.3928 26.7616C21.4724 26.8596 21.5663 26.9363 21.669 26.9873C21.7718 27.0383 21.8814 27.0625 21.9915 27.0585C22.1016 27.0546 22.21 27.0225 22.3104 26.9643C22.4108 26.906 22.5012 26.8227 22.5763 26.7191C22.7291 26.5114 22.8117 26.2341 22.8058 25.9482C22.8 25.6622 22.7062 25.391 22.5451 25.1938ZM51.718 51.8012C51.5134 52.0809 51.4034 52.4536 51.4119 52.8375C51.4205 53.2215 51.5471 53.5854 51.7639 53.8495C51.9835 54.1008 52.2705 54.232 52.5641 54.2152C52.8576 54.1984 53.1345 54.035 53.3359 53.7596C53.5372 53.4842 53.6471 53.1186 53.6423 52.7405C53.6374 52.3625 53.5181 52.0018 53.3098 51.7351C53.0915 51.4733 52.8016 51.3333 52.5033 51.3457C52.2051 51.358 51.9228 51.5218 51.718 51.8012ZM53.1584 44.3306C52.9086 44.6766 52.775 45.1356 52.7869 45.6077C52.7987 46.0797 52.955 46.5266 53.2217 46.8511C53.3542 47.0126 53.5102 47.1387 53.6807 47.2224C53.8511 47.306 54.0328 47.3454 54.2152 47.3384C54.3975 47.3314 54.577 47.278 54.7433 47.1814C54.9096 47.0849 55.0594 46.9469 55.1842 46.7756C55.3096 46.6052 55.4076 46.4046 55.4725 46.1853C55.5373 45.9659 55.5678 45.7322 55.5621 45.4977C55.5564 45.2631 55.5146 45.0323 55.4392 44.8186C55.3638 44.605 55.2562 44.4126 55.1227 44.2527C54.8536 43.9295 54.4961 43.7562 54.1281 43.7708C53.7601 43.7854 53.4116 43.9867 53.1584 44.3306ZM52.7162 36.4634C52.5573 36.68 52.4331 36.9349 52.3509 37.2134C52.2686 37.4919 52.2299 37.7886 52.237 38.0864C52.2441 38.3842 52.2968 38.6772 52.3921 38.9488C52.4874 39.2203 52.6234 39.4649 52.7924 39.6686C52.9608 39.873 53.1589 40.0327 53.3753 40.1384C53.5917 40.2441 53.8222 40.2939 54.0536 40.2848C54.285 40.2757 54.5127 40.2079 54.7237 40.0854C54.9347 39.9628 55.1249 39.7879 55.2832 39.5707C55.5937 39.1304 55.7574 38.551 55.7391 37.957C55.7209 37.3631 55.5221 36.8021 55.1857 36.3948C54.8492 35.9875 54.4019 35.7665 53.94 35.7793C53.4782 35.7921 53.0387 36.0378 52.7162 36.4634ZM50.5823 29.1723C50.3132 29.54 50.135 30.0021 50.0701 30.5002C50.0053 30.9983 50.0567 31.51 50.218 31.9704C50.3792 32.4309 50.6429 32.8194 50.9758 33.0869C51.3087 33.3544 51.6958 33.4888 52.0881 33.4731C52.4804 33.4574 52.8602 33.2923 53.1795 32.9987C53.4989 32.7051 53.7433 32.2962 53.882 31.8237C54.0207 31.3512 54.0473 30.8365 53.9585 30.3445C53.8697 29.8526 53.6695 29.4056 53.3832 29.0602C52.5924 28.0945 51.3355 28.15 50.5823 29.1723ZM48.6217 58.2813C48.4703 58.4904 48.3892 58.768 48.396 59.0536C48.4029 59.3393 48.4972 59.6099 48.6584 59.8066C48.7386 59.9032 48.8329 59.9785 48.9358 60.0281C49.0388 60.0777 49.1483 60.1005 49.2582 60.0954C49.368 60.0902 49.476 60.0571 49.5759 59.9981C49.6757 59.939 49.7655 59.855 49.84 59.7511C49.9163 59.6496 49.9759 59.5295 50.0155 59.3978C50.055 59.2662 50.0737 59.1257 50.0704 58.9846C50.067 58.8435 50.0418 58.7048 49.9961 58.5765C49.9504 58.4482 49.8851 58.3329 49.8043 58.2376C49.7248 58.1394 49.631 58.0626 49.5283 58.0115C49.4255 57.9605 49.3159 57.9363 49.2058 57.9404C49.0958 57.9445 48.9874 57.9767 48.8871 58.0352C48.7868 58.0937 48.6966 58.1774 48.6217 58.2813ZM24.4232 62.052C24.8317 61.4841 25.0495 60.7315 25.0292 59.9581C25.0088 59.1846 24.752 58.4527 24.3145 57.9217C23.877 57.3906 23.2943 57.1033 22.693 57.1223C22.0918 57.1412 21.5206 57.4648 21.1038 58.0227C20.7096 58.5937 20.5037 59.3399 20.5299 60.103C20.5561 60.8661 20.8122 61.586 21.244 62.1101C21.6757 62.6343 22.2492 62.9213 22.8427 62.9105C23.4362 62.8996 24.0031 62.5917 24.4232 62.052ZM19.4873 33.1968C19.5887 33.0585 19.6679 32.8959 19.7205 32.7182C19.773 32.5405 19.7978 32.3513 19.7935 32.1612C19.7892 31.9712 19.7559 31.7841 19.6954 31.6107C19.6349 31.4372 19.5484 31.2808 19.441 31.1503C19.3335 31.0199 19.2071 30.9179 19.069 30.8503C18.9309 30.7827 18.7839 30.7508 18.6362 30.7563C18.4885 30.7618 18.3431 30.8047 18.2083 30.8826C18.0735 30.9604 17.952 31.0717 17.8506 31.21C17.4194 31.7884 17.4451 32.701 17.901 33.2535C18.3478 33.7966 19.0579 33.7741 19.4873 33.1968ZM18.0414 40.6709C18.2927 40.325 18.4276 39.8654 18.417 39.3921C18.4063 38.9188 18.2509 38.47 17.9845 38.1434C17.7149 37.8326 17.3617 37.6696 17 37.6889C16.6384 37.7083 16.2969 37.9086 16.0483 38.2471C15.7997 38.5857 15.6636 39.0357 15.669 39.5014C15.6744 39.9671 15.8208 40.4117 16.0772 40.7406C16.3454 41.0649 16.7025 41.2396 17.0704 41.2266C17.4384 41.2135 17.7874 41.0138 18.0414 40.6709ZM18.4864 48.5346C18.8076 48.0955 18.9803 47.5103 18.9663 46.9075C18.9524 46.3047 18.753 45.7337 18.4121 45.32C18.0709 44.9079 17.6166 44.6869 17.1489 44.7055C16.6811 44.724 16.2383 44.9807 15.9175 45.4191C15.5981 45.8582 15.4268 46.4422 15.4413 47.0434C15.4557 47.6446 15.6547 48.2139 15.9946 48.6267C16.7065 49.492 17.8203 49.446 18.4864 48.5346ZM20.6167 55.8281C20.9769 55.3353 21.1706 54.6788 21.1553 54.0025C21.14 53.3262 20.917 52.6853 20.535 52.2203C20.3459 51.9905 20.1234 51.811 19.8802 51.6922C19.637 51.5733 19.378 51.5174 19.118 51.5278C18.858 51.5381 18.6022 51.6144 18.3651 51.7522C18.1281 51.8901 17.9146 52.0869 17.7368 52.3313C17.5574 52.5742 17.417 52.8603 17.3236 53.1732C17.2303 53.4861 17.1858 53.8196 17.1928 54.1547C17.1998 54.4897 17.2581 54.8197 17.3644 55.1257C17.4706 55.4317 17.6228 55.7077 17.8121 55.9379C18.1965 56.3986 18.7068 56.6455 19.2319 56.6249C19.757 56.6044 20.2547 56.318 20.6167 55.8281ZM43.828 64.687C43.9354 64.8176 44.0617 64.9196 44.1998 64.9872C44.3379 65.0548 44.485 65.0866 44.6326 65.0808C44.7803 65.075 44.9256 65.0316 45.0602 64.9533C45.1949 64.875 45.3161 64.7632 45.417 64.6244C45.5183 64.4866 45.5974 64.3244 45.6498 64.1471C45.7022 63.9698 45.7269 63.781 45.7224 63.5914C45.7179 63.4018 45.6843 63.2152 45.6235 63.0424C45.5628 62.8696 45.4761 62.714 45.3684 62.5844C45.2614 62.4538 45.1354 62.3517 44.9977 62.284C44.8599 62.2162 44.7132 62.1842 44.5658 62.1897C44.4183 62.1951 44.2732 62.238 44.1388 62.3159C44.0043 62.3938 43.8831 62.5051 43.7822 62.6434C43.5778 62.9223 43.4678 63.2942 43.4764 63.6774C43.485 64.0606 43.6115 64.4237 43.828 64.687ZM38.1316 67.4719C38.6913 68.1507 39.5683 68.1059 40.094 67.3928C40.2192 67.2228 40.3171 67.0227 40.3821 66.804C40.447 66.5852 40.4777 66.352 40.4724 66.1179C40.4672 65.8838 40.426 65.6534 40.3513 65.4398C40.2766 65.2263 40.1698 65.0338 40.0371 64.8735C39.768 64.5488 39.4098 64.3747 39.0411 64.3893C38.6724 64.4039 38.3232 64.6061 38.0701 64.9514C37.8198 65.2969 37.6858 65.7558 37.6973 66.228C37.7088 66.7001 37.8649 67.1473 38.1316 67.4719ZM32.0178 68.0397C32.7334 68.9075 33.8416 68.865 34.5086 67.9536C34.668 67.7375 34.7926 67.483 34.8754 67.2048C34.9582 66.9266 34.9975 66.6301 34.991 66.3323C34.9845 66.0345 34.9324 65.7413 34.8377 65.4695C34.7429 65.1977 34.6074 64.9526 34.4389 64.7484C34.0979 64.3357 33.6438 64.1136 33.1759 64.1304C32.708 64.1472 32.2642 64.4016 31.9416 64.8381C31.783 65.0546 31.659 65.3092 31.577 65.5874C31.4949 65.8655 31.4563 66.1618 31.4634 66.4592C31.4705 66.7567 31.5231 67.0494 31.6182 67.3206C31.7133 67.5918 31.8491 67.8362 32.0178 68.0397ZM26.2489 66.1461C26.4378 66.3761 26.6602 66.5558 26.9032 66.675C27.1462 66.7941 27.4052 66.8504 27.6651 66.8405C27.9251 66.8306 28.181 66.7548 28.4181 66.6175C28.6553 66.4801 28.869 66.2838 29.0471 66.0399C29.2253 65.7959 29.3645 65.5092 29.4566 65.1961C29.5488 64.8829 29.5921 64.5495 29.5841 64.2148C29.576 63.8801 29.5169 63.5507 29.41 63.2455C29.303 62.9402 29.1504 62.665 28.9608 62.4357C28.7713 62.2063 28.5484 62.0272 28.3051 61.9086C28.0617 61.7901 27.8026 61.7344 27.5425 61.7447C27.2824 61.755 27.0264 61.8311 26.7892 61.9687C26.552 62.1063 26.3381 62.3027 26.1599 62.5466C25.9817 62.7903 25.8427 63.0767 25.7507 63.3897C25.6587 63.7026 25.6156 64.0358 25.6239 64.3701C25.6321 64.7045 25.6916 65.0335 25.7989 65.3383C25.9061 65.643 26.059 65.9176 26.2489 66.1461Z" fill="url(#paint2_linear_1017_693)"/>
<path d="M59.354 33.1893C58.6808 33.5616 57.9203 33.5748 57.2395 33.2259C56.5588 32.877 56.0136 32.1946 55.7236 31.3287C55.5798 30.9 55.503 30.4389 55.4979 29.972C55.4927 29.505 55.5591 29.0413 55.6935 28.6075C55.8278 28.1736 56.0273 27.7782 56.2806 27.4437C56.5339 27.1093 56.836 26.8424 57.1695 26.6584C57.8393 26.309 58.5888 26.3111 59.2573 26.6643C59.9259 27.0175 60.4603 27.6937 60.746 28.548C61.0318 29.4022 61.046 30.3664 60.7858 31.234C60.5256 32.1016 60.0116 32.8035 59.354 33.1893ZM39.9601 10.5686C39.9216 10.3158 39.8447 10.0752 39.7336 9.86073C39.6226 9.64629 39.4797 9.46223 39.3132 9.31915C39.1466 9.17606 38.9597 9.07678 38.7633 9.02702C38.5668 8.97725 38.3646 8.97799 38.1683 9.02919C37.9717 9.07842 37.7846 9.17728 37.6177 9.32005C37.4509 9.46282 37.3077 9.64669 37.1964 9.86104C37.0851 10.0754 37.0079 10.316 36.9692 10.5689C36.9305 10.8219 36.9312 11.0822 36.9711 11.3348C37.0617 11.8299 37.2981 12.2604 37.6306 12.5355C37.963 12.8106 38.3655 12.9088 38.7532 12.8095C39.1408 12.7101 39.4834 12.4209 39.7085 12.0029C39.9337 11.5848 40.0239 11.0706 39.9601 10.5686ZM46.5024 12.3997C46.4429 12.0971 46.3376 11.8127 46.1924 11.5627C46.0472 11.3127 45.8651 11.1021 45.6565 10.9429C45.4479 10.7838 45.2169 10.6792 44.9768 10.6352C44.7367 10.5912 44.4923 10.6087 44.2574 10.6867C44.0221 10.7629 43.8008 10.8982 43.6062 11.0848C43.4117 11.2714 43.2478 11.5058 43.1239 11.7742C43 12.0427 42.9186 12.3401 42.8843 12.6492C42.8501 12.9584 42.8637 13.2732 42.9244 13.5755C42.9844 13.8778 43.0901 14.162 43.2354 14.4117C43.3807 14.6615 43.5629 14.872 43.7714 15.0311C43.98 15.1903 44.2109 15.2951 44.4509 15.3394C44.6909 15.3838 44.9353 15.3669 45.1703 15.2897C45.4052 15.2125 45.626 15.0765 45.8201 14.8895C46.0142 14.7024 46.1778 14.4681 46.3015 14.1997C46.4252 13.9313 46.5066 13.6342 46.5411 13.3254C46.5756 13.0166 46.5624 12.702 46.5024 12.3997ZM52.5346 16.1456C52.4452 15.7739 52.2997 15.4287 52.1063 15.1297C51.9129 14.8306 51.6755 14.5837 51.4077 14.4032C51.1399 14.2226 50.847 14.1119 50.5459 14.0774C50.2447 14.043 49.9413 14.0854 49.6529 14.2024C49.364 14.3176 49.0956 14.505 48.8632 14.7539C48.6307 15.0028 48.4386 15.3083 48.2981 15.6529C48.1575 15.9975 48.0712 16.3744 48.0441 16.762C48.017 17.1496 48.0496 17.5403 48.1401 17.9117C48.3343 18.6422 48.7424 19.2463 49.2776 19.5954C49.8127 19.9445 50.4326 20.0111 51.0053 19.7809C51.578 19.5507 52.0583 19.042 52.344 18.3631C52.6296 17.6841 52.698 16.8885 52.5346 16.1456ZM57.3457 21.6635C57.2303 21.2611 57.0544 20.8919 56.828 20.5771C56.6016 20.2623 56.3291 20.0081 56.0263 19.829C55.7234 19.6499 55.396 19.5495 55.0629 19.5335C54.7298 19.5174 54.3975 19.5862 54.0851 19.7356C53.7719 19.8833 53.4845 20.1092 53.2393 20.4003C52.9942 20.6915 52.7962 21.042 52.6567 21.4319C52.5172 21.8219 52.439 22.2434 52.4266 22.6723C52.4141 23.1013 52.4677 23.5291 52.5842 23.9313C52.8179 24.7438 53.2928 25.4036 53.9046 25.7655C54.5163 26.1273 55.2147 26.1617 55.8461 25.861C56.4775 25.5602 56.9903 24.949 57.2715 24.1619C57.5527 23.3747 57.5794 22.476 57.3457 21.6635ZM26.8462 12.7751C26.7885 12.6027 26.7049 12.4467 26.6003 12.316C26.4956 12.1853 26.3719 12.0824 26.2363 12.0133C26.1007 11.9442 25.9559 11.9102 25.81 11.9133C25.6642 11.9164 25.5203 11.9565 25.3865 12.0313C25.1167 12.1812 24.9041 12.4628 24.7957 12.8143C24.6872 13.1657 24.6916 13.5582 24.8081 13.9055C24.9245 14.2527 25.1434 14.5262 25.4165 14.6658C25.6896 14.8054 25.9947 14.7996 26.2645 14.6498C26.8269 14.3381 27.0893 13.4976 26.8462 12.7751ZM54.5181 59.871C54.1982 60.1772 53.9841 60.6324 53.9217 61.1391C53.8593 61.6458 53.9535 62.1639 54.1842 62.5824C54.4149 63.0008 54.7638 63.2864 55.1561 63.3781C55.5484 63.4697 55.953 63.3601 56.2833 63.0727C56.4467 62.9235 56.5856 62.7343 56.6921 62.516C56.7986 62.2976 56.8706 62.0544 56.9039 61.8002C56.9372 61.546 56.9313 61.2858 56.8863 61.0346C56.8414 60.7834 56.7584 60.546 56.642 60.3361C56.5263 60.1261 56.3796 59.9474 56.2103 59.8104C56.0409 59.6733 55.8522 59.5805 55.655 59.5373C55.4577 59.4941 55.2558 59.5014 55.0607 59.5586C54.8657 59.6159 54.6813 59.722 54.5181 59.871ZM57.5494 52.2186C57.3394 52.3823 57.1569 52.5981 57.0126 52.8536C56.8682 53.109 56.7648 53.3989 56.7086 53.7064C56.6523 54.0138 56.6442 54.3326 56.6848 54.6441C56.7253 54.9556 56.8138 55.2536 56.9449 55.5206C57.076 55.7876 57.2471 56.0184 57.4483 56.1993C57.6495 56.3802 57.8767 56.5077 58.1167 56.5743C58.3566 56.6409 58.6045 56.6453 58.8457 56.5872C59.087 56.5292 59.3169 56.4098 59.5219 56.2361C59.9259 55.8937 60.2094 55.361 60.3114 54.7525C60.4135 54.144 60.3259 53.5082 60.0675 52.982C59.8091 52.4557 59.4005 52.0809 58.9296 51.9382C58.4588 51.7954 57.9631 51.8961 57.5494 52.2186ZM58.9833 43.6077C58.4511 43.9933 58.0595 44.6349 57.8945 45.3916C57.7296 46.1484 57.8047 46.9585 58.1035 47.644C58.2515 47.9829 58.4501 48.281 58.6878 48.521C58.9255 48.7611 59.1976 48.9384 59.4886 49.0429C59.7797 49.1474 60.0839 49.177 60.3838 49.13C60.6837 49.083 60.9735 48.9604 61.2366 48.7691C61.5006 48.5797 61.733 48.3251 61.9203 48.0198C62.1076 47.7145 62.2462 47.3645 62.328 46.9901C62.4099 46.6156 62.4334 46.2241 62.3972 45.8379C62.3611 45.4517 62.2659 45.0785 62.1173 44.7398C61.9696 44.4004 61.7712 44.1017 61.5336 43.861C61.2961 43.6204 61.024 43.4423 60.7328 43.3372C60.4417 43.232 60.1373 43.2018 59.8371 43.2482C59.5369 43.2946 59.2468 43.4168 58.9833 43.6077ZM58.8962 34.9731C58.2942 35.3579 57.8354 36.0343 57.6204 36.8538C57.4054 37.6733 57.4518 38.5691 57.7494 39.3447C57.8967 39.73 58.1018 40.0741 58.3528 40.357C58.6039 40.64 58.8959 40.8564 59.2121 40.9936C59.5283 41.1309 59.8625 41.1863 60.1955 41.1568C60.5284 41.1273 60.8536 41.0133 61.1522 40.8216C61.4512 40.6322 61.7182 40.3687 61.9379 40.0461C62.1575 39.7235 62.3254 39.3483 62.432 38.9419C62.5386 38.5356 62.5817 38.1061 62.5588 37.6783C62.536 37.2504 62.4477 36.8326 62.299 36.4488C61.9994 35.673 61.4728 35.0819 60.8348 34.8052C60.1968 34.5285 59.4996 34.5889 58.8962 34.9731ZM44.9336 70.3531C44.7999 70.4273 44.6789 70.5347 44.5775 70.669C44.476 70.8034 44.3962 70.9622 44.3424 71.1362C44.2886 71.3103 44.2621 71.4963 44.2642 71.6836C44.2663 71.8709 44.297 72.0559 44.3547 72.2279C44.4711 72.5753 44.69 72.8489 44.9632 72.9886C45.0985 73.0578 45.2431 73.092 45.3886 73.0893C45.5342 73.0866 45.6779 73.047 45.8116 72.9728C46.374 72.6611 46.6364 71.8218 46.3942 71.0957C46.2769 70.7481 46.0572 70.4747 45.7833 70.3355C45.5094 70.1962 45.2038 70.2026 44.9336 70.3531ZM14.0313 58.341C14.7034 57.9662 15.2323 57.2634 15.5019 56.387C15.7715 55.5106 15.7596 54.5323 15.4689 53.6672C15.3259 53.2389 15.1187 52.8512 14.859 52.5261C14.5994 52.2011 14.2924 51.9452 13.9558 51.773C13.6192 51.6008 13.2595 51.5158 12.8973 51.5228C12.5351 51.5298 12.1775 51.6286 11.845 51.8137C11.5115 51.9977 11.2094 52.2645 10.9561 52.599C10.7029 52.9335 10.5034 53.329 10.3691 53.7629C10.2349 54.1968 10.1685 54.6604 10.1738 55.1274C10.1791 55.5943 10.256 56.0553 10.4001 56.484C10.6907 57.3494 11.2363 58.031 11.9171 58.3792C12.598 58.7273 13.3583 58.7136 14.0313 58.341ZM16.679 25.1296C16.8423 24.981 16.9811 24.7926 17.0877 24.5749C17.1943 24.3573 17.2666 24.1147 17.3003 23.8611C17.3341 23.6076 17.3286 23.3479 17.2844 23.097C17.2401 22.8462 17.1579 22.609 17.0424 22.399C16.9274 22.1879 16.7812 22.0083 16.612 21.8703C16.4429 21.7324 16.2541 21.639 16.0568 21.5954C15.8594 21.5518 15.6573 21.559 15.462 21.6165C15.2668 21.6739 15.0824 21.7806 14.9194 21.9303C14.7552 22.0786 14.6155 22.2672 14.5083 22.4854C14.4011 22.7035 14.3285 22.9468 14.2947 23.2012C14.2609 23.4556 14.2667 23.7161 14.3115 23.9676C14.3564 24.2192 14.4395 24.4568 14.5561 24.6668C14.7903 25.0898 15.1453 25.3761 15.5432 25.4628C15.9412 25.5496 16.3496 25.4297 16.679 25.1296ZM13.6506 32.7808C13.8559 32.6137 14.0337 32.3962 14.1736 32.1407C14.3136 31.8851 14.4131 31.5966 14.4663 31.2916C14.5196 30.9865 14.5256 30.671 14.484 30.363C14.4424 30.055 14.354 29.7605 14.224 29.4965C13.9618 28.9644 13.5461 28.5881 13.0683 28.4503C12.5905 28.3126 12.0897 28.4248 11.6762 28.7622C11.2627 29.0995 10.9703 29.6345 10.8632 30.2493C10.7562 30.8641 10.8434 31.5085 11.1056 32.0406C11.3668 32.573 11.7817 32.9501 12.2589 33.0889C12.7362 33.2277 13.2368 33.1169 13.6506 32.7808ZM12.212 41.3929C12.4845 41.2088 12.7256 40.9563 12.9209 40.6502C13.1162 40.3441 13.2619 39.9907 13.3492 39.6109C13.4366 39.2311 13.4638 38.8327 13.4294 38.4391C13.395 38.0455 13.2995 37.6648 13.1488 37.3195C12.998 36.9742 12.795 36.6713 12.5516 36.4288C12.3083 36.1862 12.0296 36.009 11.7321 35.9074C11.4346 35.8059 11.1243 35.7821 10.8196 35.8376C10.5148 35.8931 10.2218 36.0266 9.95785 36.2304C9.42797 36.6165 9.03864 37.2571 8.87514 38.0119C8.71164 38.7666 8.78732 39.574 9.0856 40.2572C9.38387 40.9403 9.88041 41.4434 10.4664 41.6563C11.0524 41.8692 11.6802 41.7745 12.212 41.3929ZM12.301 50.0299C12.9042 49.6451 13.3639 48.9677 13.5789 48.1468C13.794 47.3258 13.7468 46.4286 13.4478 45.6524C13.3006 45.2668 13.0955 44.9225 12.8444 44.6394C12.5933 44.3562 12.3011 44.1398 11.9847 44.0027C11.6683 43.8655 11.334 43.8102 11.0009 43.8401C10.6678 43.87 10.3426 43.9844 10.0441 44.1767C9.74536 44.3667 9.47867 44.6306 9.25924 44.9533C9.03982 45.2759 8.87197 45.6511 8.76529 46.0573C8.65862 46.4636 8.6152 46.8928 8.63754 47.3207C8.65987 47.7485 8.74751 48.1664 8.89545 48.5507C9.19493 49.3275 9.72181 49.9197 10.3604 50.1971C10.9989 50.4744 11.6969 50.4143 12.301 50.0299ZM31.2371 74.4367C31.2762 74.6897 31.3537 74.9303 31.4651 75.1448C31.5765 75.3593 31.7197 75.5434 31.8864 75.6867C32.0531 75.83 32.2402 75.9296 32.4368 75.9799C32.6335 76.0301 32.8359 76.0301 33.0325 75.9797C33.4292 75.8758 33.7776 75.5737 34.0016 75.1398C34.2255 74.7058 34.3065 74.1754 34.227 73.6646C34.1464 73.1553 33.9125 72.7077 33.5762 72.4196C33.2399 72.1316 32.8287 72.0266 32.4325 72.1275C32.0363 72.2304 31.6879 72.5312 31.4638 72.9641C31.2397 73.397 31.1581 73.9266 31.2371 74.4367ZM24.6984 72.6009C24.7577 72.9035 24.8629 73.1881 25.0079 73.4383C25.1529 73.6884 25.3349 73.8993 25.5435 74.0586C25.752 74.218 25.9829 74.3229 26.223 74.3671C26.4631 74.4113 26.7076 74.394 26.9425 74.3163C27.1773 74.2391 27.398 74.1031 27.592 73.9161C27.786 73.7292 27.9494 73.4949 28.0731 73.2266C28.1967 72.9584 28.278 72.6614 28.3124 72.3527C28.3469 72.044 28.3337 71.7296 28.2737 71.4275C28.2137 71.1253 28.1081 70.8413 27.9628 70.5917C27.8175 70.3421 27.6354 70.1317 27.4269 69.9727C27.2185 69.8136 26.9877 69.7089 26.7478 69.6646C26.5079 69.6203 26.2635 69.6373 26.0287 69.7145C25.7941 69.7916 25.5736 69.9274 25.3797 70.1142C25.1859 70.301 25.0225 70.5351 24.899 70.8032C24.7755 71.0712 24.6942 71.3679 24.6598 71.6764C24.6253 71.9848 24.6385 72.299 24.6984 72.6009ZM18.6644 68.8538C18.7531 69.2258 18.8983 69.5714 19.0914 69.8707C19.2845 70.17 19.5218 70.4172 19.7896 70.5978C20.0573 70.7785 20.3503 70.8891 20.6514 70.9233C20.9526 70.9575 21.256 70.9146 21.5443 70.797C21.8332 70.6825 22.1017 70.4956 22.3344 70.2472C22.5671 69.9987 22.7593 69.6935 22.9 69.3492C23.0408 69.0048 23.1273 68.6281 23.1545 68.2406C23.1818 67.8531 23.1493 67.4626 23.059 67.0913C22.8762 66.3413 22.4696 65.7153 21.9284 65.3508C21.3873 64.9862 20.7558 64.9129 20.1727 65.1469C19.8841 65.2622 19.6161 65.4496 19.384 65.6985C19.1519 65.9474 18.9603 66.2528 18.8201 66.5972C18.68 66.9417 18.5941 67.3183 18.5674 67.7055C18.5407 68.0928 18.5736 68.483 18.6644 68.8538ZM13.8515 63.3324C13.9662 63.7354 14.1418 64.1052 14.3681 64.4206C14.5943 64.7359 14.8668 64.9906 15.1699 65.1699C15.4729 65.3491 15.8005 65.4495 16.1339 65.4652C16.4672 65.481 16.7996 65.4117 17.1121 65.2614C17.7301 64.9489 18.2284 64.3372 18.4999 63.5574C18.7714 62.7776 18.7946 61.8919 18.5644 61.0904C18.3342 60.2889 17.8691 59.6354 17.2688 59.2701C16.6685 58.9049 15.9808 58.857 15.3533 59.1367C14.7223 59.4376 14.2098 60.0484 13.9282 60.8349C13.6467 61.6215 13.6191 62.5197 13.8515 63.3324ZM50.1649 66.2118C49.9286 66.4686 49.7792 66.8337 49.7484 67.2298C49.7177 67.6258 49.8078 68.0217 49.9999 68.3337C50.1919 68.6457 50.4708 68.8493 50.7774 68.9015C51.0841 68.9536 51.3944 68.8501 51.6429 68.613C51.771 68.4907 51.8787 68.3365 51.9597 68.1595C52.0406 67.9826 52.0931 67.7865 52.114 67.583C52.1349 67.3794 52.1237 67.1726 52.0813 66.9747C52.0389 66.7768 51.9659 66.5918 51.8669 66.4309C51.7678 66.2699 51.6446 66.1363 51.5046 66.0378C51.3646 65.9393 51.2107 65.878 51.0519 65.8576C50.8932 65.8371 50.7328 65.8579 50.5804 65.9188C50.4281 65.9796 50.2867 66.0793 50.1649 66.2118ZM39.0005 72.405C38.6883 72.4656 38.4075 72.6828 38.2194 73.0091C38.0313 73.3354 37.9513 73.7443 37.9968 74.1463C38.0194 74.3453 38.0722 74.5367 38.1523 74.7095C38.2324 74.8822 38.3382 75.033 38.4637 75.153C38.5891 75.2731 38.7317 75.3602 38.8833 75.4092C39.035 75.4583 39.1926 75.4684 39.3473 75.439C39.5022 75.4104 39.6513 75.3427 39.7859 75.2398C39.9205 75.1369 40.038 75.0008 40.1317 74.8394C40.2254 74.6779 40.2933 74.4943 40.3318 74.299C40.3702 74.1037 40.3782 73.9005 40.3555 73.7012C40.3329 73.5015 40.2798 73.3095 40.1994 73.1363C40.119 72.963 40.0128 72.8118 39.8869 72.6914C39.7611 72.571 39.618 72.4837 39.4659 72.4346C39.3138 72.3854 39.1556 72.3754 39.0005 72.405ZM33.205 10.8555C33.1822 10.656 33.1291 10.4643 33.0486 10.2913C32.9681 10.1184 32.8618 9.96756 32.7359 9.84756C32.61 9.72756 32.4669 9.64074 32.3149 9.59207C32.1628 9.54341 32.0048 9.53386 31.8499 9.56398C31.5376 9.62316 31.2564 9.83955 31.068 10.1656C30.8797 10.4916 30.7998 10.9005 30.8458 11.3024C30.8918 11.7042 31.0599 12.0661 31.3133 12.3084C31.5666 12.5508 31.8844 12.6536 32.1967 12.5945C32.5096 12.5358 32.7915 12.3196 32.9806 11.9936C33.1696 11.6675 33.2504 11.2581 33.205 10.8555ZM21.2287 16.6367C21.032 16.3183 20.7453 16.1131 20.4314 16.066C20.1174 16.0189 19.8018 16.1336 19.5534 16.3852C19.3684 16.5735 19.2309 16.8282 19.1584 17.1171C19.0859 17.4059 19.0815 17.7159 19.146 18.008C19.2104 18.3 19.3406 18.5608 19.5202 18.7576C19.6999 18.9544 19.9208 19.0781 20.1551 19.1133C20.3894 19.1485 20.6266 19.0935 20.8366 18.9552C21.0466 18.8169 21.22 18.6016 21.3349 18.3365C21.4498 18.0714 21.5011 17.7684 21.4821 17.4659C21.4632 17.1633 21.375 16.8747 21.2287 16.6367Z" fill="url(#paint3_linear_1017_693)"/>
<path d="M67.2044 47.051C66.2662 47.0495 65.3669 46.5686 64.7042 45.714C64.0415 44.8595 63.6696 43.7013 63.6704 42.4941C63.6697 41.8962 63.7607 41.304 63.9384 40.7516C64.116 40.1991 64.3767 39.6972 64.7055 39.2748C65.0343 38.8523 65.4247 38.5176 65.8544 38.2899C66.284 38.0622 66.7443 37.9459 67.209 37.9478C67.6736 37.9467 68.1339 38.0637 68.5633 38.292C68.9927 38.5204 69.3829 38.8556 69.7114 39.2784C70.0399 39.7012 70.3003 40.2034 70.4776 40.756C70.655 41.3087 70.7458 41.9009 70.7448 42.4988C70.7443 43.7066 70.3711 44.8646 69.7071 45.7183C69.0432 46.572 68.143 47.0514 67.2044 47.051ZM53.3161 7.79049C53.37 7.46803 53.3739 7.13505 53.3275 6.81067C53.281 6.48629 53.1853 6.17692 53.0456 5.90034C52.9059 5.62376 52.7252 5.38543 52.5137 5.19905C52.3022 5.01267 52.0642 4.88191 51.8133 4.81431C51.5628 4.74414 51.304 4.73841 51.0517 4.79744C50.7994 4.85647 50.5588 4.9791 50.3435 5.15826C50.1282 5.33743 49.9425 5.5696 49.7972 5.84143C49.6519 6.11325 49.5498 6.41936 49.4968 6.74215C49.3887 7.39388 49.4863 8.07413 49.7681 8.63327C50.0498 9.19241 50.4926 9.58463 50.9991 9.72365C51.5056 9.86266 52.0342 9.73709 52.4687 9.37455C52.9033 9.01202 53.2081 8.44221 53.3161 7.79049ZM60.2868 14.2127C60.3359 13.8182 60.3239 13.4151 60.2517 13.0265C60.1795 12.6379 60.0483 12.2714 59.8659 11.9481C59.6834 11.6249 59.4532 11.3511 59.1884 11.1424C58.9235 10.9338 58.6293 10.7945 58.3226 10.7324C57.7097 10.6256 57.0887 10.8318 56.5924 11.3067C56.0962 11.7816 55.7641 12.4876 55.6672 13.2737C55.5703 14.0597 55.7164 14.8632 56.0741 15.5125C56.4318 16.1617 56.9728 16.6049 57.5813 16.7474C58.2012 16.8717 58.834 16.6748 59.3412 16.1996C59.8484 15.7245 60.1884 15.01 60.2868 14.2127ZM69.3861 32.1867C69.4089 31.6381 69.3475 31.089 69.2051 30.571C69.0628 30.053 68.8425 29.5763 68.5567 29.1681C68.2709 28.7599 67.9253 28.4283 67.5398 28.1923C67.1542 27.9562 66.7363 27.8204 66.3099 27.7926C65.8834 27.7624 65.4565 27.8409 65.0536 28.0235C64.6508 28.2062 64.2799 28.4894 63.9624 28.857C63.6448 29.2246 63.3868 29.6693 63.2032 30.1655C63.0196 30.6617 62.914 31.1998 62.8924 31.7487C62.8661 32.3002 62.9249 32.853 63.0656 33.3751C63.2062 33.8973 63.4258 34.3784 63.7117 34.7907C63.9976 35.203 64.3442 35.5383 64.7313 35.7773C65.1185 36.0163 65.5387 36.1543 65.9675 36.1832C66.3963 36.2121 66.8254 36.1314 67.2299 35.9458C67.6344 35.7602 68.0063 35.4733 68.3241 35.1018C68.6419 34.7302 68.8994 34.2812 69.0817 33.7809C69.264 33.2806 69.3674 32.7387 69.3861 32.1867ZM37.0214 1.82514C37.0214 0.811042 36.3837 0 35.5984 0C35.2308 0.0170101 34.8827 0.216872 34.6273 0.557515C34.372 0.898157 34.2292 1.35301 34.2292 1.82632C34.2292 2.29963 34.372 2.75448 34.6273 3.09512C34.8827 3.43577 35.2308 3.63563 35.5984 3.65264C36.3837 3.65264 37.0214 2.83687 37.0214 1.82514ZM51.0014 75.2746C50.7504 75.3433 50.5123 75.4749 50.3008 75.662C50.0893 75.849 49.9086 76.0879 49.7688 76.3648C49.4865 76.9242 49.3885 77.6049 49.4963 78.2573C49.6041 78.9096 49.9089 79.4801 50.3436 79.8433C50.7783 80.2065 51.3073 80.3327 51.8142 80.194C52.3212 80.0553 52.7646 79.6631 53.0468 79.1037C53.3291 78.5444 53.4271 77.8636 53.3193 77.2113C53.2115 76.5589 52.9068 75.9884 52.4721 75.6252C52.0374 75.262 51.5083 75.1359 51.0014 75.2746ZM57.5813 68.255C57.2721 68.3137 56.9751 68.4507 56.7073 68.658C56.4395 68.8653 56.2063 69.1389 56.0211 69.4629C55.836 69.7869 55.7026 70.1549 55.6286 70.5456C55.5547 70.9363 55.5416 71.342 55.5902 71.7393C55.6388 72.1365 55.7482 72.5175 55.9119 72.86C56.0756 73.2026 56.2904 73.5 56.544 73.7351C56.7975 73.9702 57.0848 74.1383 57.3891 74.2297C57.6935 74.3211 58.0089 74.334 58.3171 74.2676C58.9319 74.1352 59.4812 73.6958 59.8455 73.0451C60.2099 72.3943 60.36 71.5848 60.263 70.7924C60.166 70.0001 59.8299 69.2891 59.3278 68.8139C58.8256 68.3388 58.1979 68.1379 57.5813 68.255ZM62.663 59.0632C61.8856 59.1684 61.1725 59.6667 60.6806 60.4484C60.1887 61.2302 59.9583 62.2314 60.0401 63.2317C60.1218 64.2321 60.509 65.1497 61.1166 65.7827C61.7241 66.4156 62.5021 66.7121 63.2795 66.6069C63.6648 66.5558 64.0385 66.4074 64.379 66.17C64.7196 65.9327 65.0204 65.6111 65.2642 65.2238C65.508 64.8365 65.6899 64.3911 65.7996 63.9131C65.9093 63.4351 65.9446 62.934 65.9034 62.4384C65.8214 61.438 65.4339 60.5205 64.8263 59.8875C64.2186 59.2546 63.4405 58.9581 62.663 59.0632ZM65.964 48.8502C65.104 48.9106 64.2978 49.4073 63.722 50.2314C63.1462 51.0556 62.8479 52.1399 62.8924 53.2466C62.9138 53.7956 63.0194 54.3337 63.203 54.83C63.3866 55.3263 63.6446 55.771 63.9621 56.1386C64.2797 56.5063 64.6506 56.7895 65.0535 56.9721C65.4564 57.1547 65.8834 57.233 66.3099 57.2026C66.7362 57.1747 67.1541 57.0388 67.5395 56.8027C67.925 56.5666 68.2704 56.235 68.5561 55.8268C68.8418 55.4186 69.062 54.9419 69.2043 54.424C69.3466 53.9061 69.408 53.3571 69.3851 52.8086C69.3384 51.7004 68.952 50.6612 68.3106 49.9191C67.6693 49.177 66.8253 48.7926 65.964 48.8502ZM35.5984 81.3462C35.2281 81.3583 34.8762 81.5561 34.6176 81.8974C34.359 82.2387 34.2143 82.6964 34.2143 83.1731C34.2143 83.6497 34.359 84.1075 34.6176 84.4488C34.8762 84.7901 35.2281 84.9879 35.5984 85C35.975 85 36.3361 84.8075 36.6023 84.4649C36.8686 84.1223 37.0182 83.6576 37.0182 83.1731C37.0182 82.6886 36.8686 82.2239 36.6023 81.8813C36.3361 81.5387 35.975 81.3462 35.5984 81.3462ZM3.99061 47.051C4.92839 47.0485 5.82707 46.5673 6.48932 45.7129C7.15158 44.8585 7.52326 43.7008 7.52278 42.4941C7.5235 41.8969 7.43264 41.3054 7.2554 40.7535C7.07816 40.2015 6.81803 39.7 6.4899 39.2777C6.16178 38.8554 5.77211 38.5205 5.34324 38.2923C4.91437 38.0641 4.45471 37.947 3.99061 37.9478C3.52574 37.947 3.06531 38.0642 2.63568 38.2926C2.20604 38.5211 1.81563 38.8563 1.48679 39.2791C1.15795 39.702 0.897127 40.2041 0.719256 40.7568C0.541385 41.3094 0.449954 41.9018 0.450196 42.5C0.452138 43.7071 0.825886 44.8639 1.48953 45.717C2.15317 46.5701 3.05257 47.0498 3.99061 47.051ZM20.1954 9.72188C20.7022 9.58332 21.1453 9.19143 21.4275 8.6324C21.7097 8.07338 21.8077 7.39301 21.7 6.74097C21.647 6.41824 21.5449 6.11218 21.3997 5.84034C21.2545 5.5685 21.069 5.33625 20.8538 5.1569C20.6387 4.97756 20.3981 4.85466 20.1459 4.79526C19.8938 4.73586 19.635 4.74113 19.3844 4.81076C19.1338 4.87929 18.8962 5.01066 18.685 5.19737C18.4739 5.38408 18.2934 5.62248 18.1538 5.89895C18.0143 6.17543 17.9184 6.48456 17.8717 6.8087C17.825 7.13285 17.8284 7.46566 17.8816 7.78813C17.9349 8.11059 18.037 8.41641 18.1821 8.68811C18.3272 8.9598 18.5124 9.19207 18.7273 9.37163C18.9422 9.5512 19.1824 9.67455 19.4343 9.73464C19.6862 9.79474 19.9448 9.7904 20.1954 9.72188ZM13.6174 16.745C14.2375 16.6181 14.7932 16.1798 15.1623 15.5261C15.5315 14.8725 15.6839 14.057 15.5862 13.2588C15.5376 12.8637 15.429 12.4849 15.2665 12.1439C15.104 11.8029 14.8908 11.5066 14.6391 11.2718C14.3874 11.037 14.1023 10.8684 13.7999 10.7756C13.4975 10.6829 13.1839 10.6678 12.877 10.7313C12.5703 10.7935 12.2762 10.9329 12.0115 11.1416C11.7468 11.3502 11.5167 11.6241 11.3343 11.9473C11.1519 12.2706 11.0209 12.637 10.9487 13.0255C10.8765 13.414 10.8646 13.8171 10.9137 14.2115C11.0111 15.0088 11.3508 15.7236 11.8578 16.1987C12.3648 16.6738 12.9977 16.8703 13.6174 16.745ZM8.53197 25.9344C9.29551 25.8072 9.99013 25.3009 10.4675 24.5235C10.9448 23.7462 11.167 22.7595 11.0866 21.7742C11.0063 20.7889 10.6297 19.8831 10.0373 19.2502C9.44498 18.6173 8.68379 18.3076 7.91636 18.3872C7.53091 18.4384 7.15711 18.5871 6.81645 18.8247C6.47578 19.0624 6.17495 19.3843 5.93122 19.7719C5.6875 20.1596 5.50569 20.6054 5.39623 21.0837C5.28677 21.562 5.25182 22.0635 5.29339 22.5592C5.33357 23.0546 5.44924 23.5349 5.63379 23.9727C5.81835 24.4105 6.06816 24.7972 6.36894 25.1107C6.66973 25.4242 7.01558 25.6583 7.38673 25.7996C7.75788 25.941 8.14705 25.9868 8.53197 25.9344ZM5.231 36.1463C6.0921 36.0874 6.8998 35.591 7.47662 34.7662C8.05344 33.9414 8.35218 32.8556 8.30719 31.7475C8.2855 31.1981 8.17964 30.6596 7.9957 30.1629C7.81176 29.6663 7.55337 29.2213 7.23537 28.8536C6.91738 28.4859 6.54604 28.2026 6.14271 28.0201C5.73937 27.8377 5.31199 27.7596 4.88512 27.7903C4.45883 27.8187 4.04106 27.9549 3.65573 28.1913C3.27039 28.4276 2.92503 28.7593 2.63941 29.1675C2.3538 29.5758 2.13351 30.0524 1.99117 30.5703C1.84883 31.0881 1.78721 31.637 1.80985 32.1855C1.8556 33.2944 2.24168 34.3345 2.88321 35.0772C3.52475 35.8199 4.36922 36.2045 5.231 36.1463ZM17.8816 77.2083C17.8283 77.531 17.8249 77.8641 17.8716 78.1885C17.9184 78.5129 18.0143 78.8222 18.1539 79.0989C18.2935 79.3756 18.4741 79.6142 18.6854 79.8011C18.8967 79.988 19.1346 80.1195 19.3853 80.1881C19.6361 80.2567 19.8949 80.261 20.147 80.2009C20.3991 80.1408 20.6395 80.0174 20.8546 79.8377C21.0696 79.658 21.255 79.4256 21.4002 79.1537C21.5455 78.8819 21.6476 78.5758 21.701 78.2531C21.8081 77.6013 21.7098 76.9214 21.4277 76.3627C21.1456 75.804 20.7028 75.4123 20.1964 75.2734C19.6901 75.1365 19.1623 75.2632 18.7285 75.6259C18.2947 75.9885 17.9902 76.5575 17.8816 77.2083ZM10.9146 70.7838C10.865 71.1784 10.8766 71.5817 10.9485 71.9705C11.0205 72.3593 11.1515 72.7261 11.3339 73.0496C11.5163 73.3731 11.7467 73.647 12.0116 73.8556C12.2766 74.0643 12.571 74.2034 12.8779 74.2652C13.3397 74.3598 13.813 74.276 14.2378 74.0245C14.6627 73.773 15.02 73.365 15.2646 72.8521C15.5092 72.3392 15.6301 71.7445 15.6121 71.1432C15.594 70.5419 15.4378 69.961 15.1631 69.4739C14.8884 68.9869 14.5077 68.6156 14.069 68.407C13.6304 68.1985 13.1535 68.162 12.6987 68.3022C12.2439 68.4424 11.8317 68.753 11.5141 69.1947C11.1965 69.6364 10.9879 70.1894 10.9146 70.7838ZM5.29339 62.4408C5.25196 62.9361 5.287 63.4372 5.39649 63.9151C5.50599 64.393 5.68778 64.8384 5.93142 65.2256C6.17507 65.6128 6.47576 65.9343 6.81624 66.1716C7.15672 66.4088 7.53027 66.5572 7.91544 66.6081C8.30048 66.6611 8.68985 66.6158 9.06126 66.4748C9.43267 66.3338 9.7788 66.0999 10.0798 65.7865C10.3809 65.4731 10.6309 65.0863 10.8155 64.6483C11.0001 64.2103 11.1158 63.7297 11.1559 63.2341C11.1963 62.7385 11.1605 62.2376 11.0504 61.7598C10.9404 61.2821 10.7583 60.8369 10.5146 60.4497C10.2708 60.0625 9.97023 59.7409 9.62989 59.5032C9.28955 59.2655 8.91617 59.1164 8.53105 59.0644C8.14609 59.0119 7.75686 59.0576 7.38567 59.199C7.01447 59.3404 6.66859 59.5746 6.36784 59.8882C6.06709 60.2019 5.81738 60.5888 5.63301 61.0268C5.44863 61.4648 5.33322 61.9453 5.29339 62.4408ZM1.80985 52.8074C1.78697 53.356 1.84842 53.9049 1.99068 54.4228C2.13295 54.9407 2.35323 55.4174 2.6389 55.8256C2.92458 56.2338 3.27004 56.5654 3.65548 56.8015C4.04093 57.0376 4.45879 57.1735 4.88512 57.2015C5.312 57.2327 5.73946 57.1549 6.1429 56.9727C6.54633 56.7905 6.91777 56.5074 7.23583 56.1397C7.55389 55.772 7.8123 55.327 7.99617 54.8302C8.18004 54.3335 8.28574 53.7949 8.30719 53.2454C8.35143 52.1378 8.05238 51.0528 7.47566 50.2286C6.89895 49.4044 6.09167 48.9082 5.231 48.849C4.36983 48.7924 3.5263 49.1771 2.8851 49.919C2.2439 50.6609 1.85726 51.6995 1.80985 52.8074ZM43.3838 79.8917C42.9932 80.0271 42.6601 80.3562 42.4577 80.807C42.2553 81.2577 42.2 81.7934 42.304 82.2965C42.4093 82.7989 42.6653 83.2269 43.0157 83.4866C43.3661 83.7463 43.7823 83.8163 44.1729 83.6813C44.3667 83.6155 44.5486 83.5011 44.7081 83.3446C44.8675 83.1881 45.0013 82.9927 45.1019 82.7694C45.2025 82.5462 45.2678 82.2997 45.2942 82.0439C45.3205 81.7881 45.3074 81.5281 45.2554 81.2789C45.1501 80.7756 44.8938 80.3468 44.5428 80.0867C44.1919 79.8265 43.775 79.7564 43.3838 79.8917ZM27.8111 79.8917C27.4239 79.7698 27.015 79.8479 26.672 80.1093C26.329 80.3706 26.0791 80.7944 25.976 81.2899C25.8728 81.7853 25.9245 82.3131 26.1201 82.7601C26.3156 83.2071 26.6394 83.5378 27.0221 83.6813C27.2171 83.7544 27.4214 83.7767 27.6231 83.7468C27.8248 83.717 28.0199 83.6356 28.1968 83.5074C28.3737 83.3793 28.529 83.2069 28.6535 83.0005C28.7779 82.7941 28.8691 82.5578 28.9217 82.3054C28.9742 82.053 28.9871 81.7897 28.9595 81.5308C28.9318 81.272 28.8643 81.0228 28.7609 80.798C28.6575 80.5732 28.5202 80.3772 28.3571 80.2216C28.194 80.066 28.0084 79.9538 27.8111 79.8917ZM45.2564 3.71993C45.308 3.47063 45.321 3.21067 45.2944 2.95493C45.2679 2.69919 45.2025 2.45269 45.1018 2.22953C45.0012 2.00638 44.8673 1.81096 44.7079 1.65446C44.5485 1.49797 44.3667 1.38346 44.1729 1.3175C43.7889 1.20772 43.3868 1.293 43.0505 1.55554C42.7143 1.81808 42.4698 2.23759 42.3681 2.72652C42.2664 3.21544 42.3154 3.73601 42.5048 4.17957C42.6943 4.62314 43.0095 4.95542 43.3848 5.10708C43.5784 5.1744 43.7805 5.19191 43.9795 5.15861C44.1784 5.1253 44.3703 5.04184 44.5441 4.913C44.718 4.78415 44.8704 4.61245 44.9926 4.40773C45.1148 4.20301 45.2044 3.96928 45.2564 3.71993ZM28.8937 2.70111C28.8417 2.45191 28.752 2.21837 28.6297 2.01388C28.5074 1.80938 28.355 1.63795 28.1811 1.50941C28.0072 1.38088 27.8154 1.29776 27.6165 1.26483C27.4176 1.2319 27.2156 1.24979 27.0221 1.3175C26.8287 1.38357 26.6474 1.49807 26.4884 1.65444C26.3294 1.81081 26.1959 2.00599 26.0956 2.2288C25.9953 2.45162 25.9302 2.69769 25.9039 2.95295C25.8776 3.20821 25.8906 3.46764 25.9423 3.71639C25.9941 3.96576 26.0836 4.19956 26.2056 4.40443C26.3276 4.60931 26.4798 4.78125 26.6535 4.91045C26.8272 5.03964 27.0189 5.12355 27.2178 5.15739C27.4166 5.19123 27.6187 5.17434 27.8125 5.10767C28.0063 5.04101 28.188 4.92588 28.3472 4.76886C28.5064 4.61184 28.6401 4.41601 28.7405 4.19254C28.8409 3.96907 28.9061 3.72234 28.9324 3.46644C28.9587 3.21054 28.9455 2.95048 28.8937 2.70111Z" fill="url(#paint4_linear_1017_693)"/>
</g>
<defs>
<linearGradient id="paint0_linear_1017_693" x1="44.427" y1="35.9936" x2="23.3319" y2="44.849" gradientUnits="userSpaceOnUse">
<stop stop-color="#FF9100"/>
<stop offset="0.05" stop-color="#FF8D00"/>
<stop offset="0.25" stop-color="#FF8300"/>
<stop offset="0.5" stop-color="#FF8000"/>
<stop offset="0.75" stop-color="#FF8300"/>
<stop offset="0.95" stop-color="#FF8D00"/>
<stop offset="1" stop-color="#FF9100"/>
</linearGradient>
<linearGradient id="paint1_linear_1017_693" x1="49.7007" y1="47.828" x2="20.5794" y2="41.1814" gradientUnits="userSpaceOnUse">
<stop stop-color="#FF9100"/>
<stop offset="0.05" stop-color="#FF8D00"/>
<stop offset="0.25" stop-color="#FF8300"/>
<stop offset="0.5" stop-color="#FF8000"/>
<stop offset="0.75" stop-color="#FF8300"/>
<stop offset="0.95" stop-color="#FF8D00"/>
<stop offset="1" stop-color="#FF9100"/>
</linearGradient>
<linearGradient id="paint2_linear_1017_693" x1="49.4316" y1="60.2881" x2="14.9514" y2="33.4924" gradientUnits="userSpaceOnUse">
<stop stop-color="#FF9100"/>
<stop offset="0.05" stop-color="#FF8D00"/>
<stop offset="0.25" stop-color="#FF8300"/>
<stop offset="0.5" stop-color="#FF8000"/>
<stop offset="0.75" stop-color="#FF8300"/>
<stop offset="0.95" stop-color="#FF8D00"/>
<stop offset="1" stop-color="#FF9100"/>
</linearGradient>
<linearGradient id="paint3_linear_1017_693" x1="45.8117" y1="72.9744" x2="15.1415" y2="17.7187" gradientUnits="userSpaceOnUse">
<stop stop-color="#FF9100"/>
<stop offset="0.05" stop-color="#FF8D00"/>
<stop offset="0.25" stop-color="#FF8300"/>
<stop offset="0.5" stop-color="#FF8000"/>
<stop offset="0.75" stop-color="#FF8300"/>
<stop offset="0.95" stop-color="#FF8D00"/>
<stop offset="1" stop-color="#FF9100"/>
</linearGradient>
<linearGradient id="paint4_linear_1017_693" x1="35.5975" y1="85" x2="35.5975" y2="0" gradientUnits="userSpaceOnUse">
<stop stop-color="#FF9100"/>
<stop offset="0.05" stop-color="#FF8D00"/>
<stop offset="0.25" stop-color="#FF8300"/>
<stop offset="0.5" stop-color="#FF8000"/>
<stop offset="0.75" stop-color="#FF8300"/>
<stop offset="0.95" stop-color="#FF8D00"/>
<stop offset="1" stop-color="#FF9100"/>
</linearGradient>
<clipPath id="clip0_1017_693">
<rect width="230" height="85" fill="white" transform="translate(0.410156)"/>
</clipPath>
</defs>
</svg>
