<svg width="101" height="76" viewBox="0 0 101 76" fill="none" xmlns="http://www.w3.org/2000/svg">
<g clip-path="url(#clip0_1017_665)">
<path d="M41.8272 8.68743C45.0491 5.10659 49.5346 2.88583 54.4955 2.88583C61.09 2.88583 66.8435 6.80821 69.9074 12.6311C72.57 11.3621 75.5172 10.6562 78.618 10.6562C90.5121 10.6562 100.155 21.0314 100.155 33.8292C100.155 46.6286 90.5121 57.0037 78.618 57.0037C77.1665 57.0037 75.7477 56.8489 74.3758 56.5529C71.6777 61.6866 66.5361 65.1551 60.6346 65.1551C58.1641 65.1551 55.8275 64.5464 53.7469 63.4641C51.0118 70.3268 44.6392 75.1387 37.2122 75.1387C29.4778 75.1387 22.8861 69.9184 20.3558 62.5974C19.2501 62.8478 18.1045 62.9784 16.9291 62.9784C7.72034 62.9784 0.254883 54.9333 0.254883 45.0074C0.254883 38.3557 3.60908 32.5481 8.59269 29.4408C7.56665 26.9225 6.996 24.1432 6.996 21.2211C6.996 9.80616 15.6839 0.552742 26.3997 0.552742C32.6911 0.552742 38.2823 3.74347 41.8272 8.68743Z" fill="#00A1E0"/>
<path d="M14.7242 39.2319C14.6616 39.4065 14.747 39.4429 14.7669 39.4733C14.9548 39.619 15.1455 39.7237 15.3376 39.8406C16.3565 40.4174 17.3185 40.5859 18.3246 40.5859C20.3739 40.5859 21.6461 39.4232 21.6461 37.5516V37.5151C21.6461 35.7847 20.2102 35.1562 18.8625 34.7024L18.6875 34.6417C17.6714 34.2895 16.7948 33.9859 16.7948 33.2725V33.2345C16.7948 32.6243 17.3071 32.175 18.1012 32.175C18.9835 32.175 20.0309 32.4877 20.7054 32.8854C20.7054 32.8854 20.9032 33.022 20.9758 32.8171C21.0157 32.7078 21.3572 31.7272 21.3928 31.6209C21.4312 31.5056 21.3629 31.4206 21.2932 31.375C20.5233 30.8756 19.4588 30.5341 18.3574 30.5341L18.1524 30.5356C16.2768 30.5356 14.9676 31.7439 14.9676 33.4759V33.5123C14.9676 35.3384 16.412 35.9304 17.7654 36.3433L17.9831 36.4146C18.9693 36.7379 19.8189 37.0157 19.8189 37.7565V37.7929C19.8189 38.4699 19.2667 38.9739 18.3759 38.9739C18.03 38.9739 16.9272 38.9663 15.736 38.1633C15.5923 38.0737 15.5084 38.0085 15.3974 37.9371C15.339 37.8976 15.1924 37.8293 15.1284 38.0358L14.7242 39.2319Z" fill="white"/>
<path d="M44.7242 39.2319C44.6616 39.4065 44.747 39.4429 44.7669 39.4733C44.9548 39.619 45.1455 39.7237 45.3376 39.8406C46.3565 40.4174 47.3185 40.5859 48.3246 40.5859C50.3739 40.5859 51.6461 39.4232 51.6461 37.5516V37.5151C51.6461 35.7847 50.2102 35.1562 48.8625 34.7024L48.6875 34.6417C47.6714 34.2895 46.7948 33.9859 46.7948 33.2725V33.2345C46.7948 32.6243 47.3071 32.175 48.1012 32.175C48.9835 32.175 50.0309 32.4877 50.7054 32.8854C50.7054 32.8854 50.9032 33.022 50.9758 32.8171C51.0157 32.7078 51.3572 31.7272 51.3928 31.6209C51.4312 31.5056 51.3629 31.4206 51.2932 31.375C50.5233 30.8756 49.4588 30.5341 48.3574 30.5341L48.1524 30.5356C46.2768 30.5356 44.9676 31.7439 44.9676 33.4759V33.5123C44.9676 35.3384 46.412 35.9304 47.7654 36.3433L47.9831 36.4146C48.9693 36.7379 49.8203 37.0157 49.8203 37.7565V37.7929C49.8203 38.4699 49.2667 38.9739 48.3759 38.9739C48.03 38.9739 46.9272 38.9663 45.736 38.1633C45.5923 38.0737 45.5069 38.0115 45.3988 37.9371C45.3618 37.9113 45.1882 37.84 45.1284 38.0358L44.7242 39.2319Z" fill="white"/>
<path d="M65.2045 35.5658C65.2045 36.6238 65.0195 37.4572 64.6552 38.0462C64.2951 38.6291 63.7501 38.9129 62.9902 38.9129C62.2288 38.9129 61.6866 38.6306 61.3323 38.0462C60.9737 37.4587 60.7915 36.6238 60.7915 35.5658C60.7915 34.5093 60.9737 33.6775 61.3323 33.0946C61.6866 32.5178 62.2288 32.237 62.9902 32.237C63.7501 32.237 64.2951 32.5178 64.6566 33.0946C65.0195 33.6775 65.2045 34.5093 65.2045 35.5658ZM66.915 33.6046C66.7471 32.999 66.4852 32.4647 66.1366 32.0199C65.7879 31.5736 65.3468 31.2154 64.8231 30.9543C64.3008 30.6947 63.6832 30.5627 62.9902 30.5627C62.2957 30.5627 61.6781 30.6947 61.1558 30.9543C60.6321 31.2154 60.191 31.5736 59.8409 32.0199C59.4937 32.4662 59.2318 33.0005 59.0625 33.6046C58.896 34.2073 58.812 34.8661 58.812 35.5658C58.812 36.2656 58.896 36.9259 59.0625 37.527C59.2318 38.1312 59.4922 38.6655 59.8423 39.1118C60.191 39.558 60.6335 39.9148 61.1558 40.1683C61.6795 40.4218 62.2957 40.5508 62.9902 40.5508C63.6832 40.5508 64.2994 40.4218 64.8231 40.1683C65.3454 39.9148 65.7879 39.558 66.1366 39.1118C66.4852 38.667 66.7471 38.1327 66.915 37.527C67.0829 36.9244 67.1669 36.2641 67.1669 35.5658C67.1669 34.8676 67.0829 34.2073 66.915 33.6046Z" fill="white"/>
<path d="M80.9619 38.6293C80.905 38.4517 80.7442 38.5185 80.7442 38.5185C80.4952 38.6202 80.2305 38.7143 79.9487 38.7613C79.6627 38.8084 79.3482 38.8327 79.0109 38.8327C78.1827 38.8327 77.5252 38.5701 77.0542 38.0509C76.5817 37.5318 76.317 36.6924 76.3199 35.5569C76.3227 34.5232 76.5561 33.746 76.9759 33.154C77.3929 32.5651 78.0276 32.263 78.8743 32.263C79.5801 32.263 80.1181 32.3495 80.6816 32.5393C80.6816 32.5393 80.8168 32.6015 80.8808 32.4133C81.0302 31.97 81.1412 31.6528 81.3006 31.1655C81.3462 31.0274 81.2352 30.9682 81.1953 30.9515C80.9733 30.8589 80.4496 30.7086 80.054 30.6449C79.684 30.5841 79.2514 30.5523 78.7704 30.5523C78.0517 30.5523 77.4114 30.6828 76.8635 30.9439C76.317 31.2035 75.8531 31.5617 75.4859 32.008C75.1188 32.4543 74.8399 32.9886 74.6534 33.5927C74.4684 34.1953 74.3745 34.8572 74.3745 35.5569C74.3745 37.0703 74.7573 38.2938 75.513 39.1894C76.2701 40.088 77.4071 40.5449 78.8899 40.5449C79.7666 40.5449 80.6659 40.3552 81.312 40.0835C81.312 40.0835 81.4358 40.0197 81.3817 39.8664L80.9619 38.6293Z" fill="white"/>
<path d="M83.9548 34.5523C84.0359 33.9648 84.1882 33.476 84.423 33.095C84.7773 32.5167 85.3181 32.1994 86.078 32.1994C86.8379 32.1994 87.3403 32.5182 87.7003 33.095C87.9394 33.476 88.0433 33.9861 88.0845 34.5523H83.9548ZM89.714 33.2605C89.5688 32.6761 89.2088 32.0856 88.9725 31.8154C88.5997 31.3873 88.2354 31.0883 87.8739 30.9213C87.4015 30.7058 86.8351 30.5631 86.2146 30.5631C85.4917 30.5631 84.8357 30.6921 84.3034 30.9593C83.7698 31.2264 83.3215 31.5908 82.97 32.0446C82.6185 32.497 82.3538 33.0358 82.1859 33.6476C82.0165 34.2563 81.9312 34.9196 81.9312 35.6194C81.9312 36.3313 82.0194 36.9946 82.1944 37.5912C82.3709 38.1923 82.6527 38.7221 83.034 39.1608C83.414 39.6025 83.9035 39.9486 84.4898 40.1899C85.0719 40.4298 85.7792 40.5542 86.5917 40.5527C88.2638 40.5466 89.1447 40.1489 89.5076 39.9349C89.5717 39.897 89.6328 39.8302 89.556 39.6389L89.1775 38.508C89.1205 38.3396 88.9597 38.4018 88.9597 38.4018C88.5456 38.5657 87.9565 38.8602 86.5832 38.8572C85.6852 38.8557 85.0192 38.5733 84.6023 38.1316C84.1739 37.6792 83.9647 37.0144 83.9277 36.0763L89.7182 36.0824C89.7182 36.0824 89.8705 36.0793 89.8861 35.9215C89.8918 35.8547 90.0854 34.6525 89.714 33.2605Z" fill="white"/>
<path d="M37.5812 34.5523C37.6638 33.9648 37.8146 33.476 38.0494 33.095C38.4038 32.5167 38.9445 32.1994 39.7045 32.1994C40.4644 32.1994 40.9667 32.5182 41.3282 33.095C41.5658 33.476 41.6697 33.9861 41.711 34.5523H37.5812ZM43.339 33.2605C43.1939 32.6761 42.8352 32.0856 42.599 31.8154C42.2262 31.3873 41.8618 31.0883 41.5004 30.9213C41.0279 30.7058 40.4615 30.5631 39.8411 30.5631C39.1196 30.5631 38.4621 30.6921 37.9299 30.9593C37.3962 31.2264 36.948 31.5908 36.5965 32.0446C36.245 32.497 35.9803 33.0358 35.8123 33.6476C35.6444 34.2563 35.5576 34.9196 35.5576 35.6194C35.5576 36.3313 35.6458 36.9946 35.8209 37.5912C35.9973 38.1923 36.2791 38.7221 36.6605 39.1608C37.0405 39.6025 37.53 39.9486 38.1163 40.1899C38.6983 40.4298 39.4056 40.5542 40.2182 40.5527C41.8903 40.5466 42.7712 40.1489 43.1341 39.9349C43.1981 39.897 43.2593 39.8302 43.1825 39.6389L42.8053 38.508C42.747 38.3396 42.5862 38.4018 42.5862 38.4018C42.1721 38.5657 41.5843 38.8602 40.2082 38.8572C39.3117 38.8557 38.6457 38.5733 38.2287 38.1316C37.8004 37.6792 37.5912 37.0144 37.5542 36.0763L43.3447 36.0824C43.3447 36.0824 43.497 36.0793 43.5126 35.9215C43.5183 35.8547 43.7119 34.6525 43.339 33.2605Z" fill="white"/>
<path d="M25.0648 38.5957C24.8385 38.4029 24.8072 38.3543 24.7304 38.2298C24.6165 38.0401 24.5582 37.7699 24.5582 37.4268C24.5582 36.8834 24.7261 36.4933 25.0748 36.2307C25.0705 36.2322 25.5728 35.7677 26.754 35.7844C27.5837 35.7966 28.3251 35.9271 28.3251 35.9271V38.7353H28.3265C28.3265 38.7353 27.5908 38.9038 26.7625 38.9569C25.5842 39.0328 25.0605 38.5941 25.0648 38.5957ZM27.3688 34.2558C27.134 34.2376 26.8294 34.227 26.4651 34.227C25.9685 34.227 25.4889 34.2938 25.0392 34.4228C24.5867 34.5518 24.1797 34.7537 23.8296 35.0209C23.4781 35.2896 23.1949 35.6326 22.99 36.0394C22.785 36.4462 22.6812 36.9259 22.6812 37.4633C22.6812 38.0097 22.7694 38.4849 22.9458 38.8734C23.1223 39.2636 23.377 39.5884 23.7015 39.8389C24.0231 40.0893 24.4202 40.273 24.8812 40.3838C25.3352 40.4946 25.8503 40.5508 26.4139 40.5508C27.0073 40.5508 27.5993 40.4992 28.1728 40.3944C28.7406 40.2912 29.4379 40.1409 29.6315 40.0939C29.8236 40.0453 30.037 39.9831 30.037 39.9831C30.1808 39.9451 30.1694 39.7812 30.1694 39.7812L30.1665 34.1329C30.1665 32.8942 29.8563 31.9759 29.2458 31.4067C28.6382 30.8389 27.743 30.5521 26.5861 30.5521C26.152 30.5521 25.4533 30.6158 25.0349 30.7054C25.0349 30.7054 23.7698 30.9665 23.249 31.4006C23.249 31.4006 23.1351 31.4765 23.1977 31.6465L23.6076 32.8214C23.6588 32.9732 23.7968 32.9216 23.7968 32.9216C23.7968 32.9216 23.841 32.9034 23.8922 32.8715C25.0065 32.2248 26.4153 32.2446 26.4153 32.2446C27.0415 32.2446 27.5225 32.3781 27.8469 32.6438C28.1628 32.9018 28.3237 33.2919 28.3237 34.1147V34.3758C27.8256 34.2999 27.3688 34.2558 27.3688 34.2558Z" fill="white"/>
<path d="M74.0716 31.0734C74.1157 30.9338 74.0232 30.867 73.9848 30.8518C73.8866 30.8108 73.3942 30.7 73.0143 30.6742C72.2871 30.6271 71.8829 30.7577 71.5214 30.9307C71.1628 31.1038 70.7644 31.3831 70.5424 31.7003V30.949C70.5424 30.8442 70.4726 30.7607 70.3759 30.7607H68.8916C68.7948 30.7607 68.7251 30.8442 68.7251 30.949V40.1614C68.7251 40.2646 68.8048 40.3496 68.9016 40.3496H70.4228C70.5196 40.3496 70.5979 40.2646 70.5979 40.1614V35.559C70.5979 34.9412 70.6619 34.3249 70.79 33.9378C70.9152 33.5553 71.086 33.2486 71.2966 33.0285C71.5086 32.81 71.7491 32.6566 72.0124 32.5701C72.2814 32.4821 72.5788 32.4532 72.7894 32.4532C73.0925 32.4532 73.4255 32.5367 73.4255 32.5367C73.5365 32.5504 73.5991 32.4775 73.6361 32.3698C73.7357 32.0874 74.0175 31.2419 74.0716 31.0734Z" fill="white"/>
<path d="M59.7925 26.8029C59.6075 26.7422 59.4396 26.7012 59.2204 26.6572C58.9984 26.6147 58.7338 26.5934 58.4335 26.5934C57.3861 26.5934 56.5607 26.9091 55.9815 27.5315C55.4052 28.1508 55.0138 29.0935 54.8174 30.3336L54.7463 30.7511H53.4314C53.4314 30.7511 53.272 30.745 53.2378 30.9302L53.0229 32.2159C53.0073 32.3373 53.0571 32.4147 53.2108 32.4147H54.4901L53.1923 40.1441C53.0912 40.7665 52.9746 41.278 52.8451 41.6666C52.7184 42.0492 52.5946 42.336 52.4409 42.5455C52.2929 42.7459 52.1534 42.8947 51.9115 42.9812C51.7123 43.0525 51.4817 43.0859 51.2299 43.0859C51.0904 43.0859 50.904 43.0616 50.7659 43.0313C50.6293 43.0024 50.5567 42.9705 50.4529 42.9235C50.4529 42.9235 50.3034 42.8628 50.2437 43.0222C50.1967 43.1542 49.8552 44.1546 49.8139 44.2775C49.7741 44.4005 49.831 44.4961 49.9036 44.5249C50.0743 44.5887 50.201 44.6312 50.4329 44.6904C50.7546 44.7708 51.0264 44.7754 51.2811 44.7754C51.8133 44.7754 52.3 44.6949 52.7027 44.5401C53.1069 44.3838 53.4598 44.112 53.7729 43.7447C54.1102 43.347 54.3222 42.9311 54.5243 42.3619C54.7249 41.8002 54.8971 41.102 55.0338 40.2883L56.3387 32.4147H58.2456C58.2456 32.4147 58.4064 32.4208 58.4392 32.2341L58.6555 30.9499C58.6697 30.827 58.6213 30.7511 58.4662 30.7511H56.6148C56.6248 30.707 56.7087 30.0118 56.9207 29.3576C57.0118 29.0798 57.1826 28.8536 57.3263 28.6988C57.4686 28.547 57.6323 28.4392 57.8116 28.377C57.9952 28.3132 58.2044 28.2829 58.4335 28.2829C58.6071 28.2829 58.7793 28.3041 58.9088 28.333C59.0881 28.374 59.1578 28.3952 59.2048 28.4104C59.3941 28.4711 59.4197 28.4119 59.4567 28.3148L59.8993 27.0184C59.9448 26.8788 59.8324 26.8196 59.7925 26.8029Z" fill="white"/>
<path d="M33.9242 40.1609C33.9242 40.2642 33.8545 40.3477 33.7577 40.3477H32.2222C32.1254 40.3477 32.0571 40.2642 32.0571 40.1609V26.9791C32.0571 26.8759 32.1254 26.7924 32.2222 26.7924H33.7577C33.8545 26.7924 33.9242 26.8759 33.9242 26.9791V40.1609Z" fill="white"/>
</g>
<defs>
<clipPath id="clip0_1017_665">
<rect width="100" height="75" fill="white" transform="translate(0.205078 0.5)"/>
</clipPath>
</defs>
</svg>
