<svg width="165" height="65" viewBox="0 0 165 65" fill="none" xmlns="http://www.w3.org/2000/svg">
<path d="M164.897 15.4775C167.145 30.7614 132.078 50.7757 86.5649 60.1799C41.0586 69.5841 2.34606 64.8132 0.101946 49.5213C-2.14216 34.2374 32.9348 14.2271 78.4411 4.82692C123.951 -4.58539 162.657 0.189554 164.897 15.4775Z" fill="#034EA2"/>
<path d="M122.065 38.1623L121.833 22.2715H126.055V42.302H119.984L115.769 25.8648H115.677L115.912 42.302H111.714V22.2715H118.051L121.973 38.1623H122.065Z" fill="white"/>
<path d="M45.2944 24.1491L42.9582 42.5124H38.3506L41.5121 22.2715H49.1005L52.2518 42.5124H47.6613L45.3899 24.1491H45.2944Z" fill="white"/>
<path d="M65.1881 37.7456L67.2958 22.2715H74.2532L74.6215 42.5124H70.3584L70.2459 24.315H70.1572L67.306 42.5124H62.9781L60.1235 24.315H60.0314L59.9257 42.5124H55.6523L56.0309 22.2715H62.9917L65.096 37.7456H65.1881Z" fill="white"/>
<path d="M31.1682 36.8034C31.3353 37.293 31.2842 37.9243 31.2057 38.3047C31.0625 38.9764 30.6771 39.6643 29.5448 39.6643C28.4739 39.6643 27.8259 38.9359 27.8259 37.8272V35.8686H23.249L23.2456 37.4347C23.2456 41.9466 26.24 43.3103 29.4493 43.3103C32.5358 43.3103 35.0766 42.0599 35.4791 38.685C35.6871 36.9369 35.5302 35.7917 35.462 35.3588C34.7424 31.122 28.2659 29.8554 27.785 27.4882C27.7031 27.0835 27.727 26.6506 27.7679 26.4199C27.8873 25.7765 28.259 25.0643 29.3265 25.0643C30.3224 25.0643 30.9124 25.7967 30.9124 26.9014C30.9124 27.2737 30.9124 28.1518 30.9124 28.1518H35.1653V26.7315C35.1653 22.3207 31.8298 21.6328 29.4152 21.6328C26.3799 21.6328 23.9004 22.8225 23.4468 26.1164C23.324 27.0269 23.307 27.8362 23.4843 28.8519C24.2312 32.9834 30.2883 34.1812 31.1682 36.8034Z" fill="white"/>
<path d="M86.64 36.7671C86.8072 37.2527 86.7526 37.8678 86.6776 38.2481C86.5377 38.9199 86.1557 39.5956 85.0303 39.5956C83.9764 39.5956 83.3319 38.8673 83.3319 37.7828L83.3284 35.8404H78.7993L78.7925 37.3862C78.7925 41.8536 81.7596 43.2011 84.9348 43.2011C87.9872 43.2011 90.5041 41.9669 90.9032 38.6245C91.1112 36.8885 90.9646 35.7595 90.8895 35.3346C90.1733 31.1383 83.765 29.8839 83.2875 27.5369C83.2057 27.1322 83.2295 26.7073 83.2705 26.4888C83.3932 25.8373 83.7582 25.1454 84.8154 25.1454C85.8045 25.1454 86.3808 25.8575 86.3808 26.9582C86.3808 27.3265 86.3808 28.1965 86.3808 28.1965H90.603V26.7883C90.603 22.4261 87.2949 21.7422 84.9007 21.7422C81.8994 21.7422 79.4405 22.9157 78.9971 26.1894C78.8743 27.0877 78.8607 27.8808 79.038 28.8925C79.7713 32.9836 85.7704 34.1732 86.64 36.7671Z" fill="white"/>
<path d="M100.967 39.4859C102.151 39.4859 102.519 38.5147 102.601 38.017C102.635 37.7984 102.645 37.5071 102.642 37.2441V22.2637H106.956V36.7828C106.966 37.155 106.936 37.9198 106.919 38.11C106.615 41.8895 104.098 43.1156 100.964 43.1156C97.8263 43.1156 95.3059 41.8895 95.0058 38.11C94.9921 37.9198 94.9614 37.151 94.9683 36.7828V22.2637H99.2791V37.24C99.2791 37.503 99.2859 37.7984 99.3201 38.0129C99.4155 38.5106 99.7737 39.4859 100.967 39.4859Z" fill="white"/>
<path d="M136.556 39.2726C137.791 39.2726 138.224 38.346 138.302 37.8078C138.333 37.5771 138.343 37.2938 138.34 37.0389V34.1011H136.59V31.1471H142.64V36.5816C142.637 36.962 142.63 37.2412 142.579 37.917C142.296 41.5994 139.602 42.9145 136.58 42.9145C133.551 42.9145 130.864 41.5994 130.574 37.917C130.526 37.2412 130.52 36.962 130.513 36.5816L130.516 28.0596C130.516 27.6994 130.554 27.0641 130.588 26.7242C130.966 22.9407 133.551 21.7227 136.58 21.7227C139.605 21.7227 142.255 22.9326 142.569 26.7242C142.623 27.3676 142.606 28.0596 142.606 28.0596V28.7354H138.306V27.6023C138.309 27.6064 138.299 27.1208 138.251 26.8335C138.179 26.3843 137.852 25.3565 136.549 25.3565C135.304 25.3565 134.943 26.3276 134.851 26.8335C134.8 27.1005 134.779 27.4607 134.779 27.7885V37.047C134.776 37.3019 134.789 37.5852 134.824 37.8159C134.892 38.346 135.321 39.2726 136.556 39.2726Z" fill="white"/>
</svg>
