<svg width="121" height="66" viewBox="0 0 121 66" fill="none" xmlns="http://www.w3.org/2000/svg">
<g clip-path="url(#clip0_1017_714)">
<path d="M11.1157 4.06641V61.6922H66.497L120.705 4.07289H11.1157V4.06641Z" fill="url(#paint0_linear_1017_714)"/>
<path d="M81.2643 55.8023V60.1007H81.8746V58.235H82.5606L83.6665 60.1007H84.3537L83.1709 58.235C83.7617 58.1571 84.239 57.7913 84.239 57.018C84.239 56.1721 83.7507 55.8023 82.7901 55.8023H81.2643ZM81.8746 56.3706H82.7132C83.1257 56.3706 83.5908 56.4406 83.5908 56.9778C83.5908 57.6485 83.1196 57.7082 82.5984 57.7082H81.8746V56.3706ZM82.6375 54.2207C80.7016 54.2207 79.0513 55.8062 79.0513 57.9508C79.0513 60.1111 80.7016 61.7212 82.6375 61.7212C83.1019 61.7224 83.5618 61.6255 83.9906 61.4359C84.4194 61.2464 84.8084 60.9681 85.135 60.6172C85.4616 60.2663 85.7192 59.8498 85.893 59.3921C86.0667 58.9343 86.153 58.4444 86.1468 57.9508C86.1468 55.8062 84.5466 54.2207 82.6375 54.2207ZM82.6375 54.8292C84.217 54.8292 85.4596 56.185 85.4596 57.9508C85.4596 59.7465 84.217 61.0725 82.6375 61.0725C81.0311 61.0725 79.7385 59.7465 79.7385 57.9508C79.7385 56.1863 81.0311 54.8292 82.6375 54.8292Z" fill="#1870C5"/>
<path fill-rule="evenodd" clip-rule="evenodd" d="M76.7818 31.6404H74.4065V22.4065H76.7818C79.953 22.4065 82.4773 23.5171 82.4773 26.9644C82.4773 30.5246 79.953 31.6404 76.7818 31.6404ZM51.2157 38.2418C50.0365 38.2459 48.8661 38.0253 47.7601 37.5904L51.1815 26.1211H51.2548L54.6054 37.6216C53.5185 38.0329 52.3731 38.2427 51.2194 38.2418M76.152 14.9047H65.3653V42.1678L55.942 14.9047H46.6017L38.5505 37.6981C37.6997 31.9531 32.1006 29.9641 27.699 28.4811C24.7976 27.4886 21.7094 26.0303 21.7375 24.4149C21.7619 23.0942 23.3963 21.8694 26.62 22.0523C28.7927 22.1691 30.7091 22.3559 34.5138 24.3112L38.2612 17.3724C34.7897 15.4873 29.9792 14.304 26.0439 14.2949H26.0195C21.4287 14.2949 17.6032 15.8856 15.2303 18.4895C13.5812 20.3111 12.689 22.6154 12.6487 25.1804C12.5876 28.6939 13.8046 31.1876 16.3521 33.1817C18.5077 34.8606 21.2578 35.9414 23.6868 36.751C26.6835 37.7332 29.1296 38.5908 29.1015 40.4189C29.0771 41.0844 28.844 41.7085 28.3911 42.2015C27.6453 43.0254 26.4992 43.3303 24.9136 43.3679C21.8571 43.4328 19.5904 42.9268 15.9798 40.6589L12.6487 47.6949C16.3715 49.9429 20.577 51.132 24.8586 51.1474H25.4213C29.2053 51.0695 32.2618 49.9213 34.7042 47.835L35.0997 47.4678L34.0207 50.5506H43.8163L45.4617 45.2324C47.1828 45.8512 49.1431 46.1989 51.2182 46.1989C53.2432 46.1989 55.1535 45.8746 56.844 45.283L58.426 50.5506H74.4089V39.5353H77.8963C86.3186 39.5353 91.3061 34.9787 91.3061 27.3316C91.3061 18.8204 86.4626 14.9164 76.1508 14.9164" fill="white"/>
</g>
<defs>
<linearGradient id="paint0_linear_1017_714" x1="65.872" y1="4.09754" x2="65.872" y2="61.6814" gradientUnits="userSpaceOnUse">
<stop stop-color="#00B8F1"/>
<stop offset="0.22" stop-color="#06A5E5"/>
<stop offset="0.794" stop-color="#1870C5"/>
<stop offset="1" stop-color="#1D61BC"/>
</linearGradient>
<clipPath id="clip0_1017_714">
<rect width="120" height="65" fill="white" transform="translate(0.705078 0.572266)"/>
</clipPath>
</defs>
</svg>
