<svg width="101" height="81" viewBox="0 0 101 81" fill="none" xmlns="http://www.w3.org/2000/svg">
<mask id="mask0_1017_858" style="mask-type:luminance" maskUnits="userSpaceOnUse" x="0" y="1" width="101" height="80">
<path d="M0.705078 1.4707H100.705V80.1466H0.705078V1.4707Z" fill="white"/>
</mask>
<g mask="url(#mask0_1017_858)">
<path d="M130.742 -1.20898H9.604C4.32532 -1.20898 0.0336914 2.21971 0.0336914 6.43449V103.143C0.0336914 107.355 4.32532 110.784 9.604 110.784H130.742C136.021 110.784 140.313 107.355 140.313 103.143V6.43449C140.313 2.21971 136.021 -1.20898 130.742 -1.20898ZM137.015 103.143C137.015 105.896 134.191 108.147 130.742 108.147H9.604C6.15523 108.147 3.33565 105.896 3.33565 103.143V6.43449C3.33565 3.68213 6.15523 1.42734 9.604 1.42734H130.742C134.191 1.42734 137.015 3.68213 137.015 6.43449V103.143Z" fill="white"/>
</g>
<path d="M98.3486 73.1504C98.3486 75.1261 96.3221 76.7422 93.8472 76.7422H6.90304C4.42821 76.7422 2.4043 75.1261 2.4043 73.1504V3.74034C2.4043 1.76466 4.42821 0.146484 6.90304 0.146484H93.8472C96.3221 0.146484 98.3486 1.76466 98.3486 3.74034V73.1504Z" fill="#253F7E"/>
<path d="M61.9649 64.7425C64.1277 64.0819 65.221 62.8358 65.221 60.8539C65.221 60.741 65.2105 60.6365 65.2 60.5298C65.0034 57.9353 62.4446 56.6621 59.3616 56.6621H50.9985V69.8814H54.9284V65.1209H57.744L60.7825 69.8814H65.221L61.9649 64.7425ZM58.7665 62.8797H54.9284V58.9786H58.7665C60.2713 58.9786 61.1967 59.541 61.1967 60.9062C61.1967 62.2275 60.3447 62.8797 58.7665 62.8797Z" fill="white"/>
<path d="M30.083 56.6582H25.6158L22.8683 62.4452L19.7774 58.1426C19.1875 57.3272 17.743 56.6582 16.5659 56.6582H14.3296L21.1092 66.1707L19.3369 69.8817H21.6623C22.8394 69.8817 24.1476 69.1625 24.5645 68.2823L30.083 56.6582Z" fill="white"/>
<path d="M41.9173 64.124H36.2939L38.6507 59.1607C38.8998 58.6318 39.3114 58.6318 39.5604 59.1607L41.9173 64.124ZM42.9738 66.3463L44.6517 69.8838H48.8594L43.3435 58.2576C42.924 57.3795 41.6184 56.6582 40.4387 56.6582H35.6253L29.3491 69.8838H31.4543C32.6131 69.8838 33.9003 69.1625 34.3198 68.2823L35.2373 66.3463H42.9712" fill="white"/>
<path d="M75.8151 59.1607C76.0668 58.6339 76.4757 58.6339 76.7248 59.1607L79.0817 64.124H73.4582L75.8151 59.1607ZM72.4043 66.3463H80.1356L81.0558 68.2823C81.4726 69.1625 82.7624 69.8838 83.9186 69.8838H86.0264L79.7502 56.6582H74.9368C73.7571 56.6582 72.4515 57.3795 72.0321 58.2597L66.5161 69.8838H70.7265L72.4017 66.3463" fill="white"/>
<path fill-rule="evenodd" clip-rule="evenodd" d="M26.6151 19.3176C26.6151 11.442 33.1378 6.45999 33.1378 6.45999C33.2951 6.35337 33.8299 6.37009 34.252 6.37009H41.5375C37.8646 8.93325 35.5654 15.3871 35.5654 19.3176C35.5654 23.2313 37.8646 29.6873 41.5375 32.2651H34.252C33.8299 32.2651 33.2951 32.2839 33.1378 32.1773C33.1378 32.1773 26.6151 27.1931 26.6151 19.3176ZM64.4638 32.1773C64.6394 32.2839 65.1533 32.2651 65.599 32.2651H72.8819C69.1854 29.6873 66.8888 23.2313 66.8888 19.3176C66.8888 15.3871 69.1854 8.93325 72.8819 6.37009H65.599C65.1533 6.37009 64.6394 6.35337 64.4638 6.45999C64.4638 6.45999 57.9569 11.44 57.9569 19.3176C57.9569 27.1931 64.4638 32.1773 64.4638 32.1773ZM48.7995 32.1773C48.9804 32.2839 49.4916 32.2651 49.9346 32.2651H57.1966C53.521 29.6873 51.2087 23.2313 51.2087 19.3176C51.2087 15.3871 53.521 8.93325 57.1966 6.37009H49.9346C49.4916 6.37009 48.9804 6.35337 48.7995 6.45999C48.7995 6.45999 42.2952 11.5319 42.2952 19.3176C42.2952 27.1011 48.7995 32.1773 48.7995 32.1773ZM84.4355 42.4947C83.3213 40.68 81.3813 37.5963 81.0273 36.553C81.0273 36.553 79.8581 34.1864 82.9962 33.7933C84.3227 33.6386 85.2089 32.8693 85.2744 31.8616L85.2587 30.6992C85.2482 30.5298 85.083 30.396 84.8733 30.3814L79.6955 30.3835C79.6064 30.3835 76.0567 30.6992 76.0147 34.1509C75.9073 40.0403 76.0646 40.8305 74.0826 41.094C73.9043 41.0772 73.7654 40.9622 73.7654 40.8159C73.768 40.7574 73.7706 40.6967 73.7706 40.6382C73.7706 37.5043 70.5879 34.9641 66.6633 34.9641C64.6656 34.9641 62.8646 35.6269 61.5747 36.6847H61.5721C61.5197 36.7475 61.3912 36.8374 61.247 36.8374C61.1002 36.8374 60.9744 36.7475 60.9219 36.6847C59.6295 35.6269 57.8284 34.9641 55.8307 34.9641C53.8356 34.9641 52.0346 35.6269 50.7421 36.6847C50.687 36.7475 50.5612 36.8374 50.4144 36.8374C50.2702 36.8374 50.1444 36.7475 50.0893 36.6847C48.7995 35.6269 46.9984 34.9641 45.0007 34.9641C43.003 34.9641 41.2019 35.6269 39.9121 36.6847H39.9095C39.857 36.7475 39.7312 36.8374 39.5844 36.8374C39.4376 36.8374 39.3143 36.7475 39.2593 36.6847C37.9694 35.6269 36.1684 34.9641 34.1707 34.9641C30.2435 34.9641 27.0608 37.5043 27.0608 40.6382C27.0608 40.6967 27.066 40.7553 27.0686 40.8138C27.0686 40.8138 27.0686 40.8138 27.0686 40.8159C27.0686 40.9727 26.8956 41.0981 26.699 41.0981C24.6908 40.8368 24.8507 40.0674 24.7432 34.1509C24.7013 30.6992 21.149 30.3835 21.0625 30.3835L15.8821 30.3814C15.6724 30.396 15.5072 30.5298 15.4967 30.6992L15.4836 31.8616C15.5465 32.8693 16.4353 33.6386 17.7592 33.7933C20.8973 34.1864 19.7307 36.553 19.7307 36.553C19.3767 37.5963 17.4341 40.68 16.3199 42.4947C15.6094 43.6697 14.1623 46.5652 16.4326 49.3563C17.7487 50.9744 19.3086 52.486 24.8324 52.4191H75.9387C81.4809 52.486 83.0198 50.9744 84.3332 49.3563L84.328 49.3521C86.5931 46.561 85.1486 43.6697 84.4355 42.4947ZM34.1707 37.2346C31.8138 37.2346 29.9053 38.7587 29.9053 40.6382C29.9053 42.5198 31.8138 44.0439 34.1707 44.0439C36.5249 44.0439 38.4335 42.5198 38.4335 40.6382C38.4335 38.7587 36.5249 37.2346 34.1707 37.2346ZM66.6633 37.2346C64.3091 37.2346 62.3979 38.7587 62.3979 40.6382C62.3979 42.5198 64.3091 44.0439 66.6633 44.0439C69.0176 44.0439 70.9261 42.5198 70.9261 40.6382C70.9261 38.7587 69.0176 37.2346 66.6633 37.2346ZM45.0007 37.2346C42.6465 37.2346 40.7353 38.7587 40.7353 40.6382C40.7353 42.5198 42.6465 44.0439 45.0007 44.0439C47.3549 44.0439 49.2661 42.5198 49.2661 40.6382C49.2661 38.7587 47.3549 37.2346 45.0007 37.2346ZM55.8307 37.2346C53.4765 37.2346 51.5679 38.7587 51.5679 40.6382C51.5679 42.5198 53.4765 44.0439 55.8307 44.0439C58.1876 44.0439 60.0961 42.5198 60.0961 40.6382C60.0961 38.7587 58.1876 37.2346 55.8307 37.2346Z" fill="white"/>
</svg>
