<svg width="148" height="108" viewBox="0 0 148 108" fill="none" xmlns="http://www.w3.org/2000/svg">
<path fill-rule="evenodd" clip-rule="evenodd" d="M33.6699 16.4609L30.3955 21.509L41.7227 23.4219L44.9424 18.4145L33.6699 16.4609ZM47.4111 18.8635L44.1895 23.9108L55.5176 25.8644L58.6807 20.8563L47.4111 18.8635ZM84.1758 25.294L81.0098 30.3413L92.3369 32.3364L95.5557 27.2891L84.1758 25.294ZM97.9707 27.738L94.751 32.7839L106.129 34.739L109.295 29.7309L97.9707 27.738Z" fill="#0E88D3"/>
<path fill-rule="evenodd" clip-rule="evenodd" d="M85.3047 60.3418C84.6602 60.3418 84.0703 60.5455 83.5342 60.913C83.1025 61.2382 82.7822 61.7664 82.7822 62.2954C82.7822 62.8258 83.1025 63.2733 83.5342 63.68C84.0703 64.0053 84.6602 64.2505 85.3047 64.2505C86.0566 64.2505 86.7539 64.0053 87.1826 63.68C87.7188 63.2733 87.9346 62.8258 87.9346 62.2954C87.9346 61.7664 87.7188 61.2382 87.1826 60.913C86.7539 60.5455 86.0566 60.3418 85.3047 60.3418ZM80.6338 65.2684V67.5887H98.7227C96.2529 67.9954 94.0547 68.8911 92.4424 70.152C91.585 70.8047 90.7793 71.8219 90.0273 73.125C89.7041 73.694 89.4365 74.2644 89.1152 74.9149C94.375 74.9571 97.6494 75.1186 99.0986 75.5253C100.063 75.8105 100.924 76.2173 101.837 76.7062C102.963 77.3567 103.554 77.9694 103.714 78.5798H93.0869L89.4912 81.3076H101.944C105.592 79.2303 107.364 77.5204 107.364 76.1358C107.364 75.5253 106.989 74.9571 106.345 74.4681C104.896 73.3687 102.962 72.6761 100.548 72.3508C99.3145 72.1871 97.1133 72.0656 93.999 72.0656C94.4277 71.6189 94.9121 71.0484 95.2881 70.5195C95.9326 69.909 96.5215 69.6238 97.2207 69.6238C98.8301 69.6238 101.568 70.4372 105.216 72.0256L108.866 69.2163C107.473 68.5659 106.023 67.9954 104.68 67.5887H147.299V65.2684H80.6338ZM83.1035 69.4601V81.3076H87.5586V69.4601H83.1035ZM110.96 69.4601V81.3076H115.468V73.2465C116.648 72.879 117.829 72.636 119.065 72.636C120.299 72.636 121.267 72.922 122.017 73.3687C122.93 74.1007 123.305 75.2423 123.145 76.7885L126.955 73.9792C127.062 72.5145 126.579 71.3729 125.614 70.641C124.807 70.0705 123.842 69.7453 122.608 69.7453C121.428 69.7453 120.086 70.0305 118.689 70.641C117.4 71.0877 116.328 71.7404 115.468 72.3908V69.4601H110.96ZM129.262 69.4601V78.2946C129.262 78.2946 129.37 80.0044 130.874 80.8586C131.892 81.3476 133.341 81.3076 133.341 81.3076H145.525V72.636C145.525 71.7804 145.149 71.0477 144.505 70.4372C143.916 69.7868 143.111 69.4601 142.144 69.4601H129.262ZM140.256 72.5746C141.421 72.5583 141.339 72.7924 141.339 74.1822V78.1309H134.309C134.309 78.1309 133.609 78.1731 133.449 78.0094C133.236 77.8056 133.341 77.5619 133.341 76.381V72.5946H139.677C139.898 72.5849 140.09 72.5768 140.256 72.5746Z" fill="#0E88D3"/>
<path fill-rule="evenodd" clip-rule="evenodd" d="M36.5684 62.9875L77.3066 0.339844L77.0381 107.807L65.8213 36.3262L36.5684 62.9875Z" fill="#F47216"/>
<path fill-rule="evenodd" clip-rule="evenodd" d="M54.333 58.7945C54.0723 58.8019 53.8047 58.816 53.5293 58.836L52.0273 61.5638C56.2627 60.9837 58.0713 61.8794 59.6699 65.1865H0.179688V67.5468H14.5107V68.8914C14.5107 68.8914 8.81934 67.1815 3.99023 70.4775C0.179687 73.8158 3.39844 77.074 3.39844 77.074C3.39844 77.074 6.5127 75.7709 11.4492 76.3813C16.0645 76.9918 15.8516 78.6601 15.8516 78.6601C15.8516 78.6601 15.207 80.7367 11.5039 80.33C7.80078 79.881 8.06934 77.074 8.06934 77.074L3.99023 79.1491C3.99023 79.1491 5.54004 81.1501 9.03027 81.7902L12.1484 85.3381H16.7646L13.2041 81.848C13.6074 81.7939 14.0234 81.7242 14.4551 81.6331C23.418 79.8418 20.252 74.7114 13.5977 73.369C8.97949 72.4734 3.99023 74.1825 3.99023 74.1825C3.99023 74.1825 4.63281 69.8671 12.8984 70.8865C17.5137 71.4947 19.1787 72.9216 19.1787 72.9216V67.5468H28.4307L24.5469 68.9314C24.5469 68.9314 26.5322 70.6013 27.2295 72.7979C27.8213 75.0782 26.5322 75.4856 25.7275 75.5256C25.1914 75.2426 22.6689 72.5149 22.6689 72.5149L20.8965 73.6943L27.2842 81.3079H31.792C31.792 81.3079 27.6602 77.5215 27.0156 76.8288C28.0742 76.8014 29.5322 76.545 30.4902 75.5627C31.1592 75.8272 31.9717 76.0427 32.9199 76.0961C35.7627 76.2998 37.5361 75.2419 37.5361 75.2419V81.3079H42.2041V67.5468H52.3066L48.377 68.9314C48.377 68.9314 50.4697 70.6013 51.0615 72.7979C51.6504 75.0782 50.418 75.4856 49.5576 75.5256C49.1289 75.2426 46.499 72.5149 46.499 72.5149L44.7266 73.6943L51.0615 81.3079H55.6221C55.6221 81.3079 51.5986 77.5215 50.9541 76.8288C52.4033 76.7888 54.8174 76.2598 55.2461 73.6543C55.8721 70.1975 53.8379 68.1446 53.1328 67.5468H58.6807V81.3057H63.3516V67.5468H65.8213V65.1865H62.4141C60.4854 60.0673 58.1299 58.69 54.333 58.7945ZM29.2549 67.5468H37.5361V71.5369C37.5361 71.5369 37.5361 72.6371 34.6904 73.6943C33.4902 74.1899 32.2588 74.3818 31.2031 74.4351C31.2939 74.1973 31.3691 73.9402 31.416 73.6543C32.042 70.1975 29.9727 68.1446 29.2549 67.5468Z" fill="#F47216"/>
</svg>
