<svg width="166" height="86" viewBox="0 0 166 86" fill="none" xmlns="http://www.w3.org/2000/svg">
<g clip-path="url(#clip0_1017_765)">
<path d="M0.205078 41.525C0.349499 35.8279 1.2666 30.2325 2.90151 25.0736C4.53643 19.9147 6.85558 15.2982 9.72024 11.5003C5.00017 19.2897 2.39457 29.4009 2.40766 39.8773C2.40766 51.149 5.42441 61.959 10.7942 69.9293C13.4531 73.8758 16.6097 77.0063 20.0837 79.1421C23.5576 81.278 27.281 82.3773 31.0413 82.3773C38.0992 82.3942 44.9109 78.5271 50.1597 71.5234C47.5651 75.833 44.4039 79.309 40.8706 81.7378C37.3373 84.1666 33.5065 85.4968 29.614 85.6465C37.0729 85.3466 44.1583 80.7369 49.3616 72.7989C54.5649 64.8609 57.475 54.2216 57.4723 43.1465C57.4723 31.8748 54.4555 21.0648 49.0857 13.0945C43.7158 5.12416 36.4328 0.646496 28.8387 0.646496C21.4301 0.638489 14.3078 4.89289 8.96833 12.5158C3.62882 20.1387 0.487741 30.5367 0.205078 41.525ZM5.49128 43.1465C5.46784 34.0039 7.88869 25.2209 12.2227 18.7242C16.5568 12.2276 22.45 8.54799 28.6096 8.49265H28.8387C35.0074 8.49265 40.9235 12.1299 45.2855 18.6042C49.6474 25.0786 52.098 33.8596 52.098 43.0157C51.9735 52.0489 49.4681 60.6496 45.1195 66.972C40.771 73.2944 34.9259 76.8345 28.8387 76.8326C22.7512 76.8695 16.8965 73.3626 12.5314 67.0645C8.16638 60.7665 5.63881 52.1794 5.49128 43.1465ZM0.205078 41.6819C0.205078 41.6819 0.205078 41.6819 0.205078 41.5511C0.205078 41.5511 0.205078 41.5511 0.205078 41.6819Z" fill="url(#paint0_linear_1017_765)"/>
<path d="M52.098 43.146C52.0806 49.9684 50.7017 56.6302 48.1354 62.2903C45.569 67.9503 41.9304 72.3549 37.6788 74.9478C33.4272 77.5407 28.7533 78.2058 24.2473 76.859C19.7413 75.5122 15.6051 72.2139 12.361 67.3806C9.11697 62.5473 6.91047 56.3957 6.02012 49.7024C5.12977 43.0092 5.5955 36.0745 7.3585 29.7738C9.1215 23.4732 12.1027 18.0891 15.9258 14.3014C19.7488 10.5137 24.2422 8.49224 28.8387 8.49219C35.0075 8.49219 40.9236 12.1294 45.2855 18.6038C49.6475 25.0781 52.098 33.8592 52.098 43.0153" fill="#1761A9"/>
<path d="M5.49121 43.146C5.49121 52.3021 7.94174 61.0832 12.3037 67.5575C16.6657 74.0319 22.5818 77.6691 28.7505 77.6691C33.3932 77.6662 37.9292 75.6027 41.7756 71.7438C45.6221 67.8848 48.6032 62.4068 50.3358 56.0137C49.004 60.9263 46.9302 65.3196 44.2743 68.8553C48.1053 62.529 50.2209 54.3199 50.2125 45.8137C50.2125 36.6576 47.762 27.8766 43.4 21.4022C39.038 14.9279 33.1219 11.2906 26.9532 11.2906C21.2527 11.3103 15.7571 14.4483 11.5175 20.1045C14.9725 14.3781 19.6179 10.5302 24.7154 9.17219C19.3338 10.5845 14.4586 14.7623 10.9438 20.9738C7.42899 27.1853 5.49875 35.0344 5.49121 43.146ZM52.0098 44.2968C52.0098 44.1399 52.0098 44.0091 52.0098 43.8522C52.0098 43.983 52.0098 44.1399 52.0098 44.2968Z" fill="url(#paint1_radial_1017_765)"/>
<path d="M52.0982 43.146C52.1098 38.6014 51.5167 34.0981 50.353 29.8945C49.1893 25.6908 47.4779 21.8696 45.3169 18.65C43.1559 15.4303 40.5879 12.8757 37.7602 11.1326C34.9325 9.38944 31.9007 8.49215 28.8389 8.49219C35.0076 8.49219 40.9237 12.1294 45.2857 18.6038C49.6476 25.0781 52.0982 33.8592 52.0982 43.0153" fill="url(#paint2_radial_1017_765)"/>
<path d="M28.821 8.4922H28.6272C25.3967 8.53473 22.2078 9.57793 19.2646 11.555C16.3214 13.5321 13.6888 16.3995 11.5352 19.9737C15.7974 14.2875 21.3281 11.1473 27.059 11.1599C33.2277 11.1599 39.1438 14.7971 43.5058 21.2715C47.8677 27.7458 50.3183 36.5269 50.3183 45.683C50.3267 54.1892 48.2111 62.3982 44.3801 68.7245C46.7565 65.5736 48.6698 61.7294 50.0008 57.4321C51.3317 53.1347 52.0516 48.4763 52.1156 43.7476C52.1813 39.1505 51.6276 34.5802 50.4871 30.3051C49.3466 26.0299 47.6421 22.136 45.4738 18.8519C43.3056 15.5679 40.7171 12.9598 37.8605 11.1808C35.0039 9.40176 31.9366 8.48769 28.8387 8.4922H28.821Z" fill="url(#paint3_radial_1017_765)"/>
<path d="M0.205344 42.7015V42.9631C0.189101 48.5596 0.917744 54.1059 2.34944 59.2834C3.78114 64.4608 5.8877 69.1676 8.5482 73.1335C11.2087 77.0994 14.3707 80.2463 17.8528 82.3936C21.3348 84.5409 25.0683 85.6462 28.8389 85.6462H29.1209C33.0971 85.5969 37.0224 84.3151 40.6455 81.8831C44.2685 79.451 47.5092 75.9223 50.16 71.5231C44.9112 78.5268 38.0995 82.3939 31.0415 82.3769C27.2813 82.3769 23.5579 81.2776 20.0839 79.1418C16.6099 77.006 13.4534 73.8755 10.7945 69.929C5.42467 61.9587 2.40793 51.1486 2.40793 39.8769C2.39484 29.4005 5.00044 19.2893 9.72051 11.5C6.75964 15.4325 4.3841 20.2386 2.74569 25.6111C1.10729 30.9837 0.242075 36.8045 0.205344 42.7015Z" fill="url(#paint4_linear_1017_765)"/>
<path d="M39.7987 41.3936H29.1206L34.2835 28.1074H44.9792L39.7987 41.3936Z" fill="white"/>
<path d="M23.7287 28.1074H13.1562L28.8739 68.5151L34.1601 54.8628L23.7287 28.1074Z" fill="white"/>
<path d="M73.9301 32.4746H77.7361L72.679 54.0777H69.0491L64.0625 32.4746H67.939L70.9346 47.7223L73.9301 32.4746Z" fill="#666364"/>
<path d="M79.0225 32.4746H89.7887V36.6592H82.7404V40.5823H89.401V44.6885H82.6523V49.9192H90.423V54.1823H79.0225V32.4746Z" fill="#666364"/>
<path d="M96.6255 36.5037V42.3622H99.6386C99.9191 42.416 100.204 42.3781 100.474 42.2511C100.743 42.1241 100.991 41.911 101.199 41.6269C101.407 41.3428 101.571 40.9945 101.679 40.6065C101.787 40.2184 101.836 39.8 101.824 39.3806C101.824 36.6345 100.484 36.5299 99.7267 36.5037H96.6255ZM92.978 32.476H99.5329C100.385 32.3276 101.249 32.4465 102.069 32.8249C102.888 33.2034 103.645 33.833 104.29 34.6729C105.056 36.0164 105.469 37.7255 105.453 39.4853C105.501 40.8532 105.221 42.202 104.663 43.2932C104.105 44.3845 103.305 45.1478 102.405 45.4483L105.771 54.0791H101.806L98.881 46.3637H96.5903V54.0791H92.978V32.476Z" fill="#666364"/>
<path d="M111.85 54.0777H108.22V32.4746H111.85V54.0777Z" fill="#666364"/>
<path d="M116.907 47.5928C117.298 48.2835 117.777 48.8524 118.317 49.2667C119.18 49.9474 120.141 50.3064 121.118 50.3128C122.563 50.3128 123.797 49.2928 123.797 47.6974C123.797 46.1021 122.334 45.7097 121.259 45.5005C120.185 45.2913 119.656 45.1867 118.863 44.9513C118.07 44.7159 114.951 43.7221 114.951 39.0667C114.951 33.6005 118.264 32.0313 120.801 32.0313C122.005 32.027 123.197 32.3892 124.304 33.0954C125.41 33.8016 126.407 34.837 127.233 36.1374L124.554 38.9882C124.132 38.3043 123.645 37.7142 123.11 37.2359C122.378 36.6485 121.563 36.326 120.731 36.2944C119.286 36.2944 118.563 37.5236 118.563 38.5436C118.563 40.1913 119.797 40.4528 120.414 40.5574C121.921 40.8053 123.411 41.2339 124.872 41.839C125.624 42.17 126.281 42.8643 126.737 43.8118C127.193 44.7593 127.424 45.9059 127.391 47.0697C127.377 48.7506 126.966 50.3707 126.228 51.6467C125.509 52.6782 124.65 53.4706 123.708 53.9712C122.766 54.4717 121.763 54.6689 120.766 54.5498C119.503 54.6825 118.237 54.3538 117.079 53.5924C115.92 52.831 114.906 51.6601 114.123 50.1821L116.907 47.5928Z" fill="#666364"/>
<path d="M133.805 54.0777H130.175V32.4746H133.805V54.0777Z" fill="#666364"/>
<path d="M147.144 52.0385C146.59 52.8877 145.923 53.5583 145.186 54.0083C144.45 54.4582 143.659 54.678 142.862 54.6539C138.809 54.6539 136.307 49.7631 136.307 43.4077C136.307 36.4508 139.338 31.8477 143.479 31.8477C144.741 31.8402 145.986 32.2916 147.104 33.1623C148.222 34.0331 149.179 35.2968 149.893 36.8431L147.126 39.3277C146.807 38.404 146.323 37.6291 145.726 37.089C145.128 36.5489 144.442 36.2647 143.743 36.2677C140.977 36.2677 139.937 39.6677 139.937 43.277C139.893 45.2358 140.331 47.1513 141.17 48.6647C141.786 49.522 142.574 50.0575 143.414 50.1897C144.253 50.3219 145.099 50.0435 145.822 49.397C146.182 49.0455 146.477 48.5682 146.683 48.0073C146.889 47.4463 146.999 46.8188 147.003 46.1801H143.655V42.0739H149.981V54.0785H147.144V52.0385Z" fill="#666364"/>
<path d="M152.977 32.4757H156.501L159.655 40.3219C160.8 43.3557 161.153 44.3234 161.84 46.2326L161.681 32.3711H165.205V53.9742H161.681L158.968 47.148C158.039 44.9561 157.186 42.6952 156.413 40.3742L156.518 53.948H152.994L152.977 32.4757Z" fill="#666364"/>
</g>
<defs>
<linearGradient id="paint0_linear_1017_765" x1="48.8751" y1="4.43619" x2="-7.1859" y2="42.2063" gradientUnits="userSpaceOnUse">
<stop stop-color="white"/>
<stop offset="1" stop-color="#868484"/>
</linearGradient>
<radialGradient id="paint1_radial_1017_765" cx="0" cy="0" r="1" gradientUnits="userSpaceOnUse" gradientTransform="translate(69.2914 92.3833) scale(23.4189 34.76)">
<stop stop-color="#1761A8"/>
<stop offset="1" stop-color="#14477B"/>
</radialGradient>
<radialGradient id="paint2_radial_1017_765" cx="0" cy="0" r="1" gradientUnits="userSpaceOnUse" gradientTransform="translate(69.2917 92.3833) scale(23.4189 34.76)">
<stop stop-color="#1761A8"/>
<stop offset="1" stop-color="#14477B"/>
</radialGradient>
<radialGradient id="paint3_radial_1017_765" cx="0" cy="0" r="1" gradientUnits="userSpaceOnUse" gradientTransform="translate(69.2915 92.3833) scale(23.4189 34.76)">
<stop stop-color="#165DA1"/>
<stop offset="1" stop-color="#164375"/>
</radialGradient>
<linearGradient id="paint4_linear_1017_765" x1="48.8754" y1="4.43585" x2="-7.18563" y2="42.206" gradientUnits="userSpaceOnUse">
<stop stop-color="#EBEBEB"/>
<stop offset="1" stop-color="#7E7B7C"/>
</linearGradient>
<clipPath id="clip0_1017_765">
<rect width="165" height="85" fill="white" transform="translate(0.205078 0.646484)"/>
</clipPath>
</defs>
</svg>
