<svg width="189" height="48" viewBox="0 0 189 48" fill="none" xmlns="http://www.w3.org/2000/svg">
<path d="M0.942383 10.2708C0.942383 10.2708 5.58054 29.2767 6.32078 32.3616C7.18476 35.9623 8.74151 37.2875 13.2299 36.3938L16.1261 24.6103C16.8601 21.6833 17.3525 19.5966 17.8243 16.6192H17.9073C18.2389 19.6259 18.7109 21.6921 19.315 24.6205C19.315 24.6205 20.494 29.9699 21.0977 32.7796C21.703 35.5883 23.3877 37.3585 27.7841 36.3948L34.6849 10.2728H29.1133L26.7574 21.5666C26.124 24.854 25.5492 27.4227 25.1061 30.4301H25.0274C24.6247 27.4527 24.1125 24.9857 23.4685 21.7828L21.0154 10.2728H15.2103L12.5863 21.4928C11.8429 24.9023 11.1476 27.6554 10.7055 30.5609H10.6254C10.1726 27.8247 9.56954 24.3645 8.91647 21.0641C8.91647 21.0641 7.35753 13.039 6.81056 10.2728L0.942925 10.2735L0.942383 10.2708ZM54.0564 10.2708V36.3928H59.361V30.8459V10.2695H54.0564V10.2708ZM128.767 10.2708V29.5414C128.767 32.1984 129.267 34.0598 130.337 35.1971C131.272 36.1917 132.811 36.8357 134.656 36.8357C136.224 36.8357 137.767 36.5383 138.495 36.2674L138.426 32.1219C137.885 32.2551 137.263 32.3617 136.411 32.3617C134.604 32.3617 133.998 31.2044 133.998 28.8187V21.4459H138.618V16.448H133.998V10.2709H128.767L128.767 10.2708ZM42.2016 16.3264C38.9049 16.3264 36.288 17.252 34.8615 18.0764L35.9054 21.6511C37.2109 20.828 39.2896 20.1467 41.2578 20.1467C44.5165 20.1383 45.0492 21.9893 45.0492 23.1764V23.4571C37.9486 23.4465 33.4635 25.9035 33.4635 30.912C33.4635 33.9699 35.7467 36.8356 39.7168 36.8356C42.1608 36.8356 44.2048 35.8609 45.4297 34.2992H45.5498C45.5498 34.2992 46.361 37.6909 50.83 36.3939C50.5952 34.9822 50.519 33.4772 50.519 31.6644V24.6861C50.519 20.2384 48.6199 16.3264 42.2016 16.3264ZM73.9335 16.3264C70.614 16.3264 69.1223 18.0086 68.2178 19.4359H68.1392V16.7694H63.0768V36.394H68.4097V24.885C68.4097 24.3455 68.4714 23.7749 68.6597 23.2786C69.1016 22.1198 70.1796 20.7644 71.9009 20.7644C74.0527 20.7644 75.0596 22.5836 75.0596 25.209V36.3938H80.3867V24.7456C80.3867 24.2305 80.4574 23.6101 80.6089 23.1548C81.0469 21.8367 82.2091 20.7642 83.8091 20.7642C85.9906 20.7642 87.0375 22.5517 87.0375 25.6411V36.3939H92.3684V24.8356C92.3684 18.74 89.2732 16.3265 85.7793 16.3265C84.2319 16.3265 83.0106 16.7145 81.9064 17.3924C80.9782 17.962 80.1474 18.7712 79.4211 19.8367H79.3425C78.4975 17.7217 76.515 16.3265 73.9326 16.3265L73.9335 16.3264ZM103.218 16.3264C99.922 16.3264 97.3055 17.252 95.8778 18.0764L96.9232 21.6511C98.2274 20.828 100.307 20.1467 102.275 20.1467C105.531 20.1383 106.065 21.9893 106.065 23.1764V23.4571C98.9654 23.4465 94.4797 25.9035 94.4797 30.912C94.4797 33.9699 96.7641 36.8356 100.736 36.8356C103.178 36.8356 105.223 35.8609 106.446 34.2992H106.566C106.566 34.2992 107.377 37.6909 111.847 36.3939C111.612 34.9822 111.536 33.4772 111.536 31.6644V24.6861C111.536 20.2384 109.637 16.3264 103.218 16.3264ZM125.364 16.3264C123.322 16.3264 120.999 17.6446 120.023 20.4703H119.874V16.7692H115.074V36.3938H120.546V26.3447C120.546 25.8026 120.579 25.3299 120.665 24.8965C121.07 22.7915 122.68 21.4458 124.991 21.4458C125.625 21.4458 126.079 21.5145 126.57 21.5855V16.4478C126.158 16.3646 125.877 16.3262 125.364 16.3262L125.364 16.3264ZM45.2205 26.9347V29.3829C45.2205 29.7451 45.189 30.1187 45.0887 30.4454C44.6782 31.8051 43.2696 32.9541 41.5088 32.9541C40.0407 32.9541 38.8746 32.1209 38.8746 30.3584C38.8746 27.6624 41.8421 26.9172 45.2205 26.9347ZM106.237 26.9347V29.3829C106.237 29.7451 106.205 30.1187 106.105 30.4454C105.694 31.8051 104.286 32.9541 102.526 32.9541C101.057 32.9541 99.8909 32.1209 99.8909 30.3584C99.8909 27.6624 102.858 26.9172 106.237 26.9347Z" fill="#007DC6"/>
<path d="M167.299 0.824219C165.587 0.824219 164.226 1.78057 164.226 2.94482L165.266 14.7216C165.381 15.4311 166.25 15.9784 167.3 15.9784C168.353 15.977 169.219 15.4302 169.337 14.7216L170.382 2.94482C170.382 1.78067 169.017 0.824319 167.302 0.824319L167.299 0.824219ZM150.351 10.271C149.462 10.2921 148.452 10.9652 147.809 12.0791C146.95 13.5623 147.102 15.2198 148.108 15.8013L158.825 20.7926C159.495 21.0416 160.404 20.5661 160.931 19.6583C160.931 19.6582 160.931 19.6579 160.931 19.6578C161.46 18.7455 161.419 17.7197 160.862 17.2647L151.182 10.4752C150.931 10.3296 150.648 10.2641 150.351 10.2711L150.351 10.271ZM184.248 10.271C183.952 10.2639 183.67 10.3295 183.419 10.4751L173.737 17.2646C173.184 17.7195 173.143 18.7454 173.669 19.6576L173.669 19.6581C174.198 20.566 175.104 21.0414 175.774 20.7924L186.496 15.8014C187.506 15.2199 187.651 13.5625 186.797 12.0792C186.152 10.9653 185.14 10.2922 184.251 10.2711L184.248 10.271ZM159.226 25.8087C159.087 25.8068 158.953 25.8283 158.827 25.8756L148.109 30.8609C147.104 31.4449 146.952 33.1031 147.811 34.5879C148.667 36.0682 150.177 36.7719 151.183 36.1914L160.863 29.4071C161.42 28.9466 161.462 27.9211 160.932 27.0097L160.937 27.0117C160.509 26.2693 159.827 25.8169 159.226 25.8087ZM175.378 25.8087C174.778 25.8169 174.097 26.2695 173.668 27.0118L173.672 27.0098C173.145 27.9212 173.186 28.9467 173.74 29.4073L183.421 36.1915C184.425 36.7721 185.936 36.0683 186.797 34.588C187.65 33.1032 187.505 31.445 186.496 30.861L175.777 25.8758C175.651 25.8284 175.516 25.8068 175.378 25.8087ZM167.298 30.6895C166.249 30.6907 165.382 31.2357 165.267 31.9434L164.227 43.7196C164.227 44.8858 165.588 45.8402 167.301 45.8402C169.017 45.8402 170.38 44.8858 170.38 43.7196L169.338 31.9434C169.221 31.2357 168.355 30.6908 167.302 30.6895H167.298Z" fill="#FFC220"/>
</svg>
