<svg xmlns="http://www.w3.org/2000/svg" enable-background="new 0 0 24 24" viewBox="0 0 24 24" id="down"><g><path fill="#f1b01b" d="M22,12c0,5.5-4.5,10-10,10c-2.8,0-5.3-1.1-7.1-2.9S2,14.8,2,12C2,6.5,6.5,2,12,2c2.8,0,5.3,1.1,7.1,2.9
		S22,9.2,22,12z"></path><path fill="#fff" d="M12,15c-0.3,0-0.5-0.1-0.7-0.3l-3-3c-0.4-0.4-0.4-1,0-1.4s1-0.4,1.4,0l2.3,2.3l2.3-2.3c0.4-0.4,1-0.4,1.4,0
			s0.4,1,0,1.4l-3,3C12.5,14.9,12.3,15,12,15z"></path><path d="M22,12c0,5.5-4.5,10-10,10c-2.8,0-5.3-1.1-7.1-2.9l5.4-5.4l1.4-1.4l7.4-7.4C20.9,6.7,22,9.2,22,12z" opacity=".1"></path></g></svg>