<svg width="15" height="12" viewBox="0 0 15 12" fill="none" xmlns="http://www.w3.org/2000/svg">
<path d="M0.7596 0.434162C0.660358 0.432656 0.561826 0.452331 0.469731 0.492043C0.377636 0.531754 0.293814 0.590711 0.223137 0.665487C0.152461 0.740263 0.0963387 0.829366 0.0580325 0.927619C0.0197263 1.02587 0 1.13131 0 1.23782C0 1.34432 0.0197263 1.44977 0.0580325 1.54802C0.0963387 1.64627 0.152461 1.73538 0.223137 1.81015C0.293814 1.88493 0.377636 1.94388 0.469731 1.9836C0.561826 2.02331 0.660358 2.04298 0.7596 2.04148H14.2404C14.3396 2.04298 14.4382 2.02331 14.5303 1.9836C14.6224 1.94388 14.7062 1.88493 14.7769 1.81015C14.8475 1.73538 14.9037 1.64627 14.942 1.54802C14.9803 1.44977 15 1.34432 15 1.23782C15 1.13131 14.9803 1.02587 14.942 0.927619C14.9037 0.829366 14.8475 0.740263 14.7769 0.665487C14.7062 0.590711 14.6224 0.531754 14.5303 0.492043C14.4382 0.452331 14.3396 0.432656 14.2404 0.434162H0.7596ZM0.7596 5.2561C0.660358 5.25459 0.561826 5.27427 0.469731 5.31398C0.377636 5.35369 0.293814 5.41265 0.223137 5.48743C0.152461 5.5622 0.0963387 5.6513 0.0580325 5.74956C0.0197263 5.84781 0 5.95325 0 6.05976C0 6.16626 0.0197263 6.27171 0.0580325 6.36996C0.0963387 6.46821 0.152461 6.55731 0.223137 6.63209C0.293814 6.70687 0.377636 6.76582 0.469731 6.80553C0.561826 6.84525 0.660358 6.86492 0.7596 6.86341H14.2404C14.3396 6.86492 14.4382 6.84525 14.5303 6.80553C14.6224 6.76582 14.7062 6.70687 14.7769 6.63209C14.8475 6.55731 14.9037 6.46821 14.942 6.36996C14.9803 6.27171 15 6.16626 15 6.05976C15 5.95325 14.9803 5.84781 14.942 5.74956C14.9037 5.6513 14.8475 5.5622 14.7769 5.48743C14.7062 5.41265 14.6224 5.35369 14.5303 5.31398C14.4382 5.27427 14.3396 5.25459 14.2404 5.2561H0.7596ZM0.7596 10.078C0.660358 10.0765 0.561826 10.0962 0.469731 10.1359C0.377636 10.1756 0.293814 10.2346 0.223137 10.3094C0.152461 10.3841 0.0963387 10.4732 0.0580325 10.5715C0.0197263 10.6697 0 10.7752 0 10.8817C0 10.9882 0.0197263 11.0936 0.0580325 11.1919C0.0963387 11.2901 0.152461 11.3793 0.223137 11.454C0.293814 11.5288 0.377636 11.5878 0.469731 11.6275C0.561826 11.6672 0.660358 11.6869 0.7596 11.6854H14.2404C14.3396 11.6869 14.4382 11.6672 14.5303 11.6275C14.6224 11.5878 14.7062 11.5288 14.7769 11.454C14.8475 11.3793 14.9037 11.2901 14.942 11.1919C14.9803 11.0936 15 10.9882 15 10.8817C15 10.7752 14.9803 10.6697 14.942 10.5715C14.9037 10.4732 14.8475 10.3841 14.7769 10.3094C14.7062 10.2346 14.6224 10.1756 14.5303 10.1359C14.4382 10.0962 14.3396 10.0765 14.2404 10.078H0.7596Z" fill="white"/>
</svg>
